<svg width="49" height="49" viewBox="0 0 49 49" fill="none" xmlns="http://www.w3.org/2000/svg">
<rect x="0.25" y="0.25" width="48.5" height="48.5" rx="24.25" fill="#F85C71" stroke="url(#paint0_linear_2007_103)" stroke-width="0.5"/>
<path d="M18.5 35.5H30.5" stroke="white" stroke-width="2" stroke-linecap="round"/>
<path d="M24.5 11.5C25.3959 11.5 25.9303 12.1607 26.2529 12.6729C26.5953 13.2164 26.9464 14.0004 27.3574 14.9111L28.374 17.1631C28.6103 17.6866 28.7677 18.0342 28.9062 18.293C29.041 18.5445 29.1236 18.644 29.1807 18.6973C29.3897 18.8922 29.6353 18.9888 29.874 18.9951C29.9239 18.9964 30.0232 18.9878 30.2627 18.9023C30.5129 18.813 30.8308 18.6723 31.3232 18.4521C31.8459 18.2185 32.2995 18.0149 32.665 17.8887C32.9583 17.7874 33.3644 17.6704 33.793 17.7383L33.9775 17.7783L34.1182 17.8252C34.8072 18.0789 35.2883 18.6797 35.4521 19.3652C35.5613 19.8218 35.4637 20.2814 35.3613 20.6514C35.2526 21.0444 35.0752 21.5366 34.8652 22.1211L33.0117 27.2803C32.6223 28.3642 32.3058 29.2489 31.9766 29.9355C31.6392 30.6392 31.2462 31.2295 30.6523 31.6758C30.0508 32.1278 29.3881 32.3243 28.6436 32.415C27.9297 32.502 27.0543 32.5 26.0068 32.5H22.9932C21.9457 32.5 21.0703 32.502 20.3564 32.415C19.6119 32.3243 18.9492 32.1278 18.3477 31.6758C17.7538 31.2295 17.3608 30.6392 17.0234 29.9355C16.6942 29.2489 16.3777 28.3642 15.9883 27.2803L14.1348 22.1211C13.9248 21.5366 13.7474 21.0444 13.6387 20.6514C13.5363 20.2814 13.4387 19.8218 13.5479 19.3652L13.585 19.2295C13.7905 18.5563 14.306 17.9845 15.0225 17.7783C15.5173 17.636 15.9999 17.773 16.335 17.8887C16.7005 18.0149 17.1541 18.2185 17.6768 18.4521C18.1692 18.6723 18.4871 18.813 18.7373 18.9023C18.9768 18.9878 19.0761 18.9964 19.126 18.9951C19.3647 18.9888 19.6103 18.8922 19.8193 18.6973C19.8764 18.644 19.959 18.5445 20.0938 18.293C20.2323 18.0342 20.3897 17.6866 20.626 17.1631L21.6426 14.9111C22.0536 14.0004 22.4047 13.2164 22.7471 12.6729C23.0697 12.1607 23.6041 11.5 24.5 11.5Z" stroke="white" stroke-width="2"/>
<defs>
<linearGradient id="paint0_linear_2007_103" x1="-78.5" y1="-31" x2="125" y2="72" gradientUnits="userSpaceOnUse">
<stop stop-color="#C8C8C8"/>
<stop offset="1" stop-color="white"/>
</linearGradient>
</defs>
</svg>
