<svg width="754" height="680" viewBox="0 0 754 680" fill="none" xmlns="http://www.w3.org/2000/svg">
<path d="M-523.164 482.396L58.1482 643.489C76.705 648.632 91.1087 663.284 95.9336 681.925L239.55 1236.82M-489.259 447.925L92.0531 609.018C110.61 614.16 125.014 628.812 129.839 647.454L273.455 1202.34M-454.315 417.467L126.997 578.56C145.554 583.703 159.957 598.355 164.782 616.997L308.399 1171.89M-420.41 382.996L160.902 544.089C179.459 549.231 193.862 563.883 198.687 582.525L342.304 1137.42M-386.954 355.065L194.358 516.158C212.915 521.3 227.319 535.952 232.144 554.594L375.76 1109.48M-353.049 320.593L228.263 481.686C246.82 486.829 261.224 501.481 266.049 520.123L409.665 1075.01M-318.105 290.136L263.207 451.229C281.764 456.371 296.167 471.023 300.992 489.665L444.609 1044.56M-284.2 255.664L297.112 416.758C315.669 421.9 330.072 436.552 334.897 455.194L478.514 1010.08M-248.737 227.214L332.575 388.307C351.132 393.449 365.536 408.101 370.36 426.743L513.977 981.634M-214.832 192.742L366.48 353.836C385.037 358.978 399.44 373.63 404.265 392.272L547.882 947.162M-179.888 162.285L401.424 323.378C419.98 328.52 434.384 343.172 439.209 361.814L582.826 916.705M-145.983 127.813L435.329 288.907C453.885 294.049 468.289 308.701 473.114 327.343L616.731 882.233M-112.527 99.8821L468.785 260.975C487.342 266.118 501.745 280.77 506.57 299.412L650.187 854.302M-78.6221 65.4108L502.69 226.504C521.247 231.647 535.65 246.298 540.475 264.94L684.092 819.831M-43.6783 34.9532L537.634 196.046C556.19 201.189 570.594 215.841 575.419 234.483L719.036 789.373M-9.77339 0.481852L571.539 161.575C590.095 166.718 604.499 181.369 609.324 200.011L752.941 754.902" stroke="url(#paint0_linear_2_348)"/>
<defs>
<linearGradient id="paint0_linear_2_348" x1="-410.497" y1="1255.32" x2="836.556" y2="-192.095" gradientUnits="userSpaceOnUse">
<stop stop-color="#DADADA"/>
<stop offset="1" stop-color="#F6F7FB"/>
</linearGradient>
</defs>
</svg>
