<svg width="648" height="358" viewBox="0 0 648 358" fill="none" xmlns="http://www.w3.org/2000/svg">
<path d="M1.93734 354.142C3.00731 354.142 3.87469 355.006 3.87469 356.071C3.87469 357.136 3.00731 358 1.93734 358C0.867378 358 -3.77487e-08 357.136 -8.4314e-08 356.071C-1.30879e-07 355.006 0.867378 354.142 1.93734 354.142Z" fill="url(#paint0_linear_2_347)"/>
<path d="M104.617 354.142C105.687 354.142 106.554 355.006 106.554 356.071C106.554 357.136 105.687 358 104.617 358C103.547 358 102.679 357.136 102.679 356.071C102.679 355.006 103.547 354.142 104.617 354.142Z" fill="url(#paint1_linear_2_347)"/>
<path d="M53.4707 354.142C54.5406 354.142 55.408 355.006 55.408 356.071C55.408 357.136 54.5406 358 53.4707 358C52.4007 358 51.5333 357.136 51.5333 356.071C51.5333 355.006 52.4007 354.142 53.4707 354.142Z" fill="url(#paint2_linear_2_347)"/>
<path d="M155.762 354.142C156.832 354.142 157.7 355.006 157.7 356.071C157.7 357.136 156.832 358 155.762 358C154.692 358 153.825 357.136 153.825 356.071C153.825 355.006 154.692 354.142 155.762 354.142Z" fill="url(#paint3_linear_2_347)"/>
<path d="M206.908 354.142C207.978 354.142 208.846 355.006 208.846 356.071C208.846 357.136 207.978 358 206.908 358C205.838 358 204.971 357.136 204.971 356.071C204.971 355.006 205.838 354.142 206.908 354.142Z" fill="url(#paint4_linear_2_347)"/>
<path d="M309.587 354.142C310.657 354.142 311.525 355.006 311.525 356.071C311.525 357.136 310.657 358 309.587 358C308.517 358 307.65 357.136 307.65 356.071C307.65 355.006 308.517 354.142 309.587 354.142Z" fill="url(#paint5_linear_2_347)"/>
<path d="M258.442 354.142C259.512 354.142 260.379 355.006 260.379 356.071C260.379 357.136 259.512 358 258.442 358C257.372 358 256.504 357.136 256.504 356.071C256.504 355.006 257.372 354.142 258.442 354.142Z" fill="url(#paint6_linear_2_347)"/>
<path d="M360.733 354.142C361.803 354.142 362.671 355.006 362.671 356.071C362.671 357.136 361.803 358 360.733 358C359.663 358 358.796 357.136 358.796 356.071C358.796 355.006 359.663 354.142 360.733 354.142Z" fill="url(#paint7_linear_2_347)"/>
<path d="M412.267 354.142C413.337 354.142 414.204 355.006 414.204 356.071C414.204 357.136 413.337 358 412.267 358C411.197 358 410.329 357.136 410.329 356.071C410.329 355.006 411.197 354.142 412.267 354.142Z" fill="url(#paint8_linear_2_347)"/>
<path d="M514.946 354.142C516.016 354.142 516.883 355.006 516.883 356.071C516.883 357.136 516.016 358 514.946 358C513.876 358 513.008 357.136 513.008 356.071C513.008 355.006 513.876 354.142 514.946 354.142Z" fill="url(#paint9_linear_2_347)"/>
<path d="M463.8 354.142C464.87 354.142 465.737 355.006 465.737 356.071C465.737 357.136 464.87 358 463.8 358C462.73 358 461.863 357.136 461.863 356.071C461.863 355.006 462.73 354.142 463.8 354.142Z" fill="url(#paint10_linear_2_347)"/>
<path d="M566.092 354.142C567.162 354.142 568.029 355.006 568.029 356.071C568.029 357.136 567.162 358 566.092 358C565.022 358 564.154 357.136 564.154 356.071C564.154 355.006 565.022 354.142 566.092 354.142Z" fill="url(#paint11_linear_2_347)"/>
<path d="M617.238 354.142C618.308 354.142 619.175 355.006 619.175 356.071C619.175 357.136 618.308 358 617.238 358C616.168 358 615.3 357.136 615.3 356.071C615.3 355.006 616.168 354.142 617.238 354.142Z" fill="url(#paint12_linear_2_347)"/>
<path d="M719.917 354.142C720.987 354.142 721.854 355.006 721.854 356.071C721.854 357.136 720.987 358 719.917 358C718.847 358 717.979 357.136 717.979 356.071C717.979 355.006 718.847 354.142 719.917 354.142Z" fill="url(#paint13_linear_2_347)"/>
<path d="M668.771 354.142C669.841 354.142 670.708 355.006 670.708 356.071C670.708 357.136 669.841 358 668.771 358C667.701 358 666.834 357.136 666.834 356.071C666.834 355.006 667.701 354.142 668.771 354.142Z" fill="url(#paint14_linear_2_347)"/>
<path d="M771.063 354.142C772.133 354.142 773 355.006 773 356.071C773 357.136 772.133 358 771.063 358C769.993 358 769.125 357.136 769.125 356.071C769.125 355.006 769.993 354.142 771.063 354.142Z" fill="url(#paint15_linear_2_347)"/>
<path d="M1.93734 303.22C3.00731 303.22 3.87468 304.083 3.87468 305.149C3.87468 306.214 3.00731 307.078 1.93734 307.078C0.867376 307.078 -2.26364e-06 306.214 -2.3102e-06 305.149C-2.35677e-06 304.083 0.867376 303.22 1.93734 303.22Z" fill="url(#paint16_linear_2_347)"/>
<path d="M104.617 303.22C105.687 303.22 106.554 304.083 106.554 305.149C106.554 306.214 105.687 307.078 104.617 307.078C103.547 307.078 102.679 306.214 102.679 305.149C102.679 304.083 103.547 303.22 104.617 303.22Z" fill="url(#paint17_linear_2_347)"/>
<path d="M53.4707 303.22C54.5406 303.22 55.408 304.083 55.408 305.149C55.408 306.214 54.5406 307.078 53.4707 307.078C52.4007 307.078 51.5333 306.214 51.5333 305.149C51.5333 304.083 52.4007 303.22 53.4707 303.22Z" fill="url(#paint18_linear_2_347)"/>
<path d="M155.762 303.22C156.832 303.22 157.7 304.083 157.7 305.149C157.7 306.214 156.832 307.078 155.762 307.078C154.692 307.078 153.825 306.214 153.825 305.149C153.825 304.083 154.692 303.22 155.762 303.22Z" fill="url(#paint19_linear_2_347)"/>
<path d="M206.908 303.22C207.978 303.22 208.846 304.083 208.846 305.149C208.846 306.214 207.978 307.078 206.908 307.078C205.838 307.078 204.971 306.214 204.971 305.149C204.971 304.083 205.838 303.22 206.908 303.22Z" fill="url(#paint20_linear_2_347)"/>
<path d="M309.587 303.22C310.657 303.22 311.525 304.083 311.525 305.149C311.525 306.214 310.657 307.078 309.587 307.078C308.517 307.078 307.65 306.214 307.65 305.149C307.65 304.083 308.517 303.22 309.587 303.22Z" fill="url(#paint21_linear_2_347)"/>
<path d="M258.442 303.22C259.512 303.22 260.379 304.083 260.379 305.149C260.379 306.214 259.512 307.078 258.442 307.078C257.372 307.078 256.504 306.214 256.504 305.149C256.504 304.083 257.372 303.22 258.442 303.22Z" fill="url(#paint22_linear_2_347)"/>
<path d="M360.733 303.22C361.803 303.22 362.671 304.083 362.671 305.149C362.671 306.214 361.803 307.078 360.733 307.078C359.663 307.078 358.796 306.214 358.796 305.149C358.796 304.083 359.663 303.22 360.733 303.22Z" fill="url(#paint23_linear_2_347)"/>
<path d="M412.267 303.22C413.337 303.22 414.204 304.083 414.204 305.149C414.204 306.214 413.337 307.078 412.267 307.078C411.197 307.078 410.329 306.214 410.329 305.149C410.329 304.083 411.197 303.22 412.267 303.22Z" fill="url(#paint24_linear_2_347)"/>
<path d="M514.946 303.22C516.016 303.22 516.883 304.083 516.883 305.149C516.883 306.214 516.016 307.078 514.946 307.078C513.876 307.078 513.008 306.214 513.008 305.149C513.008 304.083 513.876 303.22 514.946 303.22Z" fill="url(#paint25_linear_2_347)"/>
<path d="M463.8 303.22C464.87 303.22 465.737 304.083 465.737 305.149C465.737 306.214 464.87 307.078 463.8 307.078C462.73 307.078 461.863 306.214 461.863 305.149C461.863 304.083 462.73 303.22 463.8 303.22Z" fill="url(#paint26_linear_2_347)"/>
<path d="M566.092 303.22C567.162 303.22 568.029 304.083 568.029 305.149C568.029 306.214 567.162 307.078 566.092 307.078C565.022 307.078 564.154 306.214 564.154 305.149C564.154 304.083 565.022 303.22 566.092 303.22Z" fill="url(#paint27_linear_2_347)"/>
<path d="M617.238 303.22C618.308 303.22 619.175 304.083 619.175 305.149C619.175 306.214 618.308 307.078 617.238 307.078C616.168 307.078 615.3 306.214 615.3 305.149C615.3 304.083 616.168 303.22 617.238 303.22Z" fill="url(#paint28_linear_2_347)"/>
<path d="M719.917 303.22C720.987 303.22 721.854 304.083 721.854 305.149C721.854 306.214 720.987 307.078 719.917 307.078C718.847 307.078 717.979 306.214 717.979 305.149C717.979 304.083 718.847 303.22 719.917 303.22Z" fill="url(#paint29_linear_2_347)"/>
<path d="M668.771 303.22C669.841 303.22 670.708 304.083 670.708 305.149C670.708 306.214 669.841 307.078 668.771 307.078C667.701 307.078 666.834 306.214 666.834 305.149C666.834 304.083 667.701 303.22 668.771 303.22Z" fill="url(#paint30_linear_2_347)"/>
<path d="M771.063 303.22C772.133 303.22 773 304.083 773 305.149C773 306.214 772.133 307.078 771.063 307.078C769.993 307.078 769.125 306.214 769.125 305.149C769.125 304.083 769.993 303.22 771.063 303.22Z" fill="url(#paint31_linear_2_347)"/>
<path d="M1.93734 252.297C3.0073 252.297 3.87468 253.161 3.87468 254.226C3.87468 255.292 3.0073 256.155 1.93734 256.155C0.867374 256.155 -4.48953e-06 255.292 -4.53609e-06 254.226C-4.58266e-06 253.161 0.867373 252.297 1.93734 252.297Z" fill="url(#paint32_linear_2_347)"/>
<path d="M104.617 252.297C105.687 252.297 106.554 253.161 106.554 254.226C106.554 255.292 105.687 256.155 104.617 256.155C103.547 256.155 102.679 255.292 102.679 254.226C102.679 253.161 103.547 252.297 104.617 252.297Z" fill="url(#paint33_linear_2_347)"/>
<path d="M53.4707 252.297C54.5406 252.297 55.408 253.161 55.408 254.226C55.408 255.292 54.5406 256.155 53.4707 256.155C52.4007 256.155 51.5333 255.292 51.5333 254.226C51.5333 253.161 52.4007 252.297 53.4707 252.297Z" fill="url(#paint34_linear_2_347)"/>
<path d="M155.762 252.297C156.832 252.297 157.7 253.161 157.7 254.226C157.7 255.292 156.832 256.155 155.762 256.155C154.692 256.155 153.825 255.292 153.825 254.226C153.825 253.161 154.692 252.297 155.762 252.297Z" fill="url(#paint35_linear_2_347)"/>
<path d="M206.908 252.297C207.978 252.297 208.846 253.161 208.846 254.226C208.846 255.292 207.978 256.155 206.908 256.155C205.838 256.155 204.971 255.292 204.971 254.226C204.971 253.161 205.838 252.297 206.908 252.297Z" fill="url(#paint36_linear_2_347)"/>
<path d="M309.587 252.297C310.657 252.297 311.525 253.161 311.525 254.226C311.525 255.292 310.657 256.155 309.587 256.155C308.517 256.155 307.65 255.292 307.65 254.226C307.65 253.161 308.517 252.297 309.587 252.297Z" fill="url(#paint37_linear_2_347)"/>
<path d="M258.442 252.297C259.512 252.297 260.379 253.161 260.379 254.226C260.379 255.292 259.512 256.155 258.442 256.155C257.372 256.155 256.504 255.292 256.504 254.226C256.504 253.161 257.372 252.297 258.442 252.297Z" fill="url(#paint38_linear_2_347)"/>
<path d="M360.733 252.297C361.803 252.297 362.671 253.161 362.671 254.226C362.671 255.292 361.803 256.155 360.733 256.155C359.663 256.155 358.796 255.292 358.796 254.226C358.796 253.161 359.663 252.297 360.733 252.297Z" fill="url(#paint39_linear_2_347)"/>
<path d="M412.267 252.297C413.337 252.297 414.204 253.161 414.204 254.226C414.204 255.292 413.337 256.155 412.267 256.155C411.197 256.155 410.329 255.292 410.329 254.226C410.329 253.161 411.197 252.297 412.267 252.297Z" fill="url(#paint40_linear_2_347)"/>
<path d="M514.946 252.297C516.016 252.297 516.883 253.161 516.883 254.226C516.883 255.292 516.016 256.155 514.946 256.155C513.876 256.155 513.008 255.292 513.008 254.226C513.008 253.161 513.876 252.297 514.946 252.297Z" fill="url(#paint41_linear_2_347)"/>
<path d="M463.8 252.297C464.87 252.297 465.737 253.161 465.737 254.226C465.737 255.292 464.87 256.155 463.8 256.155C462.73 256.155 461.863 255.292 461.863 254.226C461.863 253.161 462.73 252.297 463.8 252.297Z" fill="url(#paint42_linear_2_347)"/>
<path d="M566.092 252.297C567.162 252.297 568.029 253.161 568.029 254.226C568.029 255.292 567.162 256.155 566.092 256.155C565.022 256.155 564.154 255.292 564.154 254.226C564.154 253.161 565.022 252.297 566.092 252.297Z" fill="url(#paint43_linear_2_347)"/>
<path d="M617.238 252.297C618.308 252.297 619.175 253.161 619.175 254.226C619.175 255.292 618.308 256.155 617.238 256.155C616.168 256.155 615.3 255.292 615.3 254.226C615.3 253.161 616.168 252.297 617.238 252.297Z" fill="url(#paint44_linear_2_347)"/>
<path d="M719.917 252.297C720.987 252.297 721.854 253.161 721.854 254.226C721.854 255.292 720.987 256.155 719.917 256.155C718.847 256.155 717.979 255.292 717.979 254.226C717.979 253.161 718.847 252.297 719.917 252.297Z" fill="url(#paint45_linear_2_347)"/>
<path d="M668.771 252.297C669.841 252.297 670.708 253.161 670.708 254.226C670.708 255.292 669.841 256.155 668.771 256.155C667.701 256.155 666.834 255.292 666.834 254.226C666.834 253.161 667.701 252.297 668.771 252.297Z" fill="url(#paint46_linear_2_347)"/>
<path d="M771.063 252.297C772.133 252.297 773 253.161 773 254.226C773 255.292 772.133 256.155 771.063 256.155C769.993 256.155 769.125 255.292 769.125 254.226C769.125 253.161 769.993 252.297 771.063 252.297Z" fill="url(#paint47_linear_2_347)"/>
<path d="M1.93734 201.375C3.0073 201.375 3.87468 202.239 3.87468 203.304C3.87468 204.369 3.0073 205.233 1.93734 205.233C0.867371 205.233 -6.71542e-06 204.369 -6.76198e-06 203.304C-6.80855e-06 202.239 0.867371 201.375 1.93734 201.375Z" fill="url(#paint48_linear_2_347)"/>
<path d="M104.617 201.375C105.687 201.375 106.554 202.239 106.554 203.304C106.554 204.369 105.687 205.233 104.617 205.233C103.547 205.233 102.679 204.369 102.679 203.304C102.679 202.239 103.547 201.375 104.617 201.375Z" fill="url(#paint49_linear_2_347)"/>
<path d="M53.4707 201.375C54.5406 201.375 55.408 202.239 55.408 203.304C55.408 204.369 54.5406 205.233 53.4707 205.233C52.4007 205.233 51.5333 204.369 51.5333 203.304C51.5333 202.239 52.4007 201.375 53.4707 201.375Z" fill="url(#paint50_linear_2_347)"/>
<path d="M155.762 201.375C156.832 201.375 157.7 202.239 157.7 203.304C157.7 204.369 156.832 205.233 155.762 205.233C154.692 205.233 153.825 204.369 153.825 203.304C153.825 202.239 154.692 201.375 155.762 201.375Z" fill="url(#paint51_linear_2_347)"/>
<path d="M206.908 201.375C207.978 201.375 208.846 202.239 208.846 203.304C208.846 204.369 207.978 205.233 206.908 205.233C205.838 205.233 204.971 204.369 204.971 203.304C204.971 202.239 205.838 201.375 206.908 201.375Z" fill="url(#paint52_linear_2_347)"/>
<path d="M309.587 201.375C310.657 201.375 311.525 202.239 311.525 203.304C311.525 204.369 310.657 205.233 309.587 205.233C308.517 205.233 307.65 204.369 307.65 203.304C307.65 202.239 308.517 201.375 309.587 201.375Z" fill="url(#paint53_linear_2_347)"/>
<path d="M258.442 201.375C259.512 201.375 260.379 202.239 260.379 203.304C260.379 204.369 259.512 205.233 258.442 205.233C257.372 205.233 256.504 204.369 256.504 203.304C256.504 202.239 257.372 201.375 258.442 201.375Z" fill="url(#paint54_linear_2_347)"/>
<path d="M360.733 201.375C361.803 201.375 362.671 202.239 362.671 203.304C362.671 204.369 361.803 205.233 360.733 205.233C359.663 205.233 358.796 204.369 358.796 203.304C358.796 202.239 359.663 201.375 360.733 201.375Z" fill="url(#paint55_linear_2_347)"/>
<path d="M412.267 201.375C413.337 201.375 414.204 202.239 414.204 203.304C414.204 204.369 413.337 205.233 412.267 205.233C411.197 205.233 410.329 204.369 410.329 203.304C410.329 202.239 411.197 201.375 412.267 201.375Z" fill="url(#paint56_linear_2_347)"/>
<path d="M514.946 201.375C516.016 201.375 516.883 202.239 516.883 203.304C516.883 204.369 516.016 205.233 514.946 205.233C513.876 205.233 513.008 204.369 513.008 203.304C513.008 202.239 513.876 201.375 514.946 201.375Z" fill="url(#paint57_linear_2_347)"/>
<path d="M463.8 201.375C464.87 201.375 465.737 202.239 465.737 203.304C465.737 204.369 464.87 205.233 463.8 205.233C462.73 205.233 461.863 204.369 461.863 203.304C461.863 202.239 462.73 201.375 463.8 201.375Z" fill="url(#paint58_linear_2_347)"/>
<path d="M566.092 201.375C567.162 201.375 568.029 202.239 568.029 203.304C568.029 204.369 567.162 205.233 566.092 205.233C565.022 205.233 564.154 204.369 564.154 203.304C564.154 202.239 565.022 201.375 566.092 201.375Z" fill="url(#paint59_linear_2_347)"/>
<path d="M617.238 201.375C618.308 201.375 619.175 202.239 619.175 203.304C619.175 204.369 618.308 205.233 617.238 205.233C616.168 205.233 615.3 204.369 615.3 203.304C615.3 202.239 616.168 201.375 617.238 201.375Z" fill="url(#paint60_linear_2_347)"/>
<path d="M719.917 201.375C720.987 201.375 721.854 202.239 721.854 203.304C721.854 204.369 720.987 205.233 719.917 205.233C718.847 205.233 717.979 204.369 717.979 203.304C717.979 202.239 718.847 201.375 719.917 201.375Z" fill="url(#paint61_linear_2_347)"/>
<path d="M668.771 201.375C669.841 201.375 670.708 202.239 670.708 203.304C670.708 204.369 669.841 205.233 668.771 205.233C667.701 205.233 666.834 204.369 666.834 203.304C666.834 202.239 667.701 201.375 668.771 201.375Z" fill="url(#paint62_linear_2_347)"/>
<path d="M771.063 201.375C772.133 201.375 773 202.239 773 203.304C773 204.369 772.133 205.233 771.063 205.233C769.993 205.233 769.125 204.369 769.125 203.304C769.125 202.239 769.993 201.375 771.063 201.375Z" fill="url(#paint63_linear_2_347)"/>
<path d="M1.93733 152.767C3.0073 152.767 3.87468 153.631 3.87468 154.696C3.87468 155.761 3.0073 156.625 1.93733 156.625C0.867369 156.625 -8.84013e-06 155.761 -8.88669e-06 154.696C-8.93326e-06 153.631 0.867369 152.767 1.93733 152.767Z" fill="url(#paint64_linear_2_347)"/>
<path d="M104.617 152.767C105.686 152.767 106.554 153.631 106.554 154.696C106.554 155.761 105.686 156.625 104.617 156.625C103.547 156.625 102.679 155.761 102.679 154.696C102.679 153.631 103.547 152.767 104.617 152.767Z" fill="url(#paint65_linear_2_347)"/>
<path d="M53.4707 152.767C54.5406 152.767 55.408 153.631 55.408 154.696C55.408 155.761 54.5406 156.625 53.4707 156.625C52.4007 156.625 51.5333 155.761 51.5333 154.696C51.5333 153.631 52.4007 152.767 53.4707 152.767Z" fill="url(#paint66_linear_2_347)"/>
<path d="M155.762 152.767C156.832 152.767 157.7 153.631 157.7 154.696C157.7 155.761 156.832 156.625 155.762 156.625C154.692 156.625 153.825 155.761 153.825 154.696C153.825 153.631 154.692 152.767 155.762 152.767Z" fill="url(#paint67_linear_2_347)"/>
<path d="M206.908 152.767C207.978 152.767 208.846 153.631 208.846 154.696C208.846 155.761 207.978 156.625 206.908 156.625C205.838 156.625 204.971 155.761 204.971 154.696C204.971 153.631 205.838 152.767 206.908 152.767Z" fill="url(#paint68_linear_2_347)"/>
<path d="M309.587 152.767C310.657 152.767 311.525 153.631 311.525 154.696C311.525 155.761 310.657 156.625 309.587 156.625C308.517 156.625 307.65 155.761 307.65 154.696C307.65 153.631 308.517 152.767 309.587 152.767Z" fill="url(#paint69_linear_2_347)"/>
<path d="M258.442 152.767C259.512 152.767 260.379 153.631 260.379 154.696C260.379 155.761 259.512 156.625 258.442 156.625C257.372 156.625 256.504 155.761 256.504 154.696C256.504 153.631 257.372 152.767 258.442 152.767Z" fill="url(#paint70_linear_2_347)"/>
<path d="M360.733 152.767C361.803 152.767 362.671 153.631 362.671 154.696C362.671 155.761 361.803 156.625 360.733 156.625C359.663 156.625 358.796 155.761 358.796 154.696C358.796 153.631 359.663 152.767 360.733 152.767Z" fill="url(#paint71_linear_2_347)"/>
<path d="M412.267 152.767C413.337 152.767 414.204 153.631 414.204 154.696C414.204 155.761 413.337 156.625 412.267 156.625C411.197 156.625 410.329 155.761 410.329 154.696C410.329 153.631 411.197 152.767 412.267 152.767Z" fill="url(#paint72_linear_2_347)"/>
<path d="M514.946 152.767C516.016 152.767 516.883 153.631 516.883 154.696C516.883 155.761 516.016 156.625 514.946 156.625C513.876 156.625 513.008 155.761 513.008 154.696C513.008 153.631 513.876 152.767 514.946 152.767Z" fill="url(#paint73_linear_2_347)"/>
<path d="M463.8 152.767C464.87 152.767 465.737 153.631 465.737 154.696C465.737 155.761 464.87 156.625 463.8 156.625C462.73 156.625 461.863 155.761 461.863 154.696C461.863 153.631 462.73 152.767 463.8 152.767Z" fill="url(#paint74_linear_2_347)"/>
<path d="M566.092 152.767C567.162 152.767 568.029 153.631 568.029 154.696C568.029 155.761 567.162 156.625 566.092 156.625C565.022 156.625 564.154 155.761 564.154 154.696C564.154 153.631 565.022 152.767 566.092 152.767Z" fill="url(#paint75_linear_2_347)"/>
<path d="M617.238 152.767C618.308 152.767 619.175 153.631 619.175 154.696C619.175 155.761 618.308 156.625 617.238 156.625C616.168 156.625 615.3 155.761 615.3 154.696C615.3 153.631 616.168 152.767 617.238 152.767Z" fill="url(#paint76_linear_2_347)"/>
<path d="M719.917 152.767C720.987 152.767 721.854 153.631 721.854 154.696C721.854 155.761 720.987 156.625 719.917 156.625C718.847 156.625 717.979 155.761 717.979 154.696C717.979 153.631 718.847 152.767 719.917 152.767Z" fill="url(#paint77_linear_2_347)"/>
<path d="M668.771 152.767C669.841 152.767 670.708 153.631 670.708 154.696C670.708 155.761 669.841 156.625 668.771 156.625C667.701 156.625 666.834 155.761 666.834 154.696C666.834 153.631 667.701 152.767 668.771 152.767Z" fill="url(#paint78_linear_2_347)"/>
<path d="M771.063 152.767C772.133 152.767 773 153.631 773 154.696C773 155.761 772.133 156.625 771.063 156.625C769.993 156.625 769.125 155.761 769.125 154.696C769.125 153.631 769.993 152.767 771.063 152.767Z" fill="url(#paint79_linear_2_347)"/>
<path d="M1.93733 101.845C3.0073 101.845 3.87468 102.708 3.87468 103.774C3.87468 104.839 3.0073 105.703 1.93733 105.703C0.867367 105.703 -1.1066e-05 104.839 -1.11126e-05 103.774C-1.11591e-05 102.708 0.867367 101.845 1.93733 101.845Z" fill="url(#paint80_linear_2_347)"/>
<path d="M104.617 101.845C105.686 101.845 106.554 102.708 106.554 103.774C106.554 104.839 105.686 105.703 104.617 105.703C103.547 105.703 102.679 104.839 102.679 103.774C102.679 102.708 103.547 101.845 104.617 101.845Z" fill="url(#paint81_linear_2_347)"/>
<path d="M53.4707 101.845C54.5406 101.845 55.408 102.708 55.408 103.774C55.408 104.839 54.5406 105.703 53.4707 105.703C52.4007 105.703 51.5333 104.839 51.5333 103.774C51.5333 102.708 52.4007 101.845 53.4707 101.845Z" fill="url(#paint82_linear_2_347)"/>
<path d="M155.762 101.845C156.832 101.845 157.7 102.708 157.7 103.774C157.7 104.839 156.832 105.703 155.762 105.703C154.692 105.703 153.825 104.839 153.825 103.774C153.825 102.708 154.692 101.845 155.762 101.845Z" fill="url(#paint83_linear_2_347)"/>
<path d="M206.908 101.845C207.978 101.845 208.846 102.708 208.846 103.774C208.846 104.839 207.978 105.703 206.908 105.703C205.838 105.703 204.971 104.839 204.971 103.774C204.971 102.708 205.838 101.845 206.908 101.845Z" fill="url(#paint84_linear_2_347)"/>
<path d="M309.587 101.845C310.657 101.845 311.525 102.708 311.525 103.774C311.525 104.839 310.657 105.703 309.587 105.703C308.517 105.703 307.65 104.839 307.65 103.774C307.65 102.708 308.517 101.845 309.587 101.845Z" fill="url(#paint85_linear_2_347)"/>
<path d="M258.442 101.845C259.512 101.845 260.379 102.708 260.379 103.774C260.379 104.839 259.512 105.703 258.442 105.703C257.372 105.703 256.504 104.839 256.504 103.774C256.504 102.708 257.372 101.845 258.442 101.845Z" fill="url(#paint86_linear_2_347)"/>
<path d="M360.733 101.845C361.803 101.845 362.671 102.708 362.671 103.774C362.671 104.839 361.803 105.703 360.733 105.703C359.663 105.703 358.796 104.839 358.796 103.774C358.796 102.708 359.663 101.845 360.733 101.845Z" fill="url(#paint87_linear_2_347)"/>
<path d="M412.267 101.845C413.337 101.845 414.204 102.708 414.204 103.774C414.204 104.839 413.337 105.703 412.267 105.703C411.197 105.703 410.329 104.839 410.329 103.774C410.329 102.708 411.197 101.845 412.267 101.845Z" fill="url(#paint88_linear_2_347)"/>
<path d="M514.946 101.845C516.016 101.845 516.883 102.708 516.883 103.774C516.883 104.839 516.016 105.703 514.946 105.703C513.876 105.703 513.008 104.839 513.008 103.774C513.008 102.708 513.876 101.845 514.946 101.845Z" fill="url(#paint89_linear_2_347)"/>
<path d="M463.8 101.845C464.87 101.845 465.737 102.708 465.737 103.774C465.737 104.839 464.87 105.703 463.8 105.703C462.73 105.703 461.863 104.839 461.863 103.774C461.863 102.708 462.73 101.845 463.8 101.845Z" fill="url(#paint90_linear_2_347)"/>
<path d="M566.092 101.845C567.162 101.845 568.029 102.708 568.029 103.774C568.029 104.839 567.162 105.703 566.092 105.703C565.022 105.703 564.154 104.839 564.154 103.774C564.154 102.708 565.022 101.845 566.092 101.845Z" fill="url(#paint91_linear_2_347)"/>
<path d="M617.238 101.845C618.308 101.845 619.175 102.708 619.175 103.774C619.175 104.839 618.308 105.703 617.238 105.703C616.168 105.703 615.3 104.839 615.3 103.774C615.3 102.708 616.168 101.845 617.238 101.845Z" fill="url(#paint92_linear_2_347)"/>
<path d="M719.917 101.845C720.987 101.845 721.854 102.708 721.854 103.774C721.854 104.839 720.987 105.703 719.917 105.703C718.847 105.703 717.979 104.839 717.979 103.774C717.979 102.708 718.847 101.845 719.917 101.845Z" fill="url(#paint93_linear_2_347)"/>
<path d="M668.771 101.845C669.841 101.845 670.708 102.708 670.708 103.774C670.708 104.839 669.841 105.703 668.771 105.703C667.701 105.703 666.834 104.839 666.834 103.774C666.834 102.708 667.701 101.845 668.771 101.845Z" fill="url(#paint94_linear_2_347)"/>
<path d="M771.063 101.845C772.133 101.845 773 102.708 773 103.774C773 104.839 772.133 105.703 771.063 105.703C769.993 105.703 769.125 104.839 769.125 103.774C769.125 102.708 769.993 101.845 771.063 101.845Z" fill="url(#paint95_linear_2_347)"/>
<path d="M1.93733 50.9224C3.0073 50.9224 3.87467 51.786 3.87467 52.8513C3.87467 53.9166 3.0073 54.7802 1.93733 54.7802C0.867365 54.7802 -1.32919e-05 53.9166 -1.33385e-05 52.8513C-1.3385e-05 51.786 0.867365 50.9224 1.93733 50.9224Z" fill="url(#paint96_linear_2_347)"/>
<path d="M104.617 50.9224C105.686 50.9224 106.554 51.786 106.554 52.8513C106.554 53.9166 105.686 54.7802 104.617 54.7802C103.547 54.7802 102.679 53.9166 102.679 52.8513C102.679 51.786 103.547 50.9224 104.617 50.9224Z" fill="url(#paint97_linear_2_347)"/>
<path d="M53.4707 50.9224C54.5406 50.9224 55.408 51.786 55.408 52.8513C55.408 53.9166 54.5406 54.7802 53.4707 54.7802C52.4007 54.7802 51.5333 53.9166 51.5333 52.8513C51.5333 51.786 52.4007 50.9224 53.4707 50.9224Z" fill="url(#paint98_linear_2_347)"/>
<path d="M155.762 50.9224C156.832 50.9224 157.7 51.786 157.7 52.8513C157.7 53.9166 156.832 54.7802 155.762 54.7802C154.692 54.7802 153.825 53.9166 153.825 52.8513C153.825 51.786 154.692 50.9224 155.762 50.9224Z" fill="url(#paint99_linear_2_347)"/>
<path d="M206.908 50.9224C207.978 50.9224 208.846 51.786 208.846 52.8513C208.846 53.9166 207.978 54.7802 206.908 54.7802C205.838 54.7802 204.971 53.9166 204.971 52.8513C204.971 51.786 205.838 50.9224 206.908 50.9224Z" fill="url(#paint100_linear_2_347)"/>
<path d="M309.587 50.9224C310.657 50.9224 311.525 51.786 311.525 52.8513C311.525 53.9166 310.657 54.7802 309.587 54.7802C308.517 54.7802 307.65 53.9166 307.65 52.8513C307.65 51.786 308.517 50.9224 309.587 50.9224Z" fill="url(#paint101_linear_2_347)"/>
<path d="M258.442 50.9224C259.512 50.9224 260.379 51.786 260.379 52.8513C260.379 53.9166 259.512 54.7802 258.442 54.7802C257.372 54.7802 256.504 53.9166 256.504 52.8513C256.504 51.786 257.372 50.9224 258.442 50.9224Z" fill="url(#paint102_linear_2_347)"/>
<path d="M360.733 50.9224C361.803 50.9224 362.671 51.786 362.671 52.8513C362.671 53.9166 361.803 54.7802 360.733 54.7802C359.663 54.7802 358.796 53.9166 358.796 52.8513C358.796 51.786 359.663 50.9224 360.733 50.9224Z" fill="url(#paint103_linear_2_347)"/>
<path d="M412.267 50.9224C413.337 50.9224 414.204 51.786 414.204 52.8513C414.204 53.9166 413.337 54.7802 412.267 54.7802C411.197 54.7802 410.329 53.9166 410.329 52.8513C410.329 51.786 411.197 50.9224 412.267 50.9224Z" fill="url(#paint104_linear_2_347)"/>
<path d="M514.946 50.9224C516.016 50.9224 516.883 51.786 516.883 52.8513C516.883 53.9166 516.016 54.7802 514.946 54.7802C513.876 54.7802 513.008 53.9166 513.008 52.8513C513.008 51.786 513.876 50.9224 514.946 50.9224Z" fill="url(#paint105_linear_2_347)"/>
<path d="M463.8 50.9224C464.87 50.9224 465.737 51.786 465.737 52.8513C465.737 53.9166 464.87 54.7802 463.8 54.7802C462.73 54.7802 461.863 53.9166 461.863 52.8513C461.863 51.786 462.73 50.9224 463.8 50.9224Z" fill="url(#paint106_linear_2_347)"/>
<path d="M566.092 50.9224C567.162 50.9224 568.029 51.786 568.029 52.8513C568.029 53.9166 567.162 54.7802 566.092 54.7802C565.022 54.7802 564.154 53.9166 564.154 52.8513C564.154 51.786 565.022 50.9224 566.092 50.9224Z" fill="url(#paint107_linear_2_347)"/>
<path d="M617.238 50.9224C618.308 50.9224 619.175 51.786 619.175 52.8513C619.175 53.9166 618.308 54.7802 617.238 54.7802C616.168 54.7802 615.3 53.9166 615.3 52.8513C615.3 51.786 616.168 50.9224 617.238 50.9224Z" fill="url(#paint108_linear_2_347)"/>
<path d="M719.917 50.9224C720.987 50.9224 721.854 51.786 721.854 52.8513C721.854 53.9166 720.987 54.7802 719.917 54.7802C718.847 54.7802 717.979 53.9166 717.979 52.8513C717.979 51.786 718.847 50.9224 719.917 50.9224Z" fill="url(#paint109_linear_2_347)"/>
<path d="M668.771 50.9224C669.841 50.9224 670.708 51.786 670.708 52.8513C670.708 53.9166 669.841 54.7802 668.771 54.7802C667.701 54.7802 666.834 53.9166 666.834 52.8513C666.834 51.786 667.701 50.9224 668.771 50.9224Z" fill="url(#paint110_linear_2_347)"/>
<path d="M771.063 50.9224C772.133 50.9224 773 51.786 773 52.8513C773 53.9166 772.133 54.7801 771.063 54.7801C769.993 54.7801 769.125 53.9166 769.125 52.8513C769.125 51.786 769.993 50.9224 771.063 50.9224Z" fill="url(#paint111_linear_2_347)"/>
<path d="M1.93733 3.04329e-05C3.00729 3.03861e-05 3.87467 0.863617 3.87467 1.92889C3.87467 2.9942 3.00729 3.85779 1.93733 3.85779C0.867363 3.85779 -1.55178e-05 2.9942 -1.55644e-05 1.92889C-1.56109e-05 0.863617 0.867362 3.04797e-05 1.93733 3.04329e-05Z" fill="url(#paint112_linear_2_347)"/>
<path d="M104.617 2.59446e-05C105.686 2.58979e-05 106.554 0.863612 106.554 1.92889C106.554 2.9942 105.686 3.85778 104.617 3.85778C103.547 3.85778 102.679 2.9942 102.679 1.92889C102.679 0.863612 103.547 2.59914e-05 104.617 2.59446e-05Z" fill="url(#paint113_linear_2_347)"/>
<path d="M53.4707 2.81803e-05C54.5406 2.81335e-05 55.408 0.863615 55.408 1.92889C55.408 2.9942 54.5406 3.85779 53.4707 3.85779C52.4007 3.85779 51.5333 2.9942 51.5333 1.92889C51.5333 0.863615 52.4007 2.82271e-05 53.4707 2.81803e-05Z" fill="url(#paint114_linear_2_347)"/>
<path d="M155.762 2.3709e-05C156.832 2.36622e-05 157.7 0.86361 157.7 1.92889C157.7 2.99419 156.832 3.85778 155.762 3.85778C154.692 3.85778 153.825 2.99419 153.825 1.92889C153.825 0.86361 154.692 2.37558e-05 155.762 2.3709e-05Z" fill="url(#paint115_linear_2_347)"/>
<path d="M206.908 2.14733e-05C207.978 2.14266e-05 208.846 0.863608 208.846 1.92888C208.846 2.99419 207.978 3.85778 206.908 3.85778C205.838 3.85778 204.971 2.99419 204.971 1.92889C204.971 0.863608 205.838 2.15201e-05 206.908 2.14733e-05Z" fill="url(#paint116_linear_2_347)"/>
<path d="M309.587 1.69851e-05C310.657 1.69383e-05 311.525 0.863603 311.525 1.92888C311.525 2.99419 310.657 3.85777 309.587 3.85777C308.517 3.85777 307.65 2.99419 307.65 1.92888C307.65 0.863603 308.517 1.70319e-05 309.587 1.69851e-05Z" fill="url(#paint117_linear_2_347)"/>
<path d="M258.442 1.92207e-05C259.512 1.9174e-05 260.379 0.863606 260.379 1.92888C260.379 2.99419 259.512 3.85778 258.442 3.85778C257.372 3.85778 256.504 2.99419 256.504 1.92888C256.504 0.863606 257.372 1.92675e-05 258.442 1.92207e-05Z" fill="url(#paint118_linear_2_347)"/>
<path d="M360.733 1.47494e-05C361.803 1.47027e-05 362.671 0.863601 362.671 1.92888C362.671 2.99419 361.803 3.85777 360.733 3.85777C359.663 3.85777 358.796 2.99419 358.796 1.92888C358.796 0.863601 359.663 1.47962e-05 360.733 1.47494e-05Z" fill="url(#paint119_linear_2_347)"/>
<path d="M412.267 1.24968e-05C413.337 1.24501e-05 414.204 0.863599 414.204 1.92888C414.204 2.99418 413.337 3.85777 412.267 3.85777C411.197 3.85777 410.329 2.99418 410.329 1.92888C410.329 0.863599 411.197 1.25436e-05 412.267 1.24968e-05Z" fill="url(#paint120_linear_2_347)"/>
<path d="M514.946 8.00858e-06C516.016 7.96181e-06 516.883 0.863594 516.883 1.92887C516.883 2.99418 516.016 3.85777 514.946 3.85777C513.876 3.85777 513.008 2.99418 513.008 1.92887C513.008 0.863595 513.876 8.05535e-06 514.946 8.00858e-06Z" fill="url(#paint121_linear_2_347)"/>
<path d="M463.8 1.02442e-05C464.87 1.01975e-05 465.737 0.863597 465.737 1.92887C465.737 2.99418 464.87 3.85777 463.8 3.85777C462.73 3.85777 461.863 2.99418 461.863 1.92887C461.863 0.863597 462.73 1.0291e-05 463.8 1.02442e-05Z" fill="url(#paint122_linear_2_347)"/>
<path d="M566.092 5.77292e-06C567.162 5.72615e-06 568.029 0.863592 568.029 1.92887C568.029 2.99418 567.162 3.85776 566.092 3.85776C565.022 3.85776 564.154 2.99418 564.154 1.92887C564.154 0.863592 565.022 5.81969e-06 566.092 5.77292e-06Z" fill="url(#paint123_linear_2_347)"/>
<path d="M617.238 3.53727e-06C618.308 3.4905e-06 619.175 0.86359 619.175 1.92887C619.175 2.99417 618.308 3.85776 617.238 3.85776C616.168 3.85776 615.3 2.99417 615.3 1.92887C615.3 0.86359 616.168 3.58404e-06 617.238 3.53727e-06Z" fill="url(#paint124_linear_2_347)"/>
<path d="M719.917 -9.50985e-07C720.987 -9.97754e-07 721.854 0.863585 721.854 1.92886C721.854 2.99417 720.987 3.85776 719.917 3.85776C718.847 3.85776 717.979 2.99417 717.979 1.92886C717.979 0.863586 718.847 -9.04214e-07 719.917 -9.50985e-07Z" fill="url(#paint125_linear_2_347)"/>
<path d="M668.771 1.28467e-06C669.841 1.2379e-06 670.708 0.863588 670.708 1.92886C670.708 2.99417 669.841 3.85776 668.771 3.85776C667.701 3.85776 666.834 2.99417 666.834 1.92886C666.834 0.863588 667.701 1.33144e-06 668.771 1.28467e-06Z" fill="url(#paint126_linear_2_347)"/>
<path d="M771.063 -3.18664e-06C772.133 -3.23341e-06 773 0.863583 773 1.92886C773 2.99417 772.133 3.85775 771.063 3.85775C769.993 3.85775 769.125 2.99417 769.125 1.92886C769.125 0.863583 769.993 -3.13987e-06 771.063 -3.18664e-06Z" fill="url(#paint127_linear_2_347)"/>
<defs>
<linearGradient id="paint0_linear_2_347" x1="980.5" y1="-343" x2="189.847" y2="382.468" gradientUnits="userSpaceOnUse">
<stop stop-color="#DEDEDE"/>
<stop offset="1" stop-color="#F6F7FB"/>
</linearGradient>
<linearGradient id="paint1_linear_2_347" x1="980.5" y1="-343" x2="189.847" y2="382.468" gradientUnits="userSpaceOnUse">
<stop stop-color="#DEDEDE"/>
<stop offset="1" stop-color="#F6F7FB"/>
</linearGradient>
<linearGradient id="paint2_linear_2_347" x1="980.5" y1="-343" x2="189.847" y2="382.468" gradientUnits="userSpaceOnUse">
<stop stop-color="#DEDEDE"/>
<stop offset="1" stop-color="#F6F7FB"/>
</linearGradient>
<linearGradient id="paint3_linear_2_347" x1="980.5" y1="-343" x2="189.847" y2="382.468" gradientUnits="userSpaceOnUse">
<stop stop-color="#DEDEDE"/>
<stop offset="1" stop-color="#F6F7FB"/>
</linearGradient>
<linearGradient id="paint4_linear_2_347" x1="980.5" y1="-343" x2="189.847" y2="382.468" gradientUnits="userSpaceOnUse">
<stop stop-color="#DEDEDE"/>
<stop offset="1" stop-color="#F6F7FB"/>
</linearGradient>
<linearGradient id="paint5_linear_2_347" x1="980.5" y1="-343" x2="189.847" y2="382.468" gradientUnits="userSpaceOnUse">
<stop stop-color="#DEDEDE"/>
<stop offset="1" stop-color="#F6F7FB"/>
</linearGradient>
<linearGradient id="paint6_linear_2_347" x1="980.5" y1="-343" x2="189.847" y2="382.468" gradientUnits="userSpaceOnUse">
<stop stop-color="#DEDEDE"/>
<stop offset="1" stop-color="#F6F7FB"/>
</linearGradient>
<linearGradient id="paint7_linear_2_347" x1="980.5" y1="-343" x2="189.847" y2="382.468" gradientUnits="userSpaceOnUse">
<stop stop-color="#DEDEDE"/>
<stop offset="1" stop-color="#F6F7FB"/>
</linearGradient>
<linearGradient id="paint8_linear_2_347" x1="980.5" y1="-343" x2="189.847" y2="382.468" gradientUnits="userSpaceOnUse">
<stop stop-color="#DEDEDE"/>
<stop offset="1" stop-color="#F6F7FB"/>
</linearGradient>
<linearGradient id="paint9_linear_2_347" x1="980.5" y1="-343" x2="189.847" y2="382.468" gradientUnits="userSpaceOnUse">
<stop stop-color="#DEDEDE"/>
<stop offset="1" stop-color="#F6F7FB"/>
</linearGradient>
<linearGradient id="paint10_linear_2_347" x1="980.5" y1="-343" x2="189.847" y2="382.468" gradientUnits="userSpaceOnUse">
<stop stop-color="#DEDEDE"/>
<stop offset="1" stop-color="#F6F7FB"/>
</linearGradient>
<linearGradient id="paint11_linear_2_347" x1="980.5" y1="-343" x2="189.847" y2="382.468" gradientUnits="userSpaceOnUse">
<stop stop-color="#DEDEDE"/>
<stop offset="1" stop-color="#F6F7FB"/>
</linearGradient>
<linearGradient id="paint12_linear_2_347" x1="980.5" y1="-343" x2="189.847" y2="382.468" gradientUnits="userSpaceOnUse">
<stop stop-color="#DEDEDE"/>
<stop offset="1" stop-color="#F6F7FB"/>
</linearGradient>
<linearGradient id="paint13_linear_2_347" x1="980.5" y1="-343" x2="189.847" y2="382.468" gradientUnits="userSpaceOnUse">
<stop stop-color="#DEDEDE"/>
<stop offset="1" stop-color="#F6F7FB"/>
</linearGradient>
<linearGradient id="paint14_linear_2_347" x1="980.5" y1="-343" x2="189.847" y2="382.468" gradientUnits="userSpaceOnUse">
<stop stop-color="#DEDEDE"/>
<stop offset="1" stop-color="#F6F7FB"/>
</linearGradient>
<linearGradient id="paint15_linear_2_347" x1="980.5" y1="-343" x2="189.847" y2="382.468" gradientUnits="userSpaceOnUse">
<stop stop-color="#DEDEDE"/>
<stop offset="1" stop-color="#F6F7FB"/>
</linearGradient>
<linearGradient id="paint16_linear_2_347" x1="980.5" y1="-343" x2="189.847" y2="382.468" gradientUnits="userSpaceOnUse">
<stop stop-color="#DEDEDE"/>
<stop offset="1" stop-color="#F6F7FB"/>
</linearGradient>
<linearGradient id="paint17_linear_2_347" x1="980.5" y1="-343" x2="189.847" y2="382.468" gradientUnits="userSpaceOnUse">
<stop stop-color="#DEDEDE"/>
<stop offset="1" stop-color="#F6F7FB"/>
</linearGradient>
<linearGradient id="paint18_linear_2_347" x1="980.5" y1="-343" x2="189.847" y2="382.468" gradientUnits="userSpaceOnUse">
<stop stop-color="#DEDEDE"/>
<stop offset="1" stop-color="#F6F7FB"/>
</linearGradient>
<linearGradient id="paint19_linear_2_347" x1="980.5" y1="-343" x2="189.847" y2="382.468" gradientUnits="userSpaceOnUse">
<stop stop-color="#DEDEDE"/>
<stop offset="1" stop-color="#F6F7FB"/>
</linearGradient>
<linearGradient id="paint20_linear_2_347" x1="980.5" y1="-343" x2="189.847" y2="382.468" gradientUnits="userSpaceOnUse">
<stop stop-color="#DEDEDE"/>
<stop offset="1" stop-color="#F6F7FB"/>
</linearGradient>
<linearGradient id="paint21_linear_2_347" x1="980.5" y1="-343" x2="189.847" y2="382.468" gradientUnits="userSpaceOnUse">
<stop stop-color="#DEDEDE"/>
<stop offset="1" stop-color="#F6F7FB"/>
</linearGradient>
<linearGradient id="paint22_linear_2_347" x1="980.5" y1="-343" x2="189.847" y2="382.468" gradientUnits="userSpaceOnUse">
<stop stop-color="#DEDEDE"/>
<stop offset="1" stop-color="#F6F7FB"/>
</linearGradient>
<linearGradient id="paint23_linear_2_347" x1="980.5" y1="-343" x2="189.847" y2="382.468" gradientUnits="userSpaceOnUse">
<stop stop-color="#DEDEDE"/>
<stop offset="1" stop-color="#F6F7FB"/>
</linearGradient>
<linearGradient id="paint24_linear_2_347" x1="980.5" y1="-343" x2="189.847" y2="382.468" gradientUnits="userSpaceOnUse">
<stop stop-color="#DEDEDE"/>
<stop offset="1" stop-color="#F6F7FB"/>
</linearGradient>
<linearGradient id="paint25_linear_2_347" x1="980.5" y1="-343" x2="189.847" y2="382.468" gradientUnits="userSpaceOnUse">
<stop stop-color="#DEDEDE"/>
<stop offset="1" stop-color="#F6F7FB"/>
</linearGradient>
<linearGradient id="paint26_linear_2_347" x1="980.5" y1="-343" x2="189.847" y2="382.468" gradientUnits="userSpaceOnUse">
<stop stop-color="#DEDEDE"/>
<stop offset="1" stop-color="#F6F7FB"/>
</linearGradient>
<linearGradient id="paint27_linear_2_347" x1="980.5" y1="-343" x2="189.847" y2="382.468" gradientUnits="userSpaceOnUse">
<stop stop-color="#DEDEDE"/>
<stop offset="1" stop-color="#F6F7FB"/>
</linearGradient>
<linearGradient id="paint28_linear_2_347" x1="980.5" y1="-343" x2="189.847" y2="382.468" gradientUnits="userSpaceOnUse">
<stop stop-color="#DEDEDE"/>
<stop offset="1" stop-color="#F6F7FB"/>
</linearGradient>
<linearGradient id="paint29_linear_2_347" x1="980.5" y1="-343" x2="189.847" y2="382.468" gradientUnits="userSpaceOnUse">
<stop stop-color="#DEDEDE"/>
<stop offset="1" stop-color="#F6F7FB"/>
</linearGradient>
<linearGradient id="paint30_linear_2_347" x1="980.5" y1="-343" x2="189.847" y2="382.468" gradientUnits="userSpaceOnUse">
<stop stop-color="#DEDEDE"/>
<stop offset="1" stop-color="#F6F7FB"/>
</linearGradient>
<linearGradient id="paint31_linear_2_347" x1="980.5" y1="-343" x2="189.847" y2="382.468" gradientUnits="userSpaceOnUse">
<stop stop-color="#DEDEDE"/>
<stop offset="1" stop-color="#F6F7FB"/>
</linearGradient>
<linearGradient id="paint32_linear_2_347" x1="980.5" y1="-343" x2="189.847" y2="382.468" gradientUnits="userSpaceOnUse">
<stop stop-color="#DEDEDE"/>
<stop offset="1" stop-color="#F6F7FB"/>
</linearGradient>
<linearGradient id="paint33_linear_2_347" x1="980.5" y1="-343" x2="189.847" y2="382.468" gradientUnits="userSpaceOnUse">
<stop stop-color="#DEDEDE"/>
<stop offset="1" stop-color="#F6F7FB"/>
</linearGradient>
<linearGradient id="paint34_linear_2_347" x1="980.5" y1="-343" x2="189.847" y2="382.468" gradientUnits="userSpaceOnUse">
<stop stop-color="#DEDEDE"/>
<stop offset="1" stop-color="#F6F7FB"/>
</linearGradient>
<linearGradient id="paint35_linear_2_347" x1="980.5" y1="-343" x2="189.847" y2="382.468" gradientUnits="userSpaceOnUse">
<stop stop-color="#DEDEDE"/>
<stop offset="1" stop-color="#F6F7FB"/>
</linearGradient>
<linearGradient id="paint36_linear_2_347" x1="980.5" y1="-343" x2="189.847" y2="382.468" gradientUnits="userSpaceOnUse">
<stop stop-color="#DEDEDE"/>
<stop offset="1" stop-color="#F6F7FB"/>
</linearGradient>
<linearGradient id="paint37_linear_2_347" x1="980.5" y1="-343" x2="189.847" y2="382.468" gradientUnits="userSpaceOnUse">
<stop stop-color="#DEDEDE"/>
<stop offset="1" stop-color="#F6F7FB"/>
</linearGradient>
<linearGradient id="paint38_linear_2_347" x1="980.5" y1="-343" x2="189.847" y2="382.468" gradientUnits="userSpaceOnUse">
<stop stop-color="#DEDEDE"/>
<stop offset="1" stop-color="#F6F7FB"/>
</linearGradient>
<linearGradient id="paint39_linear_2_347" x1="980.5" y1="-343" x2="189.847" y2="382.468" gradientUnits="userSpaceOnUse">
<stop stop-color="#DEDEDE"/>
<stop offset="1" stop-color="#F6F7FB"/>
</linearGradient>
<linearGradient id="paint40_linear_2_347" x1="980.5" y1="-343" x2="189.847" y2="382.468" gradientUnits="userSpaceOnUse">
<stop stop-color="#DEDEDE"/>
<stop offset="1" stop-color="#F6F7FB"/>
</linearGradient>
<linearGradient id="paint41_linear_2_347" x1="980.5" y1="-343" x2="189.847" y2="382.468" gradientUnits="userSpaceOnUse">
<stop stop-color="#DEDEDE"/>
<stop offset="1" stop-color="#F6F7FB"/>
</linearGradient>
<linearGradient id="paint42_linear_2_347" x1="980.5" y1="-343" x2="189.847" y2="382.468" gradientUnits="userSpaceOnUse">
<stop stop-color="#DEDEDE"/>
<stop offset="1" stop-color="#F6F7FB"/>
</linearGradient>
<linearGradient id="paint43_linear_2_347" x1="980.5" y1="-343" x2="189.847" y2="382.468" gradientUnits="userSpaceOnUse">
<stop stop-color="#DEDEDE"/>
<stop offset="1" stop-color="#F6F7FB"/>
</linearGradient>
<linearGradient id="paint44_linear_2_347" x1="980.5" y1="-343" x2="189.847" y2="382.468" gradientUnits="userSpaceOnUse">
<stop stop-color="#DEDEDE"/>
<stop offset="1" stop-color="#F6F7FB"/>
</linearGradient>
<linearGradient id="paint45_linear_2_347" x1="980.5" y1="-343" x2="189.847" y2="382.468" gradientUnits="userSpaceOnUse">
<stop stop-color="#DEDEDE"/>
<stop offset="1" stop-color="#F6F7FB"/>
</linearGradient>
<linearGradient id="paint46_linear_2_347" x1="980.5" y1="-343" x2="189.847" y2="382.468" gradientUnits="userSpaceOnUse">
<stop stop-color="#DEDEDE"/>
<stop offset="1" stop-color="#F6F7FB"/>
</linearGradient>
<linearGradient id="paint47_linear_2_347" x1="980.5" y1="-343" x2="189.847" y2="382.468" gradientUnits="userSpaceOnUse">
<stop stop-color="#DEDEDE"/>
<stop offset="1" stop-color="#F6F7FB"/>
</linearGradient>
<linearGradient id="paint48_linear_2_347" x1="980.5" y1="-343" x2="189.847" y2="382.468" gradientUnits="userSpaceOnUse">
<stop stop-color="#DEDEDE"/>
<stop offset="1" stop-color="#F6F7FB"/>
</linearGradient>
<linearGradient id="paint49_linear_2_347" x1="980.5" y1="-343" x2="189.847" y2="382.468" gradientUnits="userSpaceOnUse">
<stop stop-color="#DEDEDE"/>
<stop offset="1" stop-color="#F6F7FB"/>
</linearGradient>
<linearGradient id="paint50_linear_2_347" x1="980.5" y1="-343" x2="189.847" y2="382.468" gradientUnits="userSpaceOnUse">
<stop stop-color="#DEDEDE"/>
<stop offset="1" stop-color="#F6F7FB"/>
</linearGradient>
<linearGradient id="paint51_linear_2_347" x1="980.5" y1="-343" x2="189.847" y2="382.468" gradientUnits="userSpaceOnUse">
<stop stop-color="#DEDEDE"/>
<stop offset="1" stop-color="#F6F7FB"/>
</linearGradient>
<linearGradient id="paint52_linear_2_347" x1="980.5" y1="-343" x2="189.847" y2="382.468" gradientUnits="userSpaceOnUse">
<stop stop-color="#DEDEDE"/>
<stop offset="1" stop-color="#F6F7FB"/>
</linearGradient>
<linearGradient id="paint53_linear_2_347" x1="980.5" y1="-343" x2="189.847" y2="382.468" gradientUnits="userSpaceOnUse">
<stop stop-color="#DEDEDE"/>
<stop offset="1" stop-color="#F6F7FB"/>
</linearGradient>
<linearGradient id="paint54_linear_2_347" x1="980.5" y1="-343" x2="189.847" y2="382.468" gradientUnits="userSpaceOnUse">
<stop stop-color="#DEDEDE"/>
<stop offset="1" stop-color="#F6F7FB"/>
</linearGradient>
<linearGradient id="paint55_linear_2_347" x1="980.5" y1="-343" x2="189.847" y2="382.468" gradientUnits="userSpaceOnUse">
<stop stop-color="#DEDEDE"/>
<stop offset="1" stop-color="#F6F7FB"/>
</linearGradient>
<linearGradient id="paint56_linear_2_347" x1="980.5" y1="-343" x2="189.847" y2="382.468" gradientUnits="userSpaceOnUse">
<stop stop-color="#DEDEDE"/>
<stop offset="1" stop-color="#F6F7FB"/>
</linearGradient>
<linearGradient id="paint57_linear_2_347" x1="980.5" y1="-343" x2="189.847" y2="382.468" gradientUnits="userSpaceOnUse">
<stop stop-color="#DEDEDE"/>
<stop offset="1" stop-color="#F6F7FB"/>
</linearGradient>
<linearGradient id="paint58_linear_2_347" x1="980.5" y1="-343" x2="189.847" y2="382.468" gradientUnits="userSpaceOnUse">
<stop stop-color="#DEDEDE"/>
<stop offset="1" stop-color="#F6F7FB"/>
</linearGradient>
<linearGradient id="paint59_linear_2_347" x1="980.5" y1="-343" x2="189.847" y2="382.468" gradientUnits="userSpaceOnUse">
<stop stop-color="#DEDEDE"/>
<stop offset="1" stop-color="#F6F7FB"/>
</linearGradient>
<linearGradient id="paint60_linear_2_347" x1="980.5" y1="-343" x2="189.847" y2="382.468" gradientUnits="userSpaceOnUse">
<stop stop-color="#DEDEDE"/>
<stop offset="1" stop-color="#F6F7FB"/>
</linearGradient>
<linearGradient id="paint61_linear_2_347" x1="980.5" y1="-343" x2="189.847" y2="382.468" gradientUnits="userSpaceOnUse">
<stop stop-color="#DEDEDE"/>
<stop offset="1" stop-color="#F6F7FB"/>
</linearGradient>
<linearGradient id="paint62_linear_2_347" x1="980.5" y1="-343" x2="189.847" y2="382.468" gradientUnits="userSpaceOnUse">
<stop stop-color="#DEDEDE"/>
<stop offset="1" stop-color="#F6F7FB"/>
</linearGradient>
<linearGradient id="paint63_linear_2_347" x1="980.5" y1="-343" x2="189.847" y2="382.468" gradientUnits="userSpaceOnUse">
<stop stop-color="#DEDEDE"/>
<stop offset="1" stop-color="#F6F7FB"/>
</linearGradient>
<linearGradient id="paint64_linear_2_347" x1="980.5" y1="-343" x2="189.847" y2="382.468" gradientUnits="userSpaceOnUse">
<stop stop-color="#DEDEDE"/>
<stop offset="1" stop-color="#F6F7FB"/>
</linearGradient>
<linearGradient id="paint65_linear_2_347" x1="980.5" y1="-343" x2="189.847" y2="382.468" gradientUnits="userSpaceOnUse">
<stop stop-color="#DEDEDE"/>
<stop offset="1" stop-color="#F6F7FB"/>
</linearGradient>
<linearGradient id="paint66_linear_2_347" x1="980.5" y1="-343" x2="189.847" y2="382.468" gradientUnits="userSpaceOnUse">
<stop stop-color="#DEDEDE"/>
<stop offset="1" stop-color="#F6F7FB"/>
</linearGradient>
<linearGradient id="paint67_linear_2_347" x1="980.5" y1="-343" x2="189.847" y2="382.468" gradientUnits="userSpaceOnUse">
<stop stop-color="#DEDEDE"/>
<stop offset="1" stop-color="#F6F7FB"/>
</linearGradient>
<linearGradient id="paint68_linear_2_347" x1="980.5" y1="-343" x2="189.847" y2="382.468" gradientUnits="userSpaceOnUse">
<stop stop-color="#DEDEDE"/>
<stop offset="1" stop-color="#F6F7FB"/>
</linearGradient>
<linearGradient id="paint69_linear_2_347" x1="980.5" y1="-343" x2="189.847" y2="382.468" gradientUnits="userSpaceOnUse">
<stop stop-color="#DEDEDE"/>
<stop offset="1" stop-color="#F6F7FB"/>
</linearGradient>
<linearGradient id="paint70_linear_2_347" x1="980.5" y1="-343" x2="189.847" y2="382.468" gradientUnits="userSpaceOnUse">
<stop stop-color="#DEDEDE"/>
<stop offset="1" stop-color="#F6F7FB"/>
</linearGradient>
<linearGradient id="paint71_linear_2_347" x1="980.5" y1="-343" x2="189.847" y2="382.468" gradientUnits="userSpaceOnUse">
<stop stop-color="#DEDEDE"/>
<stop offset="1" stop-color="#F6F7FB"/>
</linearGradient>
<linearGradient id="paint72_linear_2_347" x1="980.5" y1="-343" x2="189.847" y2="382.468" gradientUnits="userSpaceOnUse">
<stop stop-color="#DEDEDE"/>
<stop offset="1" stop-color="#F6F7FB"/>
</linearGradient>
<linearGradient id="paint73_linear_2_347" x1="980.5" y1="-343" x2="189.847" y2="382.468" gradientUnits="userSpaceOnUse">
<stop stop-color="#DEDEDE"/>
<stop offset="1" stop-color="#F6F7FB"/>
</linearGradient>
<linearGradient id="paint74_linear_2_347" x1="980.5" y1="-343" x2="189.847" y2="382.468" gradientUnits="userSpaceOnUse">
<stop stop-color="#DEDEDE"/>
<stop offset="1" stop-color="#F6F7FB"/>
</linearGradient>
<linearGradient id="paint75_linear_2_347" x1="980.5" y1="-343" x2="189.847" y2="382.468" gradientUnits="userSpaceOnUse">
<stop stop-color="#DEDEDE"/>
<stop offset="1" stop-color="#F6F7FB"/>
</linearGradient>
<linearGradient id="paint76_linear_2_347" x1="980.5" y1="-343" x2="189.847" y2="382.468" gradientUnits="userSpaceOnUse">
<stop stop-color="#DEDEDE"/>
<stop offset="1" stop-color="#F6F7FB"/>
</linearGradient>
<linearGradient id="paint77_linear_2_347" x1="980.5" y1="-343" x2="189.847" y2="382.468" gradientUnits="userSpaceOnUse">
<stop stop-color="#DEDEDE"/>
<stop offset="1" stop-color="#F6F7FB"/>
</linearGradient>
<linearGradient id="paint78_linear_2_347" x1="980.5" y1="-343" x2="189.847" y2="382.468" gradientUnits="userSpaceOnUse">
<stop stop-color="#DEDEDE"/>
<stop offset="1" stop-color="#F6F7FB"/>
</linearGradient>
<linearGradient id="paint79_linear_2_347" x1="980.5" y1="-343" x2="189.847" y2="382.468" gradientUnits="userSpaceOnUse">
<stop stop-color="#DEDEDE"/>
<stop offset="1" stop-color="#F6F7FB"/>
</linearGradient>
<linearGradient id="paint80_linear_2_347" x1="980.5" y1="-343" x2="189.847" y2="382.468" gradientUnits="userSpaceOnUse">
<stop stop-color="#DEDEDE"/>
<stop offset="1" stop-color="#F6F7FB"/>
</linearGradient>
<linearGradient id="paint81_linear_2_347" x1="980.5" y1="-343" x2="189.847" y2="382.468" gradientUnits="userSpaceOnUse">
<stop stop-color="#DEDEDE"/>
<stop offset="1" stop-color="#F6F7FB"/>
</linearGradient>
<linearGradient id="paint82_linear_2_347" x1="980.5" y1="-343" x2="189.847" y2="382.468" gradientUnits="userSpaceOnUse">
<stop stop-color="#DEDEDE"/>
<stop offset="1" stop-color="#F6F7FB"/>
</linearGradient>
<linearGradient id="paint83_linear_2_347" x1="980.5" y1="-343" x2="189.847" y2="382.468" gradientUnits="userSpaceOnUse">
<stop stop-color="#DEDEDE"/>
<stop offset="1" stop-color="#F6F7FB"/>
</linearGradient>
<linearGradient id="paint84_linear_2_347" x1="980.5" y1="-343" x2="189.847" y2="382.468" gradientUnits="userSpaceOnUse">
<stop stop-color="#DEDEDE"/>
<stop offset="1" stop-color="#F6F7FB"/>
</linearGradient>
<linearGradient id="paint85_linear_2_347" x1="980.5" y1="-343" x2="189.847" y2="382.468" gradientUnits="userSpaceOnUse">
<stop stop-color="#DEDEDE"/>
<stop offset="1" stop-color="#F6F7FB"/>
</linearGradient>
<linearGradient id="paint86_linear_2_347" x1="980.5" y1="-343" x2="189.847" y2="382.468" gradientUnits="userSpaceOnUse">
<stop stop-color="#DEDEDE"/>
<stop offset="1" stop-color="#F6F7FB"/>
</linearGradient>
<linearGradient id="paint87_linear_2_347" x1="980.5" y1="-343" x2="189.847" y2="382.468" gradientUnits="userSpaceOnUse">
<stop stop-color="#DEDEDE"/>
<stop offset="1" stop-color="#F6F7FB"/>
</linearGradient>
<linearGradient id="paint88_linear_2_347" x1="980.5" y1="-343" x2="189.847" y2="382.468" gradientUnits="userSpaceOnUse">
<stop stop-color="#DEDEDE"/>
<stop offset="1" stop-color="#F6F7FB"/>
</linearGradient>
<linearGradient id="paint89_linear_2_347" x1="980.5" y1="-343" x2="189.847" y2="382.468" gradientUnits="userSpaceOnUse">
<stop stop-color="#DEDEDE"/>
<stop offset="1" stop-color="#F6F7FB"/>
</linearGradient>
<linearGradient id="paint90_linear_2_347" x1="980.5" y1="-343" x2="189.847" y2="382.468" gradientUnits="userSpaceOnUse">
<stop stop-color="#DEDEDE"/>
<stop offset="1" stop-color="#F6F7FB"/>
</linearGradient>
<linearGradient id="paint91_linear_2_347" x1="980.5" y1="-343" x2="189.847" y2="382.468" gradientUnits="userSpaceOnUse">
<stop stop-color="#DEDEDE"/>
<stop offset="1" stop-color="#F6F7FB"/>
</linearGradient>
<linearGradient id="paint92_linear_2_347" x1="980.5" y1="-343" x2="189.847" y2="382.468" gradientUnits="userSpaceOnUse">
<stop stop-color="#DEDEDE"/>
<stop offset="1" stop-color="#F6F7FB"/>
</linearGradient>
<linearGradient id="paint93_linear_2_347" x1="980.5" y1="-343" x2="189.847" y2="382.468" gradientUnits="userSpaceOnUse">
<stop stop-color="#DEDEDE"/>
<stop offset="1" stop-color="#F6F7FB"/>
</linearGradient>
<linearGradient id="paint94_linear_2_347" x1="980.5" y1="-343" x2="189.847" y2="382.468" gradientUnits="userSpaceOnUse">
<stop stop-color="#DEDEDE"/>
<stop offset="1" stop-color="#F6F7FB"/>
</linearGradient>
<linearGradient id="paint95_linear_2_347" x1="980.5" y1="-343" x2="189.847" y2="382.468" gradientUnits="userSpaceOnUse">
<stop stop-color="#DEDEDE"/>
<stop offset="1" stop-color="#F6F7FB"/>
</linearGradient>
<linearGradient id="paint96_linear_2_347" x1="980.5" y1="-343" x2="189.847" y2="382.468" gradientUnits="userSpaceOnUse">
<stop stop-color="#DEDEDE"/>
<stop offset="1" stop-color="#F6F7FB"/>
</linearGradient>
<linearGradient id="paint97_linear_2_347" x1="980.5" y1="-343" x2="189.847" y2="382.468" gradientUnits="userSpaceOnUse">
<stop stop-color="#DEDEDE"/>
<stop offset="1" stop-color="#F6F7FB"/>
</linearGradient>
<linearGradient id="paint98_linear_2_347" x1="980.5" y1="-343" x2="189.847" y2="382.468" gradientUnits="userSpaceOnUse">
<stop stop-color="#DEDEDE"/>
<stop offset="1" stop-color="#F6F7FB"/>
</linearGradient>
<linearGradient id="paint99_linear_2_347" x1="980.5" y1="-343" x2="189.847" y2="382.468" gradientUnits="userSpaceOnUse">
<stop stop-color="#DEDEDE"/>
<stop offset="1" stop-color="#F6F7FB"/>
</linearGradient>
<linearGradient id="paint100_linear_2_347" x1="980.5" y1="-343" x2="189.847" y2="382.468" gradientUnits="userSpaceOnUse">
<stop stop-color="#DEDEDE"/>
<stop offset="1" stop-color="#F6F7FB"/>
</linearGradient>
<linearGradient id="paint101_linear_2_347" x1="980.5" y1="-343" x2="189.847" y2="382.468" gradientUnits="userSpaceOnUse">
<stop stop-color="#DEDEDE"/>
<stop offset="1" stop-color="#F6F7FB"/>
</linearGradient>
<linearGradient id="paint102_linear_2_347" x1="980.5" y1="-343" x2="189.847" y2="382.468" gradientUnits="userSpaceOnUse">
<stop stop-color="#DEDEDE"/>
<stop offset="1" stop-color="#F6F7FB"/>
</linearGradient>
<linearGradient id="paint103_linear_2_347" x1="980.5" y1="-343" x2="189.847" y2="382.468" gradientUnits="userSpaceOnUse">
<stop stop-color="#DEDEDE"/>
<stop offset="1" stop-color="#F6F7FB"/>
</linearGradient>
<linearGradient id="paint104_linear_2_347" x1="980.5" y1="-343" x2="189.847" y2="382.468" gradientUnits="userSpaceOnUse">
<stop stop-color="#DEDEDE"/>
<stop offset="1" stop-color="#F6F7FB"/>
</linearGradient>
<linearGradient id="paint105_linear_2_347" x1="980.5" y1="-343" x2="189.847" y2="382.468" gradientUnits="userSpaceOnUse">
<stop stop-color="#DEDEDE"/>
<stop offset="1" stop-color="#F6F7FB"/>
</linearGradient>
<linearGradient id="paint106_linear_2_347" x1="980.5" y1="-343" x2="189.847" y2="382.468" gradientUnits="userSpaceOnUse">
<stop stop-color="#DEDEDE"/>
<stop offset="1" stop-color="#F6F7FB"/>
</linearGradient>
<linearGradient id="paint107_linear_2_347" x1="980.5" y1="-343" x2="189.847" y2="382.468" gradientUnits="userSpaceOnUse">
<stop stop-color="#DEDEDE"/>
<stop offset="1" stop-color="#F6F7FB"/>
</linearGradient>
<linearGradient id="paint108_linear_2_347" x1="980.5" y1="-343" x2="189.847" y2="382.468" gradientUnits="userSpaceOnUse">
<stop stop-color="#DEDEDE"/>
<stop offset="1" stop-color="#F6F7FB"/>
</linearGradient>
<linearGradient id="paint109_linear_2_347" x1="980.5" y1="-343" x2="189.847" y2="382.468" gradientUnits="userSpaceOnUse">
<stop stop-color="#DEDEDE"/>
<stop offset="1" stop-color="#F6F7FB"/>
</linearGradient>
<linearGradient id="paint110_linear_2_347" x1="980.5" y1="-343" x2="189.847" y2="382.468" gradientUnits="userSpaceOnUse">
<stop stop-color="#DEDEDE"/>
<stop offset="1" stop-color="#F6F7FB"/>
</linearGradient>
<linearGradient id="paint111_linear_2_347" x1="980.5" y1="-343" x2="189.847" y2="382.468" gradientUnits="userSpaceOnUse">
<stop stop-color="#DEDEDE"/>
<stop offset="1" stop-color="#F6F7FB"/>
</linearGradient>
<linearGradient id="paint112_linear_2_347" x1="980.5" y1="-343" x2="189.847" y2="382.468" gradientUnits="userSpaceOnUse">
<stop stop-color="#DEDEDE"/>
<stop offset="1" stop-color="#F6F7FB"/>
</linearGradient>
<linearGradient id="paint113_linear_2_347" x1="980.5" y1="-343" x2="189.847" y2="382.468" gradientUnits="userSpaceOnUse">
<stop stop-color="#DEDEDE"/>
<stop offset="1" stop-color="#F6F7FB"/>
</linearGradient>
<linearGradient id="paint114_linear_2_347" x1="980.5" y1="-343" x2="189.847" y2="382.468" gradientUnits="userSpaceOnUse">
<stop stop-color="#DEDEDE"/>
<stop offset="1" stop-color="#F6F7FB"/>
</linearGradient>
<linearGradient id="paint115_linear_2_347" x1="980.5" y1="-343" x2="189.847" y2="382.468" gradientUnits="userSpaceOnUse">
<stop stop-color="#DEDEDE"/>
<stop offset="1" stop-color="#F6F7FB"/>
</linearGradient>
<linearGradient id="paint116_linear_2_347" x1="980.5" y1="-343" x2="189.847" y2="382.468" gradientUnits="userSpaceOnUse">
<stop stop-color="#DEDEDE"/>
<stop offset="1" stop-color="#F6F7FB"/>
</linearGradient>
<linearGradient id="paint117_linear_2_347" x1="980.5" y1="-343" x2="189.847" y2="382.468" gradientUnits="userSpaceOnUse">
<stop stop-color="#DEDEDE"/>
<stop offset="1" stop-color="#F6F7FB"/>
</linearGradient>
<linearGradient id="paint118_linear_2_347" x1="980.5" y1="-343" x2="189.847" y2="382.468" gradientUnits="userSpaceOnUse">
<stop stop-color="#DEDEDE"/>
<stop offset="1" stop-color="#F6F7FB"/>
</linearGradient>
<linearGradient id="paint119_linear_2_347" x1="980.5" y1="-343" x2="189.847" y2="382.468" gradientUnits="userSpaceOnUse">
<stop stop-color="#DEDEDE"/>
<stop offset="1" stop-color="#F6F7FB"/>
</linearGradient>
<linearGradient id="paint120_linear_2_347" x1="980.5" y1="-343" x2="189.847" y2="382.468" gradientUnits="userSpaceOnUse">
<stop stop-color="#DEDEDE"/>
<stop offset="1" stop-color="#F6F7FB"/>
</linearGradient>
<linearGradient id="paint121_linear_2_347" x1="980.5" y1="-343" x2="189.847" y2="382.468" gradientUnits="userSpaceOnUse">
<stop stop-color="#DEDEDE"/>
<stop offset="1" stop-color="#F6F7FB"/>
</linearGradient>
<linearGradient id="paint122_linear_2_347" x1="980.5" y1="-343" x2="189.847" y2="382.468" gradientUnits="userSpaceOnUse">
<stop stop-color="#DEDEDE"/>
<stop offset="1" stop-color="#F6F7FB"/>
</linearGradient>
<linearGradient id="paint123_linear_2_347" x1="980.5" y1="-343" x2="189.847" y2="382.468" gradientUnits="userSpaceOnUse">
<stop stop-color="#DEDEDE"/>
<stop offset="1" stop-color="#F6F7FB"/>
</linearGradient>
<linearGradient id="paint124_linear_2_347" x1="980.5" y1="-343" x2="189.847" y2="382.468" gradientUnits="userSpaceOnUse">
<stop stop-color="#DEDEDE"/>
<stop offset="1" stop-color="#F6F7FB"/>
</linearGradient>
<linearGradient id="paint125_linear_2_347" x1="980.5" y1="-343" x2="189.847" y2="382.468" gradientUnits="userSpaceOnUse">
<stop stop-color="#DEDEDE"/>
<stop offset="1" stop-color="#F6F7FB"/>
</linearGradient>
<linearGradient id="paint126_linear_2_347" x1="980.5" y1="-343" x2="189.847" y2="382.468" gradientUnits="userSpaceOnUse">
<stop stop-color="#DEDEDE"/>
<stop offset="1" stop-color="#F6F7FB"/>
</linearGradient>
<linearGradient id="paint127_linear_2_347" x1="980.5" y1="-343" x2="189.847" y2="382.468" gradientUnits="userSpaceOnUse">
<stop stop-color="#DEDEDE"/>
<stop offset="1" stop-color="#F6F7FB"/>
</linearGradient>
</defs>
</svg>
