<svg width="357" height="384" viewBox="0 0 357 384" fill="none" xmlns="http://www.w3.org/2000/svg">
<path d="M616.925 142.822L329.003 65.6737C319.812 63.2109 312.633 56.0318 310.17 46.8407L236.864 -226.741M600.318 159.999L312.395 82.85C303.204 80.3872 296.025 73.2082 293.562 64.017L220.256 -209.564M583.179 175.196L295.257 98.0474C286.066 95.5846 278.887 88.4055 276.424 79.2143L203.118 -194.367M566.571 192.372L278.649 115.224C269.458 112.761 262.279 105.582 259.816 96.3907L186.51 -177.191M550.157 206.315L262.235 129.166C253.044 126.704 245.865 119.525 243.402 110.333L170.096 -163.248M533.549 223.491L245.627 146.343C236.436 143.88 229.257 136.701 226.794 127.51L153.488 -146.072M516.411 238.689L228.489 161.54C219.298 159.077 212.119 151.898 209.656 142.707L136.35 -130.874M499.803 255.865L211.881 178.716C202.69 176.254 195.511 169.075 193.048 159.883L119.742 -113.698M482.4 270.073L194.477 192.924C185.286 190.461 178.107 183.282 175.644 174.091L102.338 -99.4902M465.792 287.249L177.869 210.101C168.678 207.638 161.499 200.459 159.036 191.268L85.7305 -82.3139M448.654 302.446L160.731 225.298C151.54 222.835 144.361 215.656 141.898 206.465L68.5922 -67.1165M432.046 319.623L144.123 242.474C134.932 240.011 127.753 232.832 125.29 223.641L51.9842 -49.9402M415.632 333.566L127.709 256.417C118.518 253.954 111.339 246.775 108.876 237.584L35.5704 -35.9975M399.024 350.742L111.101 273.593C101.91 271.131 94.7311 263.951 92.2683 254.76L18.9624 -18.8212M381.886 365.939L93.9631 288.791C84.772 286.328 77.5929 279.149 75.1301 269.958L1.82416 -3.6238M365.278 383.116L77.3551 305.967C68.164 303.504 60.9849 296.325 58.5221 287.134L-14.7838 13.5525" stroke="url(#paint0_linear_2_361)"/>
<defs>
<linearGradient id="paint0_linear_2_361" x1="525.523" y1="-198.297" x2="97.5889" y2="326.22" gradientUnits="userSpaceOnUse">
<stop stop-color="#DADADA"/>
<stop offset="1" stop-color="#F6F7FB"/>
</linearGradient>
</defs>
</svg>
