<svg width="412" height="863" viewBox="0 0 412 863" fill="none" xmlns="http://www.w3.org/2000/svg">
<path d="M4.43966 2.23308C4.43966 3.46638 3.4458 4.46617 2.21983 4.46617C0.993851 4.46617 0 3.46638 0 2.23308C0 0.999785 0.993851 0 2.21983 0C3.4458 0 4.43966 0.999785 4.43966 2.23308Z" fill="url(#paint0_linear_2_191)"/>
<path d="M4.43966 120.586C4.43966 121.82 3.4458 122.82 2.21983 122.82C0.993851 122.82 0 121.82 0 120.586C0 119.353 0.993851 118.353 2.21983 118.353C3.4458 118.353 4.43966 119.353 4.43966 120.586Z" fill="url(#paint1_linear_2_191)"/>
<path d="M4.43966 61.6331C4.43966 62.8664 3.4458 63.8662 2.21983 63.8662C0.993851 63.8662 0 62.8664 0 61.6331C0 60.3998 0.993851 59.4 2.21983 59.4C3.4458 59.4 4.43966 60.3998 4.43966 61.6331Z" fill="url(#paint2_linear_2_191)"/>
<path d="M4.43966 179.54C4.43966 180.773 3.4458 181.773 2.21983 181.773C0.993851 181.773 0 180.773 0 179.54C0 178.307 0.993851 177.307 2.21983 177.307C3.4458 177.307 4.43966 178.307 4.43966 179.54Z" fill="url(#paint3_linear_2_191)"/>
<path d="M4.43966 238.493C4.43966 239.727 3.4458 240.726 2.21983 240.726C0.993851 240.726 0 239.727 0 238.493C0 237.26 0.993851 236.26 2.21983 236.26C3.4458 236.26 4.43966 237.26 4.43966 238.493Z" fill="url(#paint4_linear_2_191)"/>
<path d="M4.43966 356.847C4.43966 358.08 3.4458 359.08 2.21983 359.08C0.993851 359.08 0 358.08 0 356.847C0 355.613 0.993851 354.614 2.21983 354.614C3.4458 354.614 4.43966 355.613 4.43966 356.847Z" fill="url(#paint5_linear_2_191)"/>
<path d="M4.43966 297.893C4.43966 299.127 3.4458 300.126 2.21983 300.126C0.993851 300.126 0 299.127 0 297.893C0 296.66 0.993851 295.66 2.21983 295.66C3.4458 295.66 4.43966 296.66 4.43966 297.893Z" fill="url(#paint6_linear_2_191)"/>
<path d="M4.43966 415.8C4.43966 417.033 3.4458 418.033 2.21983 418.033C0.993851 418.033 0 417.033 0 415.8C0 414.567 0.993851 413.567 2.21983 413.567C3.4458 413.567 4.43966 414.567 4.43966 415.8Z" fill="url(#paint7_linear_2_191)"/>
<path d="M4.43966 475.2C4.43966 476.433 3.4458 477.433 2.21983 477.433C0.993851 477.433 0 476.433 0 475.2C0 473.967 0.993851 472.967 2.21983 472.967C3.4458 472.967 4.43966 473.967 4.43966 475.2Z" fill="url(#paint8_linear_2_191)"/>
<path d="M4.43966 593.553C4.43966 594.787 3.4458 595.786 2.21983 595.786C0.993851 595.786 0 594.787 0 593.553C0 592.32 0.993851 591.32 2.21983 591.32C3.4458 591.32 4.43966 592.32 4.43966 593.553Z" fill="url(#paint9_linear_2_191)"/>
<path d="M4.43966 534.6C4.43966 535.833 3.4458 536.833 2.21983 536.833C0.993851 536.833 0 535.833 0 534.6C0 533.367 0.993851 532.367 2.21983 532.367C3.4458 532.367 4.43966 533.367 4.43966 534.6Z" fill="url(#paint10_linear_2_191)"/>
<path d="M4.43966 652.507C4.43966 653.74 3.4458 654.74 2.21983 654.74C0.993851 654.74 0 653.74 0 652.507C0 651.273 0.993851 650.274 2.21983 650.274C3.4458 650.274 4.43966 651.273 4.43966 652.507Z" fill="url(#paint11_linear_2_191)"/>
<path d="M4.43966 711.46C4.43966 712.693 3.4458 713.693 2.21983 713.693C0.993851 713.693 0 712.693 0 711.46C0 710.227 0.993851 709.227 2.21983 709.227C3.4458 709.227 4.43966 710.227 4.43966 711.46Z" fill="url(#paint12_linear_2_191)"/>
<path d="M4.43966 829.814C4.43966 831.047 3.4458 832.047 2.21983 832.047C0.993851 832.047 0 831.047 0 829.814C0 828.58 0.993851 827.58 2.21983 827.58C3.4458 827.58 4.43966 828.58 4.43966 829.814Z" fill="url(#paint13_linear_2_191)"/>
<path d="M4.43966 770.86C4.43966 772.093 3.4458 773.093 2.21983 773.093C0.993851 773.093 0 772.093 0 770.86C0 769.627 0.993851 768.627 2.21983 768.627C3.4458 768.627 4.43966 769.627 4.43966 770.86Z" fill="url(#paint14_linear_2_191)"/>
<path d="M4.43966 888.767C4.43966 890 3.4458 891 2.21983 891C0.993851 891 0 890 0 888.767C0 887.534 0.993851 886.534 2.21983 886.534C3.4458 886.534 4.43966 887.534 4.43966 888.767Z" fill="url(#paint15_linear_2_191)"/>
<path d="M63.0431 2.23308C63.0431 3.46638 62.0493 4.46617 60.8233 4.46617C59.5973 4.46617 58.6035 3.46638 58.6035 2.23308C58.6035 0.999785 59.5973 0 60.8233 0C62.0493 0 63.0431 0.999785 63.0431 2.23308Z" fill="url(#paint16_linear_2_191)"/>
<path d="M63.0431 120.586C63.0431 121.82 62.0493 122.82 60.8233 122.82C59.5973 122.82 58.6035 121.82 58.6035 120.586C58.6035 119.353 59.5973 118.353 60.8233 118.353C62.0493 118.353 63.0431 119.353 63.0431 120.586Z" fill="url(#paint17_linear_2_191)"/>
<path d="M63.0431 61.6331C63.0431 62.8664 62.0493 63.8662 60.8233 63.8662C59.5973 63.8662 58.6035 62.8664 58.6035 61.6331C58.6035 60.3998 59.5973 59.4 60.8233 59.4C62.0493 59.4 63.0431 60.3998 63.0431 61.6331Z" fill="url(#paint18_linear_2_191)"/>
<path d="M63.0431 179.54C63.0431 180.773 62.0493 181.773 60.8233 181.773C59.5973 181.773 58.6035 180.773 58.6035 179.54C58.6035 178.307 59.5973 177.307 60.8233 177.307C62.0493 177.307 63.0431 178.307 63.0431 179.54Z" fill="url(#paint19_linear_2_191)"/>
<path d="M63.0431 238.493C63.0431 239.727 62.0493 240.726 60.8233 240.726C59.5973 240.726 58.6035 239.727 58.6035 238.493C58.6035 237.26 59.5973 236.26 60.8233 236.26C62.0493 236.26 63.0431 237.26 63.0431 238.493Z" fill="url(#paint20_linear_2_191)"/>
<path d="M63.0431 356.847C63.0431 358.08 62.0493 359.08 60.8233 359.08C59.5973 359.08 58.6035 358.08 58.6035 356.847C58.6035 355.613 59.5973 354.614 60.8233 354.614C62.0493 354.614 63.0431 355.613 63.0431 356.847Z" fill="url(#paint21_linear_2_191)"/>
<path d="M63.0431 297.893C63.0431 299.127 62.0493 300.126 60.8233 300.126C59.5973 300.126 58.6035 299.127 58.6035 297.893C58.6035 296.66 59.5973 295.66 60.8233 295.66C62.0493 295.66 63.0431 296.66 63.0431 297.893Z" fill="url(#paint22_linear_2_191)"/>
<path d="M63.0431 415.8C63.0431 417.033 62.0493 418.033 60.8233 418.033C59.5973 418.033 58.6035 417.033 58.6035 415.8C58.6035 414.567 59.5973 413.567 60.8233 413.567C62.0493 413.567 63.0431 414.567 63.0431 415.8Z" fill="url(#paint23_linear_2_191)"/>
<path d="M63.0431 475.2C63.0431 476.433 62.0493 477.433 60.8233 477.433C59.5973 477.433 58.6035 476.433 58.6035 475.2C58.6035 473.967 59.5973 472.967 60.8233 472.967C62.0493 472.967 63.0431 473.967 63.0431 475.2Z" fill="url(#paint24_linear_2_191)"/>
<path d="M63.0431 593.553C63.0431 594.787 62.0493 595.786 60.8233 595.786C59.5973 595.786 58.6035 594.787 58.6035 593.553C58.6035 592.32 59.5973 591.32 60.8233 591.32C62.0493 591.32 63.0431 592.32 63.0431 593.553Z" fill="url(#paint25_linear_2_191)"/>
<path d="M63.0431 534.6C63.0431 535.833 62.0493 536.833 60.8233 536.833C59.5973 536.833 58.6035 535.833 58.6035 534.6C58.6035 533.367 59.5973 532.367 60.8233 532.367C62.0493 532.367 63.0431 533.367 63.0431 534.6Z" fill="url(#paint26_linear_2_191)"/>
<path d="M63.0431 652.507C63.0431 653.74 62.0493 654.74 60.8233 654.74C59.5973 654.74 58.6035 653.74 58.6035 652.507C58.6035 651.273 59.5973 650.274 60.8233 650.274C62.0493 650.274 63.0431 651.273 63.0431 652.507Z" fill="url(#paint27_linear_2_191)"/>
<path d="M63.0431 711.46C63.0431 712.693 62.0493 713.693 60.8233 713.693C59.5973 713.693 58.6035 712.693 58.6035 711.46C58.6035 710.227 59.5973 709.227 60.8233 709.227C62.0493 709.227 63.0431 710.227 63.0431 711.46Z" fill="url(#paint28_linear_2_191)"/>
<path d="M63.0431 829.814C63.0431 831.047 62.0493 832.047 60.8233 832.047C59.5973 832.047 58.6035 831.047 58.6035 829.814C58.6035 828.58 59.5973 827.58 60.8233 827.58C62.0493 827.58 63.0431 828.58 63.0431 829.814Z" fill="url(#paint29_linear_2_191)"/>
<path d="M63.0431 770.86C63.0431 772.093 62.0493 773.093 60.8233 773.093C59.5973 773.093 58.6035 772.093 58.6035 770.86C58.6035 769.627 59.5973 768.627 60.8233 768.627C62.0493 768.627 63.0431 769.627 63.0431 770.86Z" fill="url(#paint30_linear_2_191)"/>
<path d="M63.0431 888.767C63.0431 890 62.0493 891 60.8233 891C59.5973 891 58.6035 890 58.6035 888.767C58.6035 887.534 59.5973 886.534 60.8233 886.534C62.0493 886.534 63.0431 887.534 63.0431 888.767Z" fill="url(#paint31_linear_2_191)"/>
<path d="M121.647 2.23308C121.647 3.46638 120.653 4.46617 119.427 4.46617C118.201 4.46617 117.207 3.46638 117.207 2.23308C117.207 0.999785 118.201 0 119.427 0C120.653 0 121.647 0.999785 121.647 2.23308Z" fill="url(#paint32_linear_2_191)"/>
<path d="M121.647 120.586C121.647 121.82 120.653 122.82 119.427 122.82C118.201 122.82 117.207 121.82 117.207 120.586C117.207 119.353 118.201 118.353 119.427 118.353C120.653 118.353 121.647 119.353 121.647 120.586Z" fill="url(#paint33_linear_2_191)"/>
<path d="M121.647 61.6331C121.647 62.8664 120.653 63.8662 119.427 63.8662C118.201 63.8662 117.207 62.8664 117.207 61.6331C117.207 60.3998 118.201 59.4 119.427 59.4C120.653 59.4 121.647 60.3998 121.647 61.6331Z" fill="url(#paint34_linear_2_191)"/>
<path d="M121.647 179.54C121.647 180.773 120.653 181.773 119.427 181.773C118.201 181.773 117.207 180.773 117.207 179.54C117.207 178.307 118.201 177.307 119.427 177.307C120.653 177.307 121.647 178.307 121.647 179.54Z" fill="url(#paint35_linear_2_191)"/>
<path d="M121.647 238.493C121.647 239.727 120.653 240.726 119.427 240.726C118.201 240.726 117.207 239.727 117.207 238.493C117.207 237.26 118.201 236.26 119.427 236.26C120.653 236.26 121.647 237.26 121.647 238.493Z" fill="url(#paint36_linear_2_191)"/>
<path d="M121.647 356.847C121.647 358.08 120.653 359.08 119.427 359.08C118.201 359.08 117.207 358.08 117.207 356.847C117.207 355.613 118.201 354.614 119.427 354.614C120.653 354.614 121.647 355.613 121.647 356.847Z" fill="url(#paint37_linear_2_191)"/>
<path d="M121.647 297.893C121.647 299.127 120.653 300.126 119.427 300.126C118.201 300.126 117.207 299.127 117.207 297.893C117.207 296.66 118.201 295.66 119.427 295.66C120.653 295.66 121.647 296.66 121.647 297.893Z" fill="url(#paint38_linear_2_191)"/>
<path d="M121.647 415.8C121.647 417.033 120.653 418.033 119.427 418.033C118.201 418.033 117.207 417.033 117.207 415.8C117.207 414.567 118.201 413.567 119.427 413.567C120.653 413.567 121.647 414.567 121.647 415.8Z" fill="url(#paint39_linear_2_191)"/>
<path d="M121.647 475.2C121.647 476.433 120.653 477.433 119.427 477.433C118.201 477.433 117.207 476.433 117.207 475.2C117.207 473.967 118.201 472.967 119.427 472.967C120.653 472.967 121.647 473.967 121.647 475.2Z" fill="url(#paint40_linear_2_191)"/>
<path d="M121.647 593.553C121.647 594.787 120.653 595.786 119.427 595.786C118.201 595.786 117.207 594.787 117.207 593.553C117.207 592.32 118.201 591.32 119.427 591.32C120.653 591.32 121.647 592.32 121.647 593.553Z" fill="url(#paint41_linear_2_191)"/>
<path d="M121.647 534.6C121.647 535.833 120.653 536.833 119.427 536.833C118.201 536.833 117.207 535.833 117.207 534.6C117.207 533.367 118.201 532.367 119.427 532.367C120.653 532.367 121.647 533.367 121.647 534.6Z" fill="url(#paint42_linear_2_191)"/>
<path d="M121.647 652.507C121.647 653.74 120.653 654.74 119.427 654.74C118.201 654.74 117.207 653.74 117.207 652.507C117.207 651.273 118.201 650.274 119.427 650.274C120.653 650.274 121.647 651.273 121.647 652.507Z" fill="url(#paint43_linear_2_191)"/>
<path d="M121.647 711.46C121.647 712.693 120.653 713.693 119.427 713.693C118.201 713.693 117.207 712.693 117.207 711.46C117.207 710.227 118.201 709.227 119.427 709.227C120.653 709.227 121.647 710.227 121.647 711.46Z" fill="url(#paint44_linear_2_191)"/>
<path d="M121.647 829.814C121.647 831.047 120.653 832.047 119.427 832.047C118.201 832.047 117.207 831.047 117.207 829.814C117.207 828.58 118.201 827.58 119.427 827.58C120.653 827.58 121.647 828.58 121.647 829.814Z" fill="url(#paint45_linear_2_191)"/>
<path d="M121.647 770.86C121.647 772.093 120.653 773.093 119.427 773.093C118.201 773.093 117.207 772.093 117.207 770.86C117.207 769.627 118.201 768.627 119.427 768.627C120.653 768.627 121.647 769.627 121.647 770.86Z" fill="url(#paint46_linear_2_191)"/>
<path d="M121.647 888.767C121.647 890 120.653 891 119.427 891C118.201 891 117.207 890 117.207 888.767C117.207 887.534 118.201 886.534 119.427 886.534C120.653 886.534 121.647 887.534 121.647 888.767Z" fill="url(#paint47_linear_2_191)"/>
<path d="M180.25 2.23308C180.25 3.46638 179.256 4.46617 178.03 4.46617C176.804 4.46617 175.81 3.46638 175.81 2.23308C175.81 0.999785 176.804 0 178.03 0C179.256 0 180.25 0.999785 180.25 2.23308Z" fill="url(#paint48_linear_2_191)"/>
<path d="M180.25 120.586C180.25 121.82 179.256 122.82 178.03 122.82C176.804 122.82 175.81 121.82 175.81 120.586C175.81 119.353 176.804 118.353 178.03 118.353C179.256 118.353 180.25 119.353 180.25 120.586Z" fill="url(#paint49_linear_2_191)"/>
<path d="M180.25 61.6331C180.25 62.8664 179.256 63.8662 178.03 63.8662C176.804 63.8662 175.81 62.8664 175.81 61.6331C175.81 60.3998 176.804 59.4 178.03 59.4C179.256 59.4 180.25 60.3998 180.25 61.6331Z" fill="url(#paint50_linear_2_191)"/>
<path d="M180.25 179.54C180.25 180.773 179.256 181.773 178.03 181.773C176.804 181.773 175.81 180.773 175.81 179.54C175.81 178.307 176.804 177.307 178.03 177.307C179.256 177.307 180.25 178.307 180.25 179.54Z" fill="url(#paint51_linear_2_191)"/>
<path d="M180.25 238.493C180.25 239.727 179.256 240.726 178.03 240.726C176.804 240.726 175.81 239.727 175.81 238.493C175.81 237.26 176.804 236.26 178.03 236.26C179.256 236.26 180.25 237.26 180.25 238.493Z" fill="url(#paint52_linear_2_191)"/>
<path d="M180.25 356.847C180.25 358.08 179.256 359.08 178.03 359.08C176.804 359.08 175.81 358.08 175.81 356.847C175.81 355.613 176.804 354.614 178.03 354.614C179.256 354.614 180.25 355.613 180.25 356.847Z" fill="url(#paint53_linear_2_191)"/>
<path d="M180.25 297.893C180.25 299.127 179.256 300.126 178.03 300.126C176.804 300.126 175.81 299.127 175.81 297.893C175.81 296.66 176.804 295.66 178.03 295.66C179.256 295.66 180.25 296.66 180.25 297.893Z" fill="url(#paint54_linear_2_191)"/>
<path d="M180.25 415.8C180.25 417.033 179.256 418.033 178.03 418.033C176.804 418.033 175.81 417.033 175.81 415.8C175.81 414.567 176.804 413.567 178.03 413.567C179.256 413.567 180.25 414.567 180.25 415.8Z" fill="url(#paint55_linear_2_191)"/>
<path d="M180.25 475.2C180.25 476.433 179.256 477.433 178.03 477.433C176.804 477.433 175.81 476.433 175.81 475.2C175.81 473.967 176.804 472.967 178.03 472.967C179.256 472.967 180.25 473.967 180.25 475.2Z" fill="url(#paint56_linear_2_191)"/>
<path d="M180.25 593.553C180.25 594.787 179.256 595.786 178.03 595.786C176.804 595.786 175.81 594.787 175.81 593.553C175.81 592.32 176.804 591.32 178.03 591.32C179.256 591.32 180.25 592.32 180.25 593.553Z" fill="url(#paint57_linear_2_191)"/>
<path d="M180.25 534.6C180.25 535.833 179.256 536.833 178.03 536.833C176.804 536.833 175.81 535.833 175.81 534.6C175.81 533.367 176.804 532.367 178.03 532.367C179.256 532.367 180.25 533.367 180.25 534.6Z" fill="url(#paint58_linear_2_191)"/>
<path d="M180.25 652.507C180.25 653.74 179.256 654.74 178.03 654.74C176.804 654.74 175.81 653.74 175.81 652.507C175.81 651.273 176.804 650.274 178.03 650.274C179.256 650.274 180.25 651.273 180.25 652.507Z" fill="url(#paint59_linear_2_191)"/>
<path d="M180.25 711.46C180.25 712.693 179.256 713.693 178.03 713.693C176.804 713.693 175.81 712.693 175.81 711.46C175.81 710.227 176.804 709.227 178.03 709.227C179.256 709.227 180.25 710.227 180.25 711.46Z" fill="url(#paint60_linear_2_191)"/>
<path d="M180.25 829.814C180.25 831.047 179.256 832.047 178.03 832.047C176.804 832.047 175.81 831.047 175.81 829.814C175.81 828.58 176.804 827.58 178.03 827.58C179.256 827.58 180.25 828.58 180.25 829.814Z" fill="url(#paint61_linear_2_191)"/>
<path d="M180.25 770.86C180.25 772.093 179.256 773.093 178.03 773.093C176.804 773.093 175.81 772.093 175.81 770.86C175.81 769.627 176.804 768.627 178.03 768.627C179.256 768.627 180.25 769.627 180.25 770.86Z" fill="url(#paint62_linear_2_191)"/>
<path d="M180.25 888.767C180.25 890 179.256 891 178.03 891C176.804 891 175.81 890 175.81 888.767C175.81 887.534 176.804 886.534 178.03 886.534C179.256 886.534 180.25 887.534 180.25 888.767Z" fill="url(#paint63_linear_2_191)"/>
<path d="M236.19 2.23308C236.19 3.46638 235.196 4.46617 233.97 4.46617C232.744 4.46617 231.75 3.46638 231.75 2.23308C231.75 0.999785 232.744 0 233.97 0C235.196 0 236.19 0.999785 236.19 2.23308Z" fill="url(#paint64_linear_2_191)"/>
<path d="M236.19 120.586C236.19 121.82 235.196 122.82 233.97 122.82C232.744 122.82 231.75 121.82 231.75 120.586C231.75 119.353 232.744 118.353 233.97 118.353C235.196 118.353 236.19 119.353 236.19 120.586Z" fill="url(#paint65_linear_2_191)"/>
<path d="M236.19 61.6331C236.19 62.8664 235.196 63.8662 233.97 63.8662C232.744 63.8662 231.75 62.8664 231.75 61.6331C231.75 60.3998 232.744 59.4 233.97 59.4C235.196 59.4 236.19 60.3998 236.19 61.6331Z" fill="url(#paint66_linear_2_191)"/>
<path d="M236.19 179.54C236.19 180.773 235.196 181.773 233.97 181.773C232.744 181.773 231.75 180.773 231.75 179.54C231.75 178.307 232.744 177.307 233.97 177.307C235.196 177.307 236.19 178.307 236.19 179.54Z" fill="url(#paint67_linear_2_191)"/>
<path d="M236.19 238.493C236.19 239.727 235.196 240.726 233.97 240.726C232.744 240.726 231.75 239.727 231.75 238.493C231.75 237.26 232.744 236.26 233.97 236.26C235.196 236.26 236.19 237.26 236.19 238.493Z" fill="url(#paint68_linear_2_191)"/>
<path d="M236.19 356.847C236.19 358.08 235.196 359.08 233.97 359.08C232.744 359.08 231.75 358.08 231.75 356.847C231.75 355.613 232.744 354.614 233.97 354.614C235.196 354.614 236.19 355.613 236.19 356.847Z" fill="url(#paint69_linear_2_191)"/>
<path d="M236.19 297.893C236.19 299.127 235.196 300.126 233.97 300.126C232.744 300.126 231.75 299.127 231.75 297.893C231.75 296.66 232.744 295.66 233.97 295.66C235.196 295.66 236.19 296.66 236.19 297.893Z" fill="url(#paint70_linear_2_191)"/>
<path d="M236.19 415.8C236.19 417.033 235.196 418.033 233.97 418.033C232.744 418.033 231.75 417.033 231.75 415.8C231.75 414.567 232.744 413.567 233.97 413.567C235.196 413.567 236.19 414.567 236.19 415.8Z" fill="url(#paint71_linear_2_191)"/>
<path d="M236.19 475.2C236.19 476.433 235.196 477.433 233.97 477.433C232.744 477.433 231.75 476.433 231.75 475.2C231.75 473.967 232.744 472.967 233.97 472.967C235.196 472.967 236.19 473.967 236.19 475.2Z" fill="url(#paint72_linear_2_191)"/>
<path d="M236.19 593.553C236.19 594.787 235.196 595.786 233.97 595.786C232.744 595.786 231.75 594.787 231.75 593.553C231.75 592.32 232.744 591.32 233.97 591.32C235.196 591.32 236.19 592.32 236.19 593.553Z" fill="url(#paint73_linear_2_191)"/>
<path d="M236.19 534.6C236.19 535.833 235.196 536.833 233.97 536.833C232.744 536.833 231.75 535.833 231.75 534.6C231.75 533.367 232.744 532.367 233.97 532.367C235.196 532.367 236.19 533.367 236.19 534.6Z" fill="url(#paint74_linear_2_191)"/>
<path d="M236.19 652.507C236.19 653.74 235.196 654.74 233.97 654.74C232.744 654.74 231.75 653.74 231.75 652.507C231.75 651.273 232.744 650.274 233.97 650.274C235.196 650.274 236.19 651.273 236.19 652.507Z" fill="url(#paint75_linear_2_191)"/>
<path d="M236.19 711.46C236.19 712.693 235.196 713.693 233.97 713.693C232.744 713.693 231.75 712.693 231.75 711.46C231.75 710.227 232.744 709.227 233.97 709.227C235.196 709.227 236.19 710.227 236.19 711.46Z" fill="url(#paint76_linear_2_191)"/>
<path d="M236.19 829.814C236.19 831.047 235.196 832.047 233.97 832.047C232.744 832.047 231.75 831.047 231.75 829.814C231.75 828.58 232.744 827.58 233.97 827.58C235.196 827.58 236.19 828.58 236.19 829.814Z" fill="url(#paint77_linear_2_191)"/>
<path d="M236.19 770.86C236.19 772.093 235.196 773.093 233.97 773.093C232.744 773.093 231.75 772.093 231.75 770.86C231.75 769.627 232.744 768.627 233.97 768.627C235.196 768.627 236.19 769.627 236.19 770.86Z" fill="url(#paint78_linear_2_191)"/>
<path d="M236.19 888.767C236.19 890 235.196 891 233.97 891C232.744 891 231.75 890 231.75 888.767C231.75 887.534 232.744 886.534 233.97 886.534C235.196 886.534 236.19 887.534 236.19 888.767Z" fill="url(#paint79_linear_2_191)"/>
<path d="M294.793 2.23308C294.793 3.46638 293.799 4.46617 292.573 4.46617C291.347 4.46617 290.353 3.46638 290.353 2.23308C290.353 0.999785 291.347 0 292.573 0C293.799 0 294.793 0.999785 294.793 2.23308Z" fill="url(#paint80_linear_2_191)"/>
<path d="M294.793 120.586C294.793 121.82 293.799 122.82 292.573 122.82C291.347 122.82 290.353 121.82 290.353 120.586C290.353 119.353 291.347 118.353 292.573 118.353C293.799 118.353 294.793 119.353 294.793 120.586Z" fill="url(#paint81_linear_2_191)"/>
<path d="M294.793 61.6331C294.793 62.8664 293.799 63.8662 292.573 63.8662C291.347 63.8662 290.353 62.8664 290.353 61.6331C290.353 60.3998 291.347 59.4 292.573 59.4C293.799 59.4 294.793 60.3998 294.793 61.6331Z" fill="url(#paint82_linear_2_191)"/>
<path d="M294.793 179.54C294.793 180.773 293.799 181.773 292.573 181.773C291.347 181.773 290.353 180.773 290.353 179.54C290.353 178.307 291.347 177.307 292.573 177.307C293.799 177.307 294.793 178.307 294.793 179.54Z" fill="url(#paint83_linear_2_191)"/>
<path d="M294.793 238.493C294.793 239.727 293.799 240.726 292.573 240.726C291.347 240.726 290.353 239.727 290.353 238.493C290.353 237.26 291.347 236.26 292.573 236.26C293.799 236.26 294.793 237.26 294.793 238.493Z" fill="url(#paint84_linear_2_191)"/>
<path d="M294.793 356.847C294.793 358.08 293.799 359.08 292.573 359.08C291.347 359.08 290.353 358.08 290.353 356.847C290.353 355.613 291.347 354.614 292.573 354.614C293.799 354.614 294.793 355.613 294.793 356.847Z" fill="url(#paint85_linear_2_191)"/>
<path d="M294.793 297.893C294.793 299.127 293.799 300.126 292.573 300.126C291.347 300.126 290.353 299.127 290.353 297.893C290.353 296.66 291.347 295.66 292.573 295.66C293.799 295.66 294.793 296.66 294.793 297.893Z" fill="url(#paint86_linear_2_191)"/>
<path d="M294.793 415.8C294.793 417.033 293.799 418.033 292.573 418.033C291.347 418.033 290.353 417.033 290.353 415.8C290.353 414.567 291.347 413.567 292.573 413.567C293.799 413.567 294.793 414.567 294.793 415.8Z" fill="url(#paint87_linear_2_191)"/>
<path d="M294.793 475.2C294.793 476.433 293.799 477.433 292.573 477.433C291.347 477.433 290.353 476.433 290.353 475.2C290.353 473.967 291.347 472.967 292.573 472.967C293.799 472.967 294.793 473.967 294.793 475.2Z" fill="url(#paint88_linear_2_191)"/>
<path d="M294.793 593.553C294.793 594.787 293.799 595.786 292.573 595.786C291.347 595.786 290.353 594.787 290.353 593.553C290.353 592.32 291.347 591.32 292.573 591.32C293.799 591.32 294.793 592.32 294.793 593.553Z" fill="url(#paint89_linear_2_191)"/>
<path d="M294.793 534.6C294.793 535.833 293.799 536.833 292.573 536.833C291.347 536.833 290.353 535.833 290.353 534.6C290.353 533.367 291.347 532.367 292.573 532.367C293.799 532.367 294.793 533.367 294.793 534.6Z" fill="url(#paint90_linear_2_191)"/>
<path d="M294.793 652.507C294.793 653.74 293.799 654.74 292.573 654.74C291.347 654.74 290.353 653.74 290.353 652.507C290.353 651.273 291.347 650.274 292.573 650.274C293.799 650.274 294.793 651.273 294.793 652.507Z" fill="url(#paint91_linear_2_191)"/>
<path d="M294.793 711.46C294.793 712.693 293.799 713.693 292.573 713.693C291.347 713.693 290.353 712.693 290.353 711.46C290.353 710.227 291.347 709.227 292.573 709.227C293.799 709.227 294.793 710.227 294.793 711.46Z" fill="url(#paint92_linear_2_191)"/>
<path d="M294.793 829.814C294.793 831.047 293.799 832.047 292.573 832.047C291.347 832.047 290.353 831.047 290.353 829.814C290.353 828.58 291.347 827.58 292.573 827.58C293.799 827.58 294.793 828.58 294.793 829.814Z" fill="url(#paint93_linear_2_191)"/>
<path d="M294.793 770.86C294.793 772.093 293.799 773.093 292.573 773.093C291.347 773.093 290.353 772.093 290.353 770.86C290.353 769.627 291.347 768.627 292.573 768.627C293.799 768.627 294.793 769.627 294.793 770.86Z" fill="url(#paint94_linear_2_191)"/>
<path d="M294.793 888.767C294.793 890 293.799 891 292.573 891C291.347 891 290.353 890 290.353 888.767C290.353 887.534 291.347 886.534 292.573 886.534C293.799 886.534 294.793 887.534 294.793 888.767Z" fill="url(#paint95_linear_2_191)"/>
<path d="M353.397 2.23308C353.397 3.46638 352.403 4.46617 351.177 4.46617C349.951 4.46617 348.957 3.46638 348.957 2.23308C348.957 0.999785 349.951 0 351.177 0C352.403 0 353.397 0.999785 353.397 2.23308Z" fill="url(#paint96_linear_2_191)"/>
<path d="M353.397 120.586C353.397 121.82 352.403 122.82 351.177 122.82C349.951 122.82 348.957 121.82 348.957 120.586C348.957 119.353 349.951 118.353 351.177 118.353C352.403 118.353 353.397 119.353 353.397 120.586Z" fill="url(#paint97_linear_2_191)"/>
<path d="M353.397 61.6331C353.397 62.8664 352.403 63.8662 351.177 63.8662C349.951 63.8662 348.957 62.8664 348.957 61.6331C348.957 60.3998 349.951 59.4 351.177 59.4C352.403 59.4 353.397 60.3998 353.397 61.6331Z" fill="url(#paint98_linear_2_191)"/>
<path d="M353.397 179.54C353.397 180.773 352.403 181.773 351.177 181.773C349.951 181.773 348.957 180.773 348.957 179.54C348.957 178.307 349.951 177.307 351.177 177.307C352.403 177.307 353.397 178.307 353.397 179.54Z" fill="url(#paint99_linear_2_191)"/>
<path d="M353.397 238.493C353.397 239.727 352.403 240.726 351.177 240.726C349.951 240.726 348.957 239.727 348.957 238.493C348.957 237.26 349.951 236.26 351.177 236.26C352.403 236.26 353.397 237.26 353.397 238.493Z" fill="url(#paint100_linear_2_191)"/>
<path d="M353.397 356.847C353.397 358.08 352.403 359.08 351.177 359.08C349.951 359.08 348.957 358.08 348.957 356.847C348.957 355.613 349.951 354.614 351.177 354.614C352.403 354.614 353.397 355.613 353.397 356.847Z" fill="url(#paint101_linear_2_191)"/>
<path d="M353.397 297.893C353.397 299.127 352.403 300.126 351.177 300.126C349.951 300.126 348.957 299.127 348.957 297.893C348.957 296.66 349.951 295.66 351.177 295.66C352.403 295.66 353.397 296.66 353.397 297.893Z" fill="url(#paint102_linear_2_191)"/>
<path d="M353.397 415.8C353.397 417.033 352.403 418.033 351.177 418.033C349.951 418.033 348.957 417.033 348.957 415.8C348.957 414.567 349.951 413.567 351.177 413.567C352.403 413.567 353.397 414.567 353.397 415.8Z" fill="url(#paint103_linear_2_191)"/>
<path d="M353.397 475.2C353.397 476.433 352.403 477.433 351.177 477.433C349.951 477.433 348.957 476.433 348.957 475.2C348.957 473.967 349.951 472.967 351.177 472.967C352.403 472.967 353.397 473.967 353.397 475.2Z" fill="url(#paint104_linear_2_191)"/>
<path d="M353.397 593.553C353.397 594.787 352.403 595.786 351.177 595.786C349.951 595.786 348.957 594.787 348.957 593.553C348.957 592.32 349.951 591.32 351.177 591.32C352.403 591.32 353.397 592.32 353.397 593.553Z" fill="url(#paint105_linear_2_191)"/>
<path d="M353.397 534.6C353.397 535.833 352.403 536.833 351.177 536.833C349.951 536.833 348.957 535.833 348.957 534.6C348.957 533.367 349.951 532.367 351.177 532.367C352.403 532.367 353.397 533.367 353.397 534.6Z" fill="url(#paint106_linear_2_191)"/>
<path d="M353.397 652.507C353.397 653.74 352.403 654.74 351.177 654.74C349.951 654.74 348.957 653.74 348.957 652.507C348.957 651.273 349.951 650.274 351.177 650.274C352.403 650.274 353.397 651.273 353.397 652.507Z" fill="url(#paint107_linear_2_191)"/>
<path d="M353.397 711.46C353.397 712.693 352.403 713.693 351.177 713.693C349.951 713.693 348.957 712.693 348.957 711.46C348.957 710.227 349.951 709.227 351.177 709.227C352.403 709.227 353.397 710.227 353.397 711.46Z" fill="url(#paint108_linear_2_191)"/>
<path d="M353.397 829.814C353.397 831.047 352.403 832.047 351.177 832.047C349.951 832.047 348.957 831.047 348.957 829.814C348.957 828.58 349.951 827.58 351.177 827.58C352.403 827.58 353.397 828.58 353.397 829.814Z" fill="url(#paint109_linear_2_191)"/>
<path d="M353.397 770.86C353.397 772.093 352.403 773.093 351.177 773.093C349.951 773.093 348.957 772.093 348.957 770.86C348.957 769.627 349.951 768.627 351.177 768.627C352.403 768.627 353.397 769.627 353.397 770.86Z" fill="url(#paint110_linear_2_191)"/>
<path d="M353.397 888.767C353.397 890 352.403 891 351.177 891C349.951 891 348.957 890 348.957 888.767C348.957 887.534 349.951 886.534 351.177 886.534C352.403 886.534 353.397 887.534 353.397 888.767Z" fill="url(#paint111_linear_2_191)"/>
<path d="M412 2.23308C412 3.46638 411.006 4.46617 409.78 4.46617C408.554 4.46617 407.56 3.46638 407.56 2.23308C407.56 0.999785 408.554 0 409.78 0C411.006 0 412 0.999785 412 2.23308Z" fill="url(#paint112_linear_2_191)"/>
<path d="M412 120.586C412 121.82 411.006 122.82 409.78 122.82C408.554 122.82 407.56 121.82 407.56 120.586C407.56 119.353 408.554 118.353 409.78 118.353C411.006 118.353 412 119.353 412 120.586Z" fill="url(#paint113_linear_2_191)"/>
<path d="M412 61.6331C412 62.8664 411.006 63.8662 409.78 63.8662C408.554 63.8662 407.56 62.8664 407.56 61.6331C407.56 60.3998 408.554 59.4 409.78 59.4C411.006 59.4 412 60.3998 412 61.6331Z" fill="url(#paint114_linear_2_191)"/>
<path d="M412 179.54C412 180.773 411.006 181.773 409.78 181.773C408.554 181.773 407.56 180.773 407.56 179.54C407.56 178.307 408.554 177.307 409.78 177.307C411.006 177.307 412 178.307 412 179.54Z" fill="url(#paint115_linear_2_191)"/>
<path d="M412 238.493C412 239.727 411.006 240.726 409.78 240.726C408.554 240.726 407.56 239.727 407.56 238.493C407.56 237.26 408.554 236.26 409.78 236.26C411.006 236.26 412 237.26 412 238.493Z" fill="url(#paint116_linear_2_191)"/>
<path d="M412 356.847C412 358.08 411.006 359.08 409.78 359.08C408.554 359.08 407.56 358.08 407.56 356.847C407.56 355.613 408.554 354.614 409.78 354.614C411.006 354.614 412 355.613 412 356.847Z" fill="url(#paint117_linear_2_191)"/>
<path d="M412 297.893C412 299.127 411.006 300.126 409.78 300.126C408.554 300.126 407.56 299.127 407.56 297.893C407.56 296.66 408.554 295.66 409.78 295.66C411.006 295.66 412 296.66 412 297.893Z" fill="url(#paint118_linear_2_191)"/>
<path d="M412 415.8C412 417.033 411.006 418.033 409.78 418.033C408.554 418.033 407.56 417.033 407.56 415.8C407.56 414.567 408.554 413.567 409.78 413.567C411.006 413.567 412 414.567 412 415.8Z" fill="url(#paint119_linear_2_191)"/>
<path d="M412 475.2C412 476.433 411.006 477.433 409.78 477.433C408.554 477.433 407.56 476.433 407.56 475.2C407.56 473.967 408.554 472.967 409.78 472.967C411.006 472.967 412 473.967 412 475.2Z" fill="url(#paint120_linear_2_191)"/>
<path d="M412 593.553C412 594.787 411.006 595.786 409.78 595.786C408.554 595.786 407.56 594.787 407.56 593.553C407.56 592.32 408.554 591.32 409.78 591.32C411.006 591.32 412 592.32 412 593.553Z" fill="url(#paint121_linear_2_191)"/>
<path d="M412 534.6C412 535.833 411.006 536.833 409.78 536.833C408.554 536.833 407.56 535.833 407.56 534.6C407.56 533.367 408.554 532.367 409.78 532.367C411.006 532.367 412 533.367 412 534.6Z" fill="url(#paint122_linear_2_191)"/>
<path d="M412 652.507C412 653.74 411.006 654.74 409.78 654.74C408.554 654.74 407.56 653.74 407.56 652.507C407.56 651.273 408.554 650.274 409.78 650.274C411.006 650.274 412 651.273 412 652.507Z" fill="url(#paint123_linear_2_191)"/>
<path d="M412 711.46C412 712.693 411.006 713.693 409.78 713.693C408.554 713.693 407.56 712.693 407.56 711.46C407.56 710.227 408.554 709.227 409.78 709.227C411.006 709.227 412 710.227 412 711.46Z" fill="url(#paint124_linear_2_191)"/>
<path d="M412 829.814C412 831.047 411.006 832.047 409.78 832.047C408.554 832.047 407.56 831.047 407.56 829.814C407.56 828.58 408.554 827.58 409.78 827.58C411.006 827.58 412 828.58 412 829.814Z" fill="url(#paint125_linear_2_191)"/>
<path d="M412 770.86C412 772.093 411.006 773.093 409.78 773.093C408.554 773.093 407.56 772.093 407.56 770.86C407.56 769.627 408.554 768.627 409.78 768.627C411.006 768.627 412 769.627 412 770.86Z" fill="url(#paint126_linear_2_191)"/>
<path d="M412 888.767C412 890 411.006 891 409.78 891C408.554 891 407.56 890 407.56 888.767C407.56 887.534 408.554 886.534 409.78 886.534C411.006 886.534 412 887.534 412 888.767Z" fill="url(#paint127_linear_2_191)"/>
<defs>
<linearGradient id="paint0_linear_2_191" x1="996.5" y1="-665.5" x2="82.4001" y2="689.77" gradientUnits="userSpaceOnUse">
<stop stop-color="#DEDEDE"/>
<stop offset="1" stop-color="#F6F7FB"/>
</linearGradient>
<linearGradient id="paint1_linear_2_191" x1="996.5" y1="-665.5" x2="82.4001" y2="689.77" gradientUnits="userSpaceOnUse">
<stop stop-color="#DEDEDE"/>
<stop offset="1" stop-color="#F6F7FB"/>
</linearGradient>
<linearGradient id="paint2_linear_2_191" x1="996.5" y1="-665.5" x2="82.4001" y2="689.77" gradientUnits="userSpaceOnUse">
<stop stop-color="#DEDEDE"/>
<stop offset="1" stop-color="#F6F7FB"/>
</linearGradient>
<linearGradient id="paint3_linear_2_191" x1="996.5" y1="-665.5" x2="82.4001" y2="689.77" gradientUnits="userSpaceOnUse">
<stop stop-color="#DEDEDE"/>
<stop offset="1" stop-color="#F6F7FB"/>
</linearGradient>
<linearGradient id="paint4_linear_2_191" x1="996.5" y1="-665.5" x2="82.4001" y2="689.77" gradientUnits="userSpaceOnUse">
<stop stop-color="#DEDEDE"/>
<stop offset="1" stop-color="#F6F7FB"/>
</linearGradient>
<linearGradient id="paint5_linear_2_191" x1="996.5" y1="-665.5" x2="82.4001" y2="689.77" gradientUnits="userSpaceOnUse">
<stop stop-color="#DEDEDE"/>
<stop offset="1" stop-color="#F6F7FB"/>
</linearGradient>
<linearGradient id="paint6_linear_2_191" x1="996.5" y1="-665.5" x2="82.4001" y2="689.77" gradientUnits="userSpaceOnUse">
<stop stop-color="#DEDEDE"/>
<stop offset="1" stop-color="#F6F7FB"/>
</linearGradient>
<linearGradient id="paint7_linear_2_191" x1="996.5" y1="-665.5" x2="82.4001" y2="689.77" gradientUnits="userSpaceOnUse">
<stop stop-color="#DEDEDE"/>
<stop offset="1" stop-color="#F6F7FB"/>
</linearGradient>
<linearGradient id="paint8_linear_2_191" x1="996.5" y1="-665.5" x2="82.4001" y2="689.77" gradientUnits="userSpaceOnUse">
<stop stop-color="#DEDEDE"/>
<stop offset="1" stop-color="#F6F7FB"/>
</linearGradient>
<linearGradient id="paint9_linear_2_191" x1="996.5" y1="-665.5" x2="82.4001" y2="689.77" gradientUnits="userSpaceOnUse">
<stop stop-color="#DEDEDE"/>
<stop offset="1" stop-color="#F6F7FB"/>
</linearGradient>
<linearGradient id="paint10_linear_2_191" x1="996.5" y1="-665.5" x2="82.4001" y2="689.77" gradientUnits="userSpaceOnUse">
<stop stop-color="#DEDEDE"/>
<stop offset="1" stop-color="#F6F7FB"/>
</linearGradient>
<linearGradient id="paint11_linear_2_191" x1="996.5" y1="-665.5" x2="82.4001" y2="689.77" gradientUnits="userSpaceOnUse">
<stop stop-color="#DEDEDE"/>
<stop offset="1" stop-color="#F6F7FB"/>
</linearGradient>
<linearGradient id="paint12_linear_2_191" x1="996.5" y1="-665.5" x2="82.4001" y2="689.77" gradientUnits="userSpaceOnUse">
<stop stop-color="#DEDEDE"/>
<stop offset="1" stop-color="#F6F7FB"/>
</linearGradient>
<linearGradient id="paint13_linear_2_191" x1="996.5" y1="-665.5" x2="82.4001" y2="689.77" gradientUnits="userSpaceOnUse">
<stop stop-color="#DEDEDE"/>
<stop offset="1" stop-color="#F6F7FB"/>
</linearGradient>
<linearGradient id="paint14_linear_2_191" x1="996.5" y1="-665.5" x2="82.4001" y2="689.77" gradientUnits="userSpaceOnUse">
<stop stop-color="#DEDEDE"/>
<stop offset="1" stop-color="#F6F7FB"/>
</linearGradient>
<linearGradient id="paint15_linear_2_191" x1="996.5" y1="-665.5" x2="82.4001" y2="689.77" gradientUnits="userSpaceOnUse">
<stop stop-color="#DEDEDE"/>
<stop offset="1" stop-color="#F6F7FB"/>
</linearGradient>
<linearGradient id="paint16_linear_2_191" x1="996.5" y1="-665.5" x2="82.4001" y2="689.77" gradientUnits="userSpaceOnUse">
<stop stop-color="#DEDEDE"/>
<stop offset="1" stop-color="#F6F7FB"/>
</linearGradient>
<linearGradient id="paint17_linear_2_191" x1="996.5" y1="-665.5" x2="82.4001" y2="689.77" gradientUnits="userSpaceOnUse">
<stop stop-color="#DEDEDE"/>
<stop offset="1" stop-color="#F6F7FB"/>
</linearGradient>
<linearGradient id="paint18_linear_2_191" x1="996.5" y1="-665.5" x2="82.4001" y2="689.77" gradientUnits="userSpaceOnUse">
<stop stop-color="#DEDEDE"/>
<stop offset="1" stop-color="#F6F7FB"/>
</linearGradient>
<linearGradient id="paint19_linear_2_191" x1="996.5" y1="-665.5" x2="82.4001" y2="689.77" gradientUnits="userSpaceOnUse">
<stop stop-color="#DEDEDE"/>
<stop offset="1" stop-color="#F6F7FB"/>
</linearGradient>
<linearGradient id="paint20_linear_2_191" x1="996.5" y1="-665.5" x2="82.4001" y2="689.77" gradientUnits="userSpaceOnUse">
<stop stop-color="#DEDEDE"/>
<stop offset="1" stop-color="#F6F7FB"/>
</linearGradient>
<linearGradient id="paint21_linear_2_191" x1="996.5" y1="-665.5" x2="82.4001" y2="689.77" gradientUnits="userSpaceOnUse">
<stop stop-color="#DEDEDE"/>
<stop offset="1" stop-color="#F6F7FB"/>
</linearGradient>
<linearGradient id="paint22_linear_2_191" x1="996.5" y1="-665.5" x2="82.4001" y2="689.77" gradientUnits="userSpaceOnUse">
<stop stop-color="#DEDEDE"/>
<stop offset="1" stop-color="#F6F7FB"/>
</linearGradient>
<linearGradient id="paint23_linear_2_191" x1="996.5" y1="-665.5" x2="82.4001" y2="689.77" gradientUnits="userSpaceOnUse">
<stop stop-color="#DEDEDE"/>
<stop offset="1" stop-color="#F6F7FB"/>
</linearGradient>
<linearGradient id="paint24_linear_2_191" x1="996.5" y1="-665.5" x2="82.4001" y2="689.77" gradientUnits="userSpaceOnUse">
<stop stop-color="#DEDEDE"/>
<stop offset="1" stop-color="#F6F7FB"/>
</linearGradient>
<linearGradient id="paint25_linear_2_191" x1="996.5" y1="-665.5" x2="82.4001" y2="689.77" gradientUnits="userSpaceOnUse">
<stop stop-color="#DEDEDE"/>
<stop offset="1" stop-color="#F6F7FB"/>
</linearGradient>
<linearGradient id="paint26_linear_2_191" x1="996.5" y1="-665.5" x2="82.4001" y2="689.77" gradientUnits="userSpaceOnUse">
<stop stop-color="#DEDEDE"/>
<stop offset="1" stop-color="#F6F7FB"/>
</linearGradient>
<linearGradient id="paint27_linear_2_191" x1="996.5" y1="-665.5" x2="82.4001" y2="689.77" gradientUnits="userSpaceOnUse">
<stop stop-color="#DEDEDE"/>
<stop offset="1" stop-color="#F6F7FB"/>
</linearGradient>
<linearGradient id="paint28_linear_2_191" x1="996.5" y1="-665.5" x2="82.4001" y2="689.77" gradientUnits="userSpaceOnUse">
<stop stop-color="#DEDEDE"/>
<stop offset="1" stop-color="#F6F7FB"/>
</linearGradient>
<linearGradient id="paint29_linear_2_191" x1="996.5" y1="-665.5" x2="82.4001" y2="689.77" gradientUnits="userSpaceOnUse">
<stop stop-color="#DEDEDE"/>
<stop offset="1" stop-color="#F6F7FB"/>
</linearGradient>
<linearGradient id="paint30_linear_2_191" x1="996.5" y1="-665.5" x2="82.4001" y2="689.77" gradientUnits="userSpaceOnUse">
<stop stop-color="#DEDEDE"/>
<stop offset="1" stop-color="#F6F7FB"/>
</linearGradient>
<linearGradient id="paint31_linear_2_191" x1="996.5" y1="-665.5" x2="82.4001" y2="689.77" gradientUnits="userSpaceOnUse">
<stop stop-color="#DEDEDE"/>
<stop offset="1" stop-color="#F6F7FB"/>
</linearGradient>
<linearGradient id="paint32_linear_2_191" x1="996.5" y1="-665.5" x2="82.4001" y2="689.77" gradientUnits="userSpaceOnUse">
<stop stop-color="#DEDEDE"/>
<stop offset="1" stop-color="#F6F7FB"/>
</linearGradient>
<linearGradient id="paint33_linear_2_191" x1="996.5" y1="-665.5" x2="82.4001" y2="689.77" gradientUnits="userSpaceOnUse">
<stop stop-color="#DEDEDE"/>
<stop offset="1" stop-color="#F6F7FB"/>
</linearGradient>
<linearGradient id="paint34_linear_2_191" x1="996.5" y1="-665.5" x2="82.4001" y2="689.77" gradientUnits="userSpaceOnUse">
<stop stop-color="#DEDEDE"/>
<stop offset="1" stop-color="#F6F7FB"/>
</linearGradient>
<linearGradient id="paint35_linear_2_191" x1="996.5" y1="-665.5" x2="82.4001" y2="689.77" gradientUnits="userSpaceOnUse">
<stop stop-color="#DEDEDE"/>
<stop offset="1" stop-color="#F6F7FB"/>
</linearGradient>
<linearGradient id="paint36_linear_2_191" x1="996.5" y1="-665.5" x2="82.4001" y2="689.77" gradientUnits="userSpaceOnUse">
<stop stop-color="#DEDEDE"/>
<stop offset="1" stop-color="#F6F7FB"/>
</linearGradient>
<linearGradient id="paint37_linear_2_191" x1="996.5" y1="-665.5" x2="82.4001" y2="689.77" gradientUnits="userSpaceOnUse">
<stop stop-color="#DEDEDE"/>
<stop offset="1" stop-color="#F6F7FB"/>
</linearGradient>
<linearGradient id="paint38_linear_2_191" x1="996.5" y1="-665.5" x2="82.4001" y2="689.77" gradientUnits="userSpaceOnUse">
<stop stop-color="#DEDEDE"/>
<stop offset="1" stop-color="#F6F7FB"/>
</linearGradient>
<linearGradient id="paint39_linear_2_191" x1="996.5" y1="-665.5" x2="82.4001" y2="689.77" gradientUnits="userSpaceOnUse">
<stop stop-color="#DEDEDE"/>
<stop offset="1" stop-color="#F6F7FB"/>
</linearGradient>
<linearGradient id="paint40_linear_2_191" x1="996.5" y1="-665.5" x2="82.4001" y2="689.77" gradientUnits="userSpaceOnUse">
<stop stop-color="#DEDEDE"/>
<stop offset="1" stop-color="#F6F7FB"/>
</linearGradient>
<linearGradient id="paint41_linear_2_191" x1="996.5" y1="-665.5" x2="82.4001" y2="689.77" gradientUnits="userSpaceOnUse">
<stop stop-color="#DEDEDE"/>
<stop offset="1" stop-color="#F6F7FB"/>
</linearGradient>
<linearGradient id="paint42_linear_2_191" x1="996.5" y1="-665.5" x2="82.4001" y2="689.77" gradientUnits="userSpaceOnUse">
<stop stop-color="#DEDEDE"/>
<stop offset="1" stop-color="#F6F7FB"/>
</linearGradient>
<linearGradient id="paint43_linear_2_191" x1="996.5" y1="-665.5" x2="82.4001" y2="689.77" gradientUnits="userSpaceOnUse">
<stop stop-color="#DEDEDE"/>
<stop offset="1" stop-color="#F6F7FB"/>
</linearGradient>
<linearGradient id="paint44_linear_2_191" x1="996.5" y1="-665.5" x2="82.4001" y2="689.77" gradientUnits="userSpaceOnUse">
<stop stop-color="#DEDEDE"/>
<stop offset="1" stop-color="#F6F7FB"/>
</linearGradient>
<linearGradient id="paint45_linear_2_191" x1="996.5" y1="-665.5" x2="82.4001" y2="689.77" gradientUnits="userSpaceOnUse">
<stop stop-color="#DEDEDE"/>
<stop offset="1" stop-color="#F6F7FB"/>
</linearGradient>
<linearGradient id="paint46_linear_2_191" x1="996.5" y1="-665.5" x2="82.4001" y2="689.77" gradientUnits="userSpaceOnUse">
<stop stop-color="#DEDEDE"/>
<stop offset="1" stop-color="#F6F7FB"/>
</linearGradient>
<linearGradient id="paint47_linear_2_191" x1="996.5" y1="-665.5" x2="82.4001" y2="689.77" gradientUnits="userSpaceOnUse">
<stop stop-color="#DEDEDE"/>
<stop offset="1" stop-color="#F6F7FB"/>
</linearGradient>
<linearGradient id="paint48_linear_2_191" x1="996.5" y1="-665.5" x2="82.4001" y2="689.77" gradientUnits="userSpaceOnUse">
<stop stop-color="#DEDEDE"/>
<stop offset="1" stop-color="#F6F7FB"/>
</linearGradient>
<linearGradient id="paint49_linear_2_191" x1="996.5" y1="-665.5" x2="82.4001" y2="689.77" gradientUnits="userSpaceOnUse">
<stop stop-color="#DEDEDE"/>
<stop offset="1" stop-color="#F6F7FB"/>
</linearGradient>
<linearGradient id="paint50_linear_2_191" x1="996.5" y1="-665.5" x2="82.4001" y2="689.77" gradientUnits="userSpaceOnUse">
<stop stop-color="#DEDEDE"/>
<stop offset="1" stop-color="#F6F7FB"/>
</linearGradient>
<linearGradient id="paint51_linear_2_191" x1="996.5" y1="-665.5" x2="82.4001" y2="689.77" gradientUnits="userSpaceOnUse">
<stop stop-color="#DEDEDE"/>
<stop offset="1" stop-color="#F6F7FB"/>
</linearGradient>
<linearGradient id="paint52_linear_2_191" x1="996.5" y1="-665.5" x2="82.4001" y2="689.77" gradientUnits="userSpaceOnUse">
<stop stop-color="#DEDEDE"/>
<stop offset="1" stop-color="#F6F7FB"/>
</linearGradient>
<linearGradient id="paint53_linear_2_191" x1="996.5" y1="-665.5" x2="82.4001" y2="689.77" gradientUnits="userSpaceOnUse">
<stop stop-color="#DEDEDE"/>
<stop offset="1" stop-color="#F6F7FB"/>
</linearGradient>
<linearGradient id="paint54_linear_2_191" x1="996.5" y1="-665.5" x2="82.4001" y2="689.77" gradientUnits="userSpaceOnUse">
<stop stop-color="#DEDEDE"/>
<stop offset="1" stop-color="#F6F7FB"/>
</linearGradient>
<linearGradient id="paint55_linear_2_191" x1="996.5" y1="-665.5" x2="82.4001" y2="689.77" gradientUnits="userSpaceOnUse">
<stop stop-color="#DEDEDE"/>
<stop offset="1" stop-color="#F6F7FB"/>
</linearGradient>
<linearGradient id="paint56_linear_2_191" x1="996.5" y1="-665.5" x2="82.4001" y2="689.77" gradientUnits="userSpaceOnUse">
<stop stop-color="#DEDEDE"/>
<stop offset="1" stop-color="#F6F7FB"/>
</linearGradient>
<linearGradient id="paint57_linear_2_191" x1="996.5" y1="-665.5" x2="82.4001" y2="689.77" gradientUnits="userSpaceOnUse">
<stop stop-color="#DEDEDE"/>
<stop offset="1" stop-color="#F6F7FB"/>
</linearGradient>
<linearGradient id="paint58_linear_2_191" x1="996.5" y1="-665.5" x2="82.4001" y2="689.77" gradientUnits="userSpaceOnUse">
<stop stop-color="#DEDEDE"/>
<stop offset="1" stop-color="#F6F7FB"/>
</linearGradient>
<linearGradient id="paint59_linear_2_191" x1="996.5" y1="-665.5" x2="82.4001" y2="689.77" gradientUnits="userSpaceOnUse">
<stop stop-color="#DEDEDE"/>
<stop offset="1" stop-color="#F6F7FB"/>
</linearGradient>
<linearGradient id="paint60_linear_2_191" x1="996.5" y1="-665.5" x2="82.4001" y2="689.77" gradientUnits="userSpaceOnUse">
<stop stop-color="#DEDEDE"/>
<stop offset="1" stop-color="#F6F7FB"/>
</linearGradient>
<linearGradient id="paint61_linear_2_191" x1="996.5" y1="-665.5" x2="82.4001" y2="689.77" gradientUnits="userSpaceOnUse">
<stop stop-color="#DEDEDE"/>
<stop offset="1" stop-color="#F6F7FB"/>
</linearGradient>
<linearGradient id="paint62_linear_2_191" x1="996.5" y1="-665.5" x2="82.4001" y2="689.77" gradientUnits="userSpaceOnUse">
<stop stop-color="#DEDEDE"/>
<stop offset="1" stop-color="#F6F7FB"/>
</linearGradient>
<linearGradient id="paint63_linear_2_191" x1="996.5" y1="-665.5" x2="82.4001" y2="689.77" gradientUnits="userSpaceOnUse">
<stop stop-color="#DEDEDE"/>
<stop offset="1" stop-color="#F6F7FB"/>
</linearGradient>
<linearGradient id="paint64_linear_2_191" x1="996.5" y1="-665.5" x2="82.4001" y2="689.77" gradientUnits="userSpaceOnUse">
<stop stop-color="#DEDEDE"/>
<stop offset="1" stop-color="#F6F7FB"/>
</linearGradient>
<linearGradient id="paint65_linear_2_191" x1="996.5" y1="-665.5" x2="82.4001" y2="689.77" gradientUnits="userSpaceOnUse">
<stop stop-color="#DEDEDE"/>
<stop offset="1" stop-color="#F6F7FB"/>
</linearGradient>
<linearGradient id="paint66_linear_2_191" x1="996.5" y1="-665.5" x2="82.4001" y2="689.77" gradientUnits="userSpaceOnUse">
<stop stop-color="#DEDEDE"/>
<stop offset="1" stop-color="#F6F7FB"/>
</linearGradient>
<linearGradient id="paint67_linear_2_191" x1="996.5" y1="-665.5" x2="82.4001" y2="689.77" gradientUnits="userSpaceOnUse">
<stop stop-color="#DEDEDE"/>
<stop offset="1" stop-color="#F6F7FB"/>
</linearGradient>
<linearGradient id="paint68_linear_2_191" x1="996.5" y1="-665.5" x2="82.4001" y2="689.77" gradientUnits="userSpaceOnUse">
<stop stop-color="#DEDEDE"/>
<stop offset="1" stop-color="#F6F7FB"/>
</linearGradient>
<linearGradient id="paint69_linear_2_191" x1="996.5" y1="-665.5" x2="82.4001" y2="689.77" gradientUnits="userSpaceOnUse">
<stop stop-color="#DEDEDE"/>
<stop offset="1" stop-color="#F6F7FB"/>
</linearGradient>
<linearGradient id="paint70_linear_2_191" x1="996.5" y1="-665.5" x2="82.4001" y2="689.77" gradientUnits="userSpaceOnUse">
<stop stop-color="#DEDEDE"/>
<stop offset="1" stop-color="#F6F7FB"/>
</linearGradient>
<linearGradient id="paint71_linear_2_191" x1="996.5" y1="-665.5" x2="82.4001" y2="689.77" gradientUnits="userSpaceOnUse">
<stop stop-color="#DEDEDE"/>
<stop offset="1" stop-color="#F6F7FB"/>
</linearGradient>
<linearGradient id="paint72_linear_2_191" x1="996.5" y1="-665.5" x2="82.4001" y2="689.77" gradientUnits="userSpaceOnUse">
<stop stop-color="#DEDEDE"/>
<stop offset="1" stop-color="#F6F7FB"/>
</linearGradient>
<linearGradient id="paint73_linear_2_191" x1="996.5" y1="-665.5" x2="82.4001" y2="689.77" gradientUnits="userSpaceOnUse">
<stop stop-color="#DEDEDE"/>
<stop offset="1" stop-color="#F6F7FB"/>
</linearGradient>
<linearGradient id="paint74_linear_2_191" x1="996.5" y1="-665.5" x2="82.4001" y2="689.77" gradientUnits="userSpaceOnUse">
<stop stop-color="#DEDEDE"/>
<stop offset="1" stop-color="#F6F7FB"/>
</linearGradient>
<linearGradient id="paint75_linear_2_191" x1="996.5" y1="-665.5" x2="82.4001" y2="689.77" gradientUnits="userSpaceOnUse">
<stop stop-color="#DEDEDE"/>
<stop offset="1" stop-color="#F6F7FB"/>
</linearGradient>
<linearGradient id="paint76_linear_2_191" x1="996.5" y1="-665.5" x2="82.4001" y2="689.77" gradientUnits="userSpaceOnUse">
<stop stop-color="#DEDEDE"/>
<stop offset="1" stop-color="#F6F7FB"/>
</linearGradient>
<linearGradient id="paint77_linear_2_191" x1="996.5" y1="-665.5" x2="82.4001" y2="689.77" gradientUnits="userSpaceOnUse">
<stop stop-color="#DEDEDE"/>
<stop offset="1" stop-color="#F6F7FB"/>
</linearGradient>
<linearGradient id="paint78_linear_2_191" x1="996.5" y1="-665.5" x2="82.4001" y2="689.77" gradientUnits="userSpaceOnUse">
<stop stop-color="#DEDEDE"/>
<stop offset="1" stop-color="#F6F7FB"/>
</linearGradient>
<linearGradient id="paint79_linear_2_191" x1="996.5" y1="-665.5" x2="82.4001" y2="689.77" gradientUnits="userSpaceOnUse">
<stop stop-color="#DEDEDE"/>
<stop offset="1" stop-color="#F6F7FB"/>
</linearGradient>
<linearGradient id="paint80_linear_2_191" x1="996.5" y1="-665.5" x2="82.4001" y2="689.77" gradientUnits="userSpaceOnUse">
<stop stop-color="#DEDEDE"/>
<stop offset="1" stop-color="#F6F7FB"/>
</linearGradient>
<linearGradient id="paint81_linear_2_191" x1="996.5" y1="-665.5" x2="82.4001" y2="689.77" gradientUnits="userSpaceOnUse">
<stop stop-color="#DEDEDE"/>
<stop offset="1" stop-color="#F6F7FB"/>
</linearGradient>
<linearGradient id="paint82_linear_2_191" x1="996.5" y1="-665.5" x2="82.4001" y2="689.77" gradientUnits="userSpaceOnUse">
<stop stop-color="#DEDEDE"/>
<stop offset="1" stop-color="#F6F7FB"/>
</linearGradient>
<linearGradient id="paint83_linear_2_191" x1="996.5" y1="-665.5" x2="82.4001" y2="689.77" gradientUnits="userSpaceOnUse">
<stop stop-color="#DEDEDE"/>
<stop offset="1" stop-color="#F6F7FB"/>
</linearGradient>
<linearGradient id="paint84_linear_2_191" x1="996.5" y1="-665.5" x2="82.4001" y2="689.77" gradientUnits="userSpaceOnUse">
<stop stop-color="#DEDEDE"/>
<stop offset="1" stop-color="#F6F7FB"/>
</linearGradient>
<linearGradient id="paint85_linear_2_191" x1="996.5" y1="-665.5" x2="82.4001" y2="689.77" gradientUnits="userSpaceOnUse">
<stop stop-color="#DEDEDE"/>
<stop offset="1" stop-color="#F6F7FB"/>
</linearGradient>
<linearGradient id="paint86_linear_2_191" x1="996.5" y1="-665.5" x2="82.4001" y2="689.77" gradientUnits="userSpaceOnUse">
<stop stop-color="#DEDEDE"/>
<stop offset="1" stop-color="#F6F7FB"/>
</linearGradient>
<linearGradient id="paint87_linear_2_191" x1="996.5" y1="-665.5" x2="82.4001" y2="689.77" gradientUnits="userSpaceOnUse">
<stop stop-color="#DEDEDE"/>
<stop offset="1" stop-color="#F6F7FB"/>
</linearGradient>
<linearGradient id="paint88_linear_2_191" x1="996.5" y1="-665.5" x2="82.4001" y2="689.77" gradientUnits="userSpaceOnUse">
<stop stop-color="#DEDEDE"/>
<stop offset="1" stop-color="#F6F7FB"/>
</linearGradient>
<linearGradient id="paint89_linear_2_191" x1="996.5" y1="-665.5" x2="82.4001" y2="689.77" gradientUnits="userSpaceOnUse">
<stop stop-color="#DEDEDE"/>
<stop offset="1" stop-color="#F6F7FB"/>
</linearGradient>
<linearGradient id="paint90_linear_2_191" x1="996.5" y1="-665.5" x2="82.4001" y2="689.77" gradientUnits="userSpaceOnUse">
<stop stop-color="#DEDEDE"/>
<stop offset="1" stop-color="#F6F7FB"/>
</linearGradient>
<linearGradient id="paint91_linear_2_191" x1="996.5" y1="-665.5" x2="82.4001" y2="689.77" gradientUnits="userSpaceOnUse">
<stop stop-color="#DEDEDE"/>
<stop offset="1" stop-color="#F6F7FB"/>
</linearGradient>
<linearGradient id="paint92_linear_2_191" x1="996.5" y1="-665.5" x2="82.4001" y2="689.77" gradientUnits="userSpaceOnUse">
<stop stop-color="#DEDEDE"/>
<stop offset="1" stop-color="#F6F7FB"/>
</linearGradient>
<linearGradient id="paint93_linear_2_191" x1="996.5" y1="-665.5" x2="82.4001" y2="689.77" gradientUnits="userSpaceOnUse">
<stop stop-color="#DEDEDE"/>
<stop offset="1" stop-color="#F6F7FB"/>
</linearGradient>
<linearGradient id="paint94_linear_2_191" x1="996.5" y1="-665.5" x2="82.4001" y2="689.77" gradientUnits="userSpaceOnUse">
<stop stop-color="#DEDEDE"/>
<stop offset="1" stop-color="#F6F7FB"/>
</linearGradient>
<linearGradient id="paint95_linear_2_191" x1="996.5" y1="-665.5" x2="82.4001" y2="689.77" gradientUnits="userSpaceOnUse">
<stop stop-color="#DEDEDE"/>
<stop offset="1" stop-color="#F6F7FB"/>
</linearGradient>
<linearGradient id="paint96_linear_2_191" x1="996.5" y1="-665.5" x2="82.4001" y2="689.77" gradientUnits="userSpaceOnUse">
<stop stop-color="#DEDEDE"/>
<stop offset="1" stop-color="#F6F7FB"/>
</linearGradient>
<linearGradient id="paint97_linear_2_191" x1="996.5" y1="-665.5" x2="82.4001" y2="689.77" gradientUnits="userSpaceOnUse">
<stop stop-color="#DEDEDE"/>
<stop offset="1" stop-color="#F6F7FB"/>
</linearGradient>
<linearGradient id="paint98_linear_2_191" x1="996.5" y1="-665.5" x2="82.4001" y2="689.77" gradientUnits="userSpaceOnUse">
<stop stop-color="#DEDEDE"/>
<stop offset="1" stop-color="#F6F7FB"/>
</linearGradient>
<linearGradient id="paint99_linear_2_191" x1="996.5" y1="-665.5" x2="82.4001" y2="689.77" gradientUnits="userSpaceOnUse">
<stop stop-color="#DEDEDE"/>
<stop offset="1" stop-color="#F6F7FB"/>
</linearGradient>
<linearGradient id="paint100_linear_2_191" x1="996.5" y1="-665.5" x2="82.4001" y2="689.77" gradientUnits="userSpaceOnUse">
<stop stop-color="#DEDEDE"/>
<stop offset="1" stop-color="#F6F7FB"/>
</linearGradient>
<linearGradient id="paint101_linear_2_191" x1="996.5" y1="-665.5" x2="82.4001" y2="689.77" gradientUnits="userSpaceOnUse">
<stop stop-color="#DEDEDE"/>
<stop offset="1" stop-color="#F6F7FB"/>
</linearGradient>
<linearGradient id="paint102_linear_2_191" x1="996.5" y1="-665.5" x2="82.4001" y2="689.77" gradientUnits="userSpaceOnUse">
<stop stop-color="#DEDEDE"/>
<stop offset="1" stop-color="#F6F7FB"/>
</linearGradient>
<linearGradient id="paint103_linear_2_191" x1="996.5" y1="-665.5" x2="82.4001" y2="689.77" gradientUnits="userSpaceOnUse">
<stop stop-color="#DEDEDE"/>
<stop offset="1" stop-color="#F6F7FB"/>
</linearGradient>
<linearGradient id="paint104_linear_2_191" x1="996.5" y1="-665.5" x2="82.4001" y2="689.77" gradientUnits="userSpaceOnUse">
<stop stop-color="#DEDEDE"/>
<stop offset="1" stop-color="#F6F7FB"/>
</linearGradient>
<linearGradient id="paint105_linear_2_191" x1="996.5" y1="-665.5" x2="82.4001" y2="689.77" gradientUnits="userSpaceOnUse">
<stop stop-color="#DEDEDE"/>
<stop offset="1" stop-color="#F6F7FB"/>
</linearGradient>
<linearGradient id="paint106_linear_2_191" x1="996.5" y1="-665.5" x2="82.4001" y2="689.77" gradientUnits="userSpaceOnUse">
<stop stop-color="#DEDEDE"/>
<stop offset="1" stop-color="#F6F7FB"/>
</linearGradient>
<linearGradient id="paint107_linear_2_191" x1="996.5" y1="-665.5" x2="82.4001" y2="689.77" gradientUnits="userSpaceOnUse">
<stop stop-color="#DEDEDE"/>
<stop offset="1" stop-color="#F6F7FB"/>
</linearGradient>
<linearGradient id="paint108_linear_2_191" x1="996.5" y1="-665.5" x2="82.4001" y2="689.77" gradientUnits="userSpaceOnUse">
<stop stop-color="#DEDEDE"/>
<stop offset="1" stop-color="#F6F7FB"/>
</linearGradient>
<linearGradient id="paint109_linear_2_191" x1="996.5" y1="-665.5" x2="82.4001" y2="689.77" gradientUnits="userSpaceOnUse">
<stop stop-color="#DEDEDE"/>
<stop offset="1" stop-color="#F6F7FB"/>
</linearGradient>
<linearGradient id="paint110_linear_2_191" x1="996.5" y1="-665.5" x2="82.4001" y2="689.77" gradientUnits="userSpaceOnUse">
<stop stop-color="#DEDEDE"/>
<stop offset="1" stop-color="#F6F7FB"/>
</linearGradient>
<linearGradient id="paint111_linear_2_191" x1="996.5" y1="-665.5" x2="82.4001" y2="689.77" gradientUnits="userSpaceOnUse">
<stop stop-color="#DEDEDE"/>
<stop offset="1" stop-color="#F6F7FB"/>
</linearGradient>
<linearGradient id="paint112_linear_2_191" x1="996.5" y1="-665.5" x2="82.4001" y2="689.77" gradientUnits="userSpaceOnUse">
<stop stop-color="#DEDEDE"/>
<stop offset="1" stop-color="#F6F7FB"/>
</linearGradient>
<linearGradient id="paint113_linear_2_191" x1="996.5" y1="-665.5" x2="82.4001" y2="689.77" gradientUnits="userSpaceOnUse">
<stop stop-color="#DEDEDE"/>
<stop offset="1" stop-color="#F6F7FB"/>
</linearGradient>
<linearGradient id="paint114_linear_2_191" x1="996.5" y1="-665.5" x2="82.4001" y2="689.77" gradientUnits="userSpaceOnUse">
<stop stop-color="#DEDEDE"/>
<stop offset="1" stop-color="#F6F7FB"/>
</linearGradient>
<linearGradient id="paint115_linear_2_191" x1="996.5" y1="-665.5" x2="82.4001" y2="689.77" gradientUnits="userSpaceOnUse">
<stop stop-color="#DEDEDE"/>
<stop offset="1" stop-color="#F6F7FB"/>
</linearGradient>
<linearGradient id="paint116_linear_2_191" x1="996.5" y1="-665.5" x2="82.4001" y2="689.77" gradientUnits="userSpaceOnUse">
<stop stop-color="#DEDEDE"/>
<stop offset="1" stop-color="#F6F7FB"/>
</linearGradient>
<linearGradient id="paint117_linear_2_191" x1="996.5" y1="-665.5" x2="82.4001" y2="689.77" gradientUnits="userSpaceOnUse">
<stop stop-color="#DEDEDE"/>
<stop offset="1" stop-color="#F6F7FB"/>
</linearGradient>
<linearGradient id="paint118_linear_2_191" x1="996.5" y1="-665.5" x2="82.4001" y2="689.77" gradientUnits="userSpaceOnUse">
<stop stop-color="#DEDEDE"/>
<stop offset="1" stop-color="#F6F7FB"/>
</linearGradient>
<linearGradient id="paint119_linear_2_191" x1="996.5" y1="-665.5" x2="82.4001" y2="689.77" gradientUnits="userSpaceOnUse">
<stop stop-color="#DEDEDE"/>
<stop offset="1" stop-color="#F6F7FB"/>
</linearGradient>
<linearGradient id="paint120_linear_2_191" x1="996.5" y1="-665.5" x2="82.4001" y2="689.77" gradientUnits="userSpaceOnUse">
<stop stop-color="#DEDEDE"/>
<stop offset="1" stop-color="#F6F7FB"/>
</linearGradient>
<linearGradient id="paint121_linear_2_191" x1="996.5" y1="-665.5" x2="82.4001" y2="689.77" gradientUnits="userSpaceOnUse">
<stop stop-color="#DEDEDE"/>
<stop offset="1" stop-color="#F6F7FB"/>
</linearGradient>
<linearGradient id="paint122_linear_2_191" x1="996.5" y1="-665.5" x2="82.4001" y2="689.77" gradientUnits="userSpaceOnUse">
<stop stop-color="#DEDEDE"/>
<stop offset="1" stop-color="#F6F7FB"/>
</linearGradient>
<linearGradient id="paint123_linear_2_191" x1="996.5" y1="-665.5" x2="82.4001" y2="689.77" gradientUnits="userSpaceOnUse">
<stop stop-color="#DEDEDE"/>
<stop offset="1" stop-color="#F6F7FB"/>
</linearGradient>
<linearGradient id="paint124_linear_2_191" x1="996.5" y1="-665.5" x2="82.4001" y2="689.77" gradientUnits="userSpaceOnUse">
<stop stop-color="#DEDEDE"/>
<stop offset="1" stop-color="#F6F7FB"/>
</linearGradient>
<linearGradient id="paint125_linear_2_191" x1="996.5" y1="-665.5" x2="82.4001" y2="689.77" gradientUnits="userSpaceOnUse">
<stop stop-color="#DEDEDE"/>
<stop offset="1" stop-color="#F6F7FB"/>
</linearGradient>
<linearGradient id="paint126_linear_2_191" x1="996.5" y1="-665.5" x2="82.4001" y2="689.77" gradientUnits="userSpaceOnUse">
<stop stop-color="#DEDEDE"/>
<stop offset="1" stop-color="#F6F7FB"/>
</linearGradient>
<linearGradient id="paint127_linear_2_191" x1="996.5" y1="-665.5" x2="82.4001" y2="689.77" gradientUnits="userSpaceOnUse">
<stop stop-color="#DEDEDE"/>
<stop offset="1" stop-color="#F6F7FB"/>
</linearGradient>
</defs>
</svg>
