<svg width="49" height="49" viewBox="0 0 49 49" fill="none" xmlns="http://www.w3.org/2000/svg">
<rect x="0.25" y="0.25" width="48.5" height="48.5" rx="24.25" fill="#676767" stroke="url(#paint0_linear_2007_108)" stroke-width="0.5"/>
<path d="M27.4749 14.5C28.3668 14.5 28.9784 14.4933 29.5657 14.6367C29.8199 14.6988 30.0682 14.7818 30.3079 14.8848C30.8653 15.1242 31.3373 15.4959 32.0188 16.0205C33.1954 16.9263 34.1359 17.6498 34.8274 18.2988C35.5283 18.9568 36.0608 19.6167 36.3411 20.4316C36.5682 21.0924 36.6534 21.7896 36.5911 22.4834C36.5138 23.3426 36.1503 24.1022 35.6223 24.8906C35.1028 25.6664 34.3577 26.5642 33.4299 27.6846L28.9924 33.0439C28.1587 34.0508 27.4645 34.8926 26.8254 35.4688C26.1619 36.067 25.4284 36.4999 24.5002 36.5C23.572 36.5 22.8386 36.067 22.175 35.4688C21.536 34.8926 20.8418 34.0509 20.0081 33.0439L15.5706 27.6846C14.6426 26.5639 13.8968 25.6665 13.3772 24.8906C12.8492 24.1022 12.4857 23.3426 12.4084 22.4834C12.3461 21.7896 12.4323 21.0924 12.6594 20.4316C12.9396 19.6168 13.4713 18.9567 14.1721 18.2988C14.8636 17.6498 15.8051 16.9263 16.9817 16.0205C17.663 15.496 18.1344 15.1242 18.6917 14.8848C18.9314 14.7818 19.1804 14.6988 19.4348 14.6367C20.0221 14.4934 20.6337 14.5 21.5256 14.5H27.4749Z" stroke="white" stroke-width="2"/>
<path d="M22.2778 21.6111H26.7223" stroke="white" stroke-width="2" stroke-linecap="round" stroke-linejoin="round"/>
<defs>
<linearGradient id="paint0_linear_2007_108" x1="-78.5" y1="-31" x2="125" y2="72" gradientUnits="userSpaceOnUse">
<stop stop-color="#C8C8C8"/>
<stop offset="1" stop-color="white"/>
</linearGradient>
</defs>
</svg>
