<svg width="49" height="49" viewBox="0 0 49 49" fill="none" xmlns="http://www.w3.org/2000/svg">
<rect x="0.25" y="0.25" width="48.5" height="48.5" rx="24.25" fill="white" stroke="url(#paint0_linear_2007_114)" stroke-width="0.5"/>
<path d="M24.4971 15.5C25.5603 15.5 26.328 16.299 26.7783 17.2109L28.1855 20.0498L28.1895 20.0576L28.2002 20.0752C28.2082 20.0869 28.2204 20.1021 28.2363 20.1201C28.2691 20.1571 28.3133 20.1977 28.3652 20.2363C28.4171 20.2749 28.469 20.3059 28.5146 20.3271C28.5367 20.3374 28.5553 20.344 28.5693 20.3486C28.5763 20.3509 28.5821 20.3526 28.5859 20.3535C28.5897 20.3545 28.5918 20.3545 28.5918 20.3545H28.5908L31.1426 20.7822H31.1436C32.1357 20.949 33.0873 21.458 33.4033 22.4492C33.7189 23.4397 33.2387 24.4068 32.5254 25.1211L32.5244 25.1201L30.5439 27.1182C30.525 27.1373 30.4649 27.2212 30.4229 27.3691C30.3826 27.5111 30.3856 27.6162 30.3926 27.6533L30.96 30.126L30.9609 30.127C31.2036 31.1888 31.1709 32.4372 30.2393 33.1221C29.3034 33.81 28.1035 33.4594 27.1699 32.9033L27.1689 32.9023L24.7773 31.4746C24.7539 31.4606 24.6567 31.4229 24.501 31.4229C24.3463 31.4229 24.2433 31.4601 24.2119 31.4785L21.8271 32.9023L21.8262 32.9014C20.8918 33.4601 19.6946 33.8059 18.7598 33.1182C17.8299 32.4337 17.7922 31.189 18.0361 30.126L18.6025 27.6572C18.61 27.6239 18.6159 27.5162 18.5742 27.3691C18.5322 27.2213 18.4721 27.1374 18.4531 27.1182L16.4688 25.1182C15.7605 24.404 15.2827 23.4384 15.5957 22.4502C15.91 21.4583 16.8604 20.9491 17.8535 20.7822L20.4053 20.3545C20.4083 20.3537 20.4132 20.3528 20.4199 20.3506C20.4333 20.3462 20.4516 20.3385 20.4736 20.3281C20.5187 20.307 20.571 20.2762 20.623 20.2373C20.675 20.1985 20.719 20.1574 20.752 20.1201C20.768 20.102 20.78 20.087 20.7881 20.0752C20.7949 20.0652 20.7981 20.059 20.7988 20.0576L20.8027 20.0498L22.2109 17.2109L22.2119 17.209C22.6661 16.298 23.4352 15.5001 24.4971 15.5Z" stroke="#262626" stroke-width="2" stroke-linecap="round" stroke-linejoin="round"/>
<defs>
<linearGradient id="paint0_linear_2007_114" x1="-78.5" y1="-31" x2="125" y2="72" gradientUnits="userSpaceOnUse">
<stop stop-color="#C8C8C8"/>
<stop offset="1" stop-color="white"/>
</linearGradient>
</defs>
</svg>
