<svg width="603" height="294" viewBox="0 0 603 294" fill="none" xmlns="http://www.w3.org/2000/svg">
<path d="M1.59398 290.832C2.47432 290.832 3.18797 291.541 3.18797 292.416C3.18797 293.291 2.47432 294 1.59398 294C0.713651 294 -3.10003e-08 293.291 -6.92411e-08 292.416C-1.07482e-07 291.541 0.713651 290.832 1.59398 290.832Z" fill="url(#paint0_linear_2_12)"/>
<path d="M86.0752 290.832C86.9555 290.832 87.6692 291.541 87.6692 292.416C87.6692 293.291 86.9555 294 86.0752 294C85.1949 294 84.4812 293.291 84.4812 292.416C84.4812 291.541 85.1949 290.832 86.0752 290.832Z" fill="url(#paint1_linear_2_12)"/>
<path d="M43.994 290.832C44.8743 290.832 45.588 291.541 45.588 292.416C45.588 293.291 44.8743 294 43.994 294C43.1137 294 42.4 293.291 42.4 292.416C42.4 291.541 43.1137 290.832 43.994 290.832Z" fill="url(#paint2_linear_2_12)"/>
<path d="M128.156 290.832C129.037 290.832 129.75 291.541 129.75 292.416C129.75 293.291 129.037 294 128.156 294C127.276 294 126.562 293.291 126.562 292.416C126.562 291.541 127.276 290.832 128.156 290.832Z" fill="url(#paint3_linear_2_12)"/>
<path d="M170.238 290.832C171.118 290.832 171.832 291.541 171.832 292.416C171.832 293.291 171.118 294 170.238 294C169.357 294 168.644 293.291 168.644 292.416C168.644 291.541 169.357 290.832 170.238 290.832Z" fill="url(#paint4_linear_2_12)"/>
<path d="M254.719 290.832C255.599 290.832 256.313 291.541 256.313 292.416C256.313 293.291 255.599 294 254.719 294C253.838 294 253.125 293.291 253.125 292.416C253.125 291.541 253.838 290.832 254.719 290.832Z" fill="url(#paint5_linear_2_12)"/>
<path d="M212.638 290.832C213.518 290.832 214.232 291.541 214.232 292.416C214.232 293.291 213.518 294 212.638 294C211.757 294 211.044 293.291 211.044 292.416C211.044 291.541 211.757 290.832 212.638 290.832Z" fill="url(#paint6_linear_2_12)"/>
<path d="M296.8 290.832C297.68 290.832 298.394 291.541 298.394 292.416C298.394 293.291 297.68 294 296.8 294C295.92 294 295.206 293.291 295.206 292.416C295.206 291.541 295.92 290.832 296.8 290.832Z" fill="url(#paint7_linear_2_12)"/>
<path d="M339.2 290.832C340.08 290.832 340.794 291.541 340.794 292.416C340.794 293.291 340.08 294 339.2 294C338.32 294 337.606 293.291 337.606 292.416C337.606 291.541 338.32 290.832 339.2 290.832Z" fill="url(#paint8_linear_2_12)"/>
<path d="M423.681 290.832C424.562 290.832 425.275 291.541 425.275 292.416C425.275 293.291 424.562 294 423.681 294C422.801 294 422.087 293.291 422.087 292.416C422.087 291.541 422.801 290.832 423.681 290.832Z" fill="url(#paint9_linear_2_12)"/>
<path d="M381.6 290.832C382.48 290.832 383.194 291.541 383.194 292.416C383.194 293.291 382.48 294 381.6 294C380.72 294 380.006 293.291 380.006 292.416C380.006 291.541 380.72 290.832 381.6 290.832Z" fill="url(#paint10_linear_2_12)"/>
<path d="M465.762 290.832C466.643 290.832 467.356 291.541 467.356 292.416C467.356 293.291 466.643 294 465.762 294C464.882 294 464.168 293.291 464.168 292.416C464.168 291.541 464.882 290.832 465.762 290.832Z" fill="url(#paint11_linear_2_12)"/>
<path d="M507.844 290.832C508.724 290.832 509.438 291.541 509.438 292.416C509.438 293.291 508.724 294 507.844 294C506.963 294 506.25 293.291 506.25 292.416C506.25 291.541 506.963 290.832 507.844 290.832Z" fill="url(#paint12_linear_2_12)"/>
<path d="M592.325 290.832C593.205 290.832 593.919 291.541 593.919 292.416C593.919 293.291 593.205 294 592.325 294C591.444 294 590.731 293.291 590.731 292.416C590.731 291.541 591.444 290.832 592.325 290.832Z" fill="url(#paint13_linear_2_12)"/>
<path d="M550.244 290.832C551.124 290.832 551.838 291.541 551.838 292.416C551.838 293.291 551.124 294 550.244 294C549.363 294 548.65 293.291 548.65 292.416C548.65 291.541 549.363 290.832 550.244 290.832Z" fill="url(#paint14_linear_2_12)"/>
<path d="M634.406 290.832C635.286 290.832 636 291.541 636 292.416C636 293.291 635.286 294 634.406 294C633.526 294 632.812 293.291 632.812 292.416C632.812 291.541 633.526 290.832 634.406 290.832Z" fill="url(#paint15_linear_2_12)"/>
<path d="M1.59398 249.013C2.47432 249.013 3.18797 249.722 3.18797 250.597C3.18797 251.472 2.47432 252.181 1.59398 252.181C0.71365 252.181 -1.85897e-06 251.472 -1.89721e-06 250.597C-1.93545e-06 249.722 0.713649 249.013 1.59398 249.013Z" fill="url(#paint16_linear_2_12)"/>
<path d="M86.0752 249.013C86.9555 249.013 87.6692 249.722 87.6692 250.597C87.6692 251.472 86.9555 252.181 86.0752 252.181C85.1949 252.181 84.4812 251.472 84.4812 250.597C84.4812 249.722 85.1949 249.013 86.0752 249.013Z" fill="url(#paint17_linear_2_12)"/>
<path d="M43.994 249.013C44.8743 249.013 45.588 249.722 45.588 250.597C45.588 251.472 44.8743 252.181 43.994 252.181C43.1136 252.181 42.4 251.472 42.4 250.597C42.4 249.722 43.1136 249.013 43.994 249.013Z" fill="url(#paint18_linear_2_12)"/>
<path d="M128.156 249.013C129.037 249.013 129.75 249.722 129.75 250.597C129.75 251.472 129.037 252.181 128.156 252.181C127.276 252.181 126.562 251.472 126.562 250.597C126.562 249.722 127.276 249.013 128.156 249.013Z" fill="url(#paint19_linear_2_12)"/>
<path d="M170.238 249.013C171.118 249.013 171.832 249.722 171.832 250.597C171.832 251.472 171.118 252.181 170.238 252.181C169.357 252.181 168.644 251.472 168.644 250.597C168.644 249.722 169.357 249.013 170.238 249.013Z" fill="url(#paint20_linear_2_12)"/>
<path d="M254.719 249.013C255.599 249.013 256.313 249.722 256.313 250.597C256.313 251.472 255.599 252.181 254.719 252.181C253.838 252.181 253.125 251.472 253.125 250.597C253.125 249.722 253.838 249.013 254.719 249.013Z" fill="url(#paint21_linear_2_12)"/>
<path d="M212.638 249.013C213.518 249.013 214.232 249.722 214.232 250.597C214.232 251.472 213.518 252.181 212.638 252.181C211.757 252.181 211.044 251.472 211.044 250.597C211.044 249.722 211.757 249.013 212.638 249.013Z" fill="url(#paint22_linear_2_12)"/>
<path d="M296.8 249.013C297.68 249.013 298.394 249.722 298.394 250.597C298.394 251.472 297.68 252.181 296.8 252.181C295.92 252.181 295.206 251.472 295.206 250.597C295.206 249.722 295.92 249.013 296.8 249.013Z" fill="url(#paint23_linear_2_12)"/>
<path d="M339.2 249.013C340.08 249.013 340.794 249.722 340.794 250.597C340.794 251.472 340.08 252.181 339.2 252.181C338.32 252.181 337.606 251.472 337.606 250.597C337.606 249.722 338.32 249.013 339.2 249.013Z" fill="url(#paint24_linear_2_12)"/>
<path d="M423.681 249.013C424.562 249.013 425.275 249.722 425.275 250.597C425.275 251.472 424.562 252.181 423.681 252.181C422.801 252.181 422.087 251.472 422.087 250.597C422.087 249.722 422.801 249.013 423.681 249.013Z" fill="url(#paint25_linear_2_12)"/>
<path d="M381.6 249.013C382.48 249.013 383.194 249.722 383.194 250.597C383.194 251.472 382.48 252.181 381.6 252.181C380.72 252.181 380.006 251.472 380.006 250.597C380.006 249.722 380.72 249.013 381.6 249.013Z" fill="url(#paint26_linear_2_12)"/>
<path d="M465.762 249.013C466.643 249.013 467.356 249.722 467.356 250.597C467.356 251.472 466.643 252.181 465.762 252.181C464.882 252.181 464.168 251.472 464.168 250.597C464.168 249.722 464.882 249.013 465.762 249.013Z" fill="url(#paint27_linear_2_12)"/>
<path d="M507.844 249.013C508.724 249.013 509.438 249.722 509.438 250.597C509.438 251.472 508.724 252.181 507.844 252.181C506.963 252.181 506.25 251.472 506.25 250.597C506.25 249.722 506.963 249.013 507.844 249.013Z" fill="url(#paint28_linear_2_12)"/>
<path d="M592.325 249.013C593.205 249.013 593.919 249.722 593.919 250.597C593.919 251.472 593.205 252.181 592.325 252.181C591.444 252.181 590.731 251.472 590.731 250.597C590.731 249.722 591.444 249.013 592.325 249.013Z" fill="url(#paint29_linear_2_12)"/>
<path d="M550.244 249.013C551.124 249.013 551.838 249.722 551.838 250.597C551.838 251.472 551.124 252.181 550.244 252.181C549.363 252.181 548.65 251.472 548.65 250.597C548.65 249.722 549.363 249.013 550.244 249.013Z" fill="url(#paint30_linear_2_12)"/>
<path d="M634.406 249.013C635.286 249.013 636 249.722 636 250.597C636 251.472 635.286 252.181 634.406 252.181C633.526 252.181 632.812 251.472 632.812 250.597C632.812 249.722 633.526 249.013 634.406 249.013Z" fill="url(#paint31_linear_2_12)"/>
<path d="M1.59398 207.194C2.47431 207.194 3.18797 207.903 3.18797 208.778C3.18797 209.653 2.47431 210.362 1.59398 210.362C0.713648 210.362 -3.68693e-06 209.653 -3.72517e-06 208.778C-3.76341e-06 207.903 0.713648 207.194 1.59398 207.194Z" fill="url(#paint32_linear_2_12)"/>
<path d="M86.0752 207.194C86.9555 207.194 87.6692 207.903 87.6692 208.778C87.6692 209.653 86.9555 210.362 86.0752 210.362C85.1949 210.362 84.4812 209.653 84.4812 208.778C84.4812 207.903 85.1949 207.194 86.0752 207.194Z" fill="url(#paint33_linear_2_12)"/>
<path d="M43.994 207.194C44.8743 207.194 45.588 207.903 45.588 208.778C45.588 209.653 44.8743 210.362 43.994 210.362C43.1136 210.362 42.4 209.653 42.4 208.778C42.4 207.903 43.1136 207.194 43.994 207.194Z" fill="url(#paint34_linear_2_12)"/>
<path d="M128.156 207.194C129.037 207.194 129.75 207.903 129.75 208.778C129.75 209.653 129.037 210.362 128.156 210.362C127.276 210.362 126.562 209.653 126.562 208.778C126.562 207.903 127.276 207.194 128.156 207.194Z" fill="url(#paint35_linear_2_12)"/>
<path d="M170.238 207.194C171.118 207.194 171.832 207.903 171.832 208.778C171.832 209.653 171.118 210.362 170.238 210.362C169.357 210.362 168.644 209.653 168.644 208.778C168.644 207.903 169.357 207.194 170.238 207.194Z" fill="url(#paint36_linear_2_12)"/>
<path d="M254.719 207.194C255.599 207.194 256.313 207.903 256.313 208.778C256.313 209.653 255.599 210.362 254.719 210.362C253.838 210.362 253.125 209.653 253.125 208.778C253.125 207.903 253.838 207.194 254.719 207.194Z" fill="url(#paint37_linear_2_12)"/>
<path d="M212.638 207.194C213.518 207.194 214.232 207.903 214.232 208.778C214.232 209.653 213.518 210.362 212.638 210.362C211.757 210.362 211.044 209.653 211.044 208.778C211.044 207.903 211.757 207.194 212.638 207.194Z" fill="url(#paint38_linear_2_12)"/>
<path d="M296.8 207.194C297.68 207.194 298.394 207.903 298.394 208.778C298.394 209.653 297.68 210.362 296.8 210.362C295.92 210.362 295.206 209.653 295.206 208.778C295.206 207.903 295.92 207.194 296.8 207.194Z" fill="url(#paint39_linear_2_12)"/>
<path d="M339.2 207.194C340.08 207.194 340.794 207.903 340.794 208.778C340.794 209.653 340.08 210.362 339.2 210.362C338.32 210.362 337.606 209.653 337.606 208.778C337.606 207.903 338.32 207.194 339.2 207.194Z" fill="url(#paint40_linear_2_12)"/>
<path d="M423.681 207.194C424.562 207.194 425.275 207.903 425.275 208.778C425.275 209.653 424.562 210.362 423.681 210.362C422.801 210.362 422.087 209.653 422.087 208.778C422.087 207.903 422.801 207.194 423.681 207.194Z" fill="url(#paint41_linear_2_12)"/>
<path d="M381.6 207.194C382.48 207.194 383.194 207.903 383.194 208.778C383.194 209.653 382.48 210.362 381.6 210.362C380.72 210.362 380.006 209.653 380.006 208.778C380.006 207.903 380.72 207.194 381.6 207.194Z" fill="url(#paint42_linear_2_12)"/>
<path d="M465.762 207.194C466.643 207.194 467.356 207.903 467.356 208.778C467.356 209.653 466.643 210.362 465.762 210.362C464.882 210.362 464.168 209.653 464.168 208.778C464.168 207.903 464.882 207.194 465.762 207.194Z" fill="url(#paint43_linear_2_12)"/>
<path d="M507.844 207.194C508.724 207.194 509.438 207.903 509.438 208.778C509.438 209.653 508.724 210.362 507.844 210.362C506.963 210.362 506.25 209.653 506.25 208.778C506.25 207.903 506.963 207.194 507.844 207.194Z" fill="url(#paint44_linear_2_12)"/>
<path d="M592.325 207.194C593.205 207.194 593.919 207.903 593.919 208.778C593.919 209.653 593.205 210.362 592.325 210.362C591.444 210.362 590.731 209.653 590.731 208.778C590.731 207.903 591.444 207.194 592.325 207.194Z" fill="url(#paint45_linear_2_12)"/>
<path d="M550.244 207.194C551.124 207.194 551.838 207.903 551.838 208.778C551.838 209.653 551.124 210.362 550.244 210.362C549.363 210.362 548.65 209.653 548.65 208.778C548.65 207.903 549.363 207.194 550.244 207.194Z" fill="url(#paint46_linear_2_12)"/>
<path d="M634.406 207.194C635.286 207.194 636 207.903 636 208.778C636 209.653 635.286 210.362 634.406 210.362C633.526 210.362 632.812 209.653 632.812 208.778C632.812 207.903 633.526 207.194 634.406 207.194Z" fill="url(#paint47_linear_2_12)"/>
<path d="M1.59398 165.375C2.47431 165.375 3.18796 166.084 3.18796 166.959C3.18796 167.834 2.47431 168.543 1.59398 168.543C0.713646 168.543 -5.5149e-06 167.834 -5.55314e-06 166.959C-5.59138e-06 166.084 0.713646 165.375 1.59398 165.375Z" fill="url(#paint48_linear_2_12)"/>
<path d="M86.0752 165.375C86.9555 165.375 87.6692 166.084 87.6692 166.959C87.6692 167.834 86.9555 168.543 86.0752 168.543C85.1948 168.543 84.4812 167.834 84.4812 166.959C84.4812 166.084 85.1948 165.375 86.0752 165.375Z" fill="url(#paint49_linear_2_12)"/>
<path d="M43.994 165.375C44.8743 165.375 45.588 166.084 45.588 166.959C45.588 167.834 44.8743 168.543 43.994 168.543C43.1136 168.543 42.4 167.834 42.4 166.959C42.4 166.084 43.1136 165.375 43.994 165.375Z" fill="url(#paint50_linear_2_12)"/>
<path d="M128.156 165.375C129.037 165.375 129.75 166.084 129.75 166.959C129.75 167.834 129.037 168.543 128.156 168.543C127.276 168.543 126.562 167.834 126.562 166.959C126.562 166.084 127.276 165.375 128.156 165.375Z" fill="url(#paint51_linear_2_12)"/>
<path d="M170.238 165.375C171.118 165.375 171.832 166.084 171.832 166.959C171.832 167.834 171.118 168.543 170.238 168.543C169.357 168.543 168.644 167.834 168.644 166.959C168.644 166.084 169.357 165.375 170.238 165.375Z" fill="url(#paint52_linear_2_12)"/>
<path d="M254.719 165.375C255.599 165.375 256.313 166.084 256.313 166.959C256.313 167.834 255.599 168.543 254.719 168.543C253.838 168.543 253.125 167.834 253.125 166.959C253.125 166.084 253.838 165.375 254.719 165.375Z" fill="url(#paint53_linear_2_12)"/>
<path d="M212.638 165.375C213.518 165.375 214.232 166.084 214.232 166.959C214.232 167.834 213.518 168.543 212.638 168.543C211.757 168.543 211.044 167.834 211.044 166.959C211.044 166.084 211.757 165.375 212.638 165.375Z" fill="url(#paint54_linear_2_12)"/>
<path d="M296.8 165.375C297.68 165.375 298.394 166.084 298.394 166.959C298.394 167.834 297.68 168.543 296.8 168.543C295.92 168.543 295.206 167.834 295.206 166.959C295.206 166.084 295.92 165.375 296.8 165.375Z" fill="url(#paint55_linear_2_12)"/>
<path d="M339.2 165.375C340.08 165.375 340.794 166.084 340.794 166.959C340.794 167.834 340.08 168.543 339.2 168.543C338.32 168.543 337.606 167.834 337.606 166.959C337.606 166.084 338.32 165.375 339.2 165.375Z" fill="url(#paint56_linear_2_12)"/>
<path d="M423.681 165.375C424.562 165.375 425.275 166.084 425.275 166.959C425.275 167.834 424.562 168.543 423.681 168.543C422.801 168.543 422.087 167.834 422.087 166.959C422.087 166.084 422.801 165.375 423.681 165.375Z" fill="url(#paint57_linear_2_12)"/>
<path d="M381.6 165.375C382.48 165.375 383.194 166.084 383.194 166.959C383.194 167.834 382.48 168.543 381.6 168.543C380.72 168.543 380.006 167.834 380.006 166.959C380.006 166.084 380.72 165.375 381.6 165.375Z" fill="url(#paint58_linear_2_12)"/>
<path d="M465.762 165.375C466.643 165.375 467.356 166.084 467.356 166.959C467.356 167.834 466.643 168.543 465.762 168.543C464.882 168.543 464.168 167.834 464.168 166.959C464.168 166.084 464.882 165.375 465.762 165.375Z" fill="url(#paint59_linear_2_12)"/>
<path d="M507.844 165.375C508.724 165.375 509.438 166.084 509.438 166.959C509.438 167.834 508.724 168.543 507.844 168.543C506.963 168.543 506.25 167.834 506.25 166.959C506.25 166.084 506.963 165.375 507.844 165.375Z" fill="url(#paint60_linear_2_12)"/>
<path d="M592.325 165.375C593.205 165.375 593.919 166.084 593.919 166.959C593.919 167.834 593.205 168.543 592.325 168.543C591.444 168.543 590.731 167.834 590.731 166.959C590.731 166.084 591.444 165.375 592.325 165.375Z" fill="url(#paint61_linear_2_12)"/>
<path d="M550.244 165.375C551.124 165.375 551.838 166.084 551.838 166.959C551.838 167.834 551.124 168.543 550.244 168.543C549.363 168.543 548.65 167.834 548.65 166.959C548.65 166.084 549.363 165.375 550.244 165.375Z" fill="url(#paint62_linear_2_12)"/>
<path d="M634.406 165.375C635.286 165.375 636 166.084 636 166.959C636 167.834 635.286 168.543 634.406 168.543C633.526 168.543 632.812 167.834 632.812 166.959C632.812 166.084 633.526 165.375 634.406 165.375Z" fill="url(#paint63_linear_2_12)"/>
<path d="M1.59398 125.457C2.47431 125.457 3.18796 126.166 3.18796 127.041C3.18796 127.916 2.47431 128.625 1.59398 128.625C0.713644 128.625 -7.25977e-06 127.916 -7.29801e-06 127.041C-7.33625e-06 126.166 0.713644 125.457 1.59398 125.457Z" fill="url(#paint64_linear_2_12)"/>
<path d="M86.0752 125.457C86.9555 125.457 87.6692 126.166 87.6692 127.041C87.6692 127.916 86.9555 128.625 86.0752 128.625C85.1948 128.625 84.4812 127.916 84.4812 127.041C84.4812 126.166 85.1948 125.457 86.0752 125.457Z" fill="url(#paint65_linear_2_12)"/>
<path d="M43.994 125.457C44.8743 125.457 45.588 126.166 45.588 127.041C45.588 127.916 44.8743 128.625 43.994 128.625C43.1136 128.625 42.4 127.916 42.4 127.041C42.4 126.166 43.1136 125.457 43.994 125.457Z" fill="url(#paint66_linear_2_12)"/>
<path d="M128.156 125.457C129.037 125.457 129.75 126.166 129.75 127.041C129.75 127.916 129.037 128.625 128.156 128.625C127.276 128.625 126.562 127.916 126.562 127.041C126.562 126.166 127.276 125.457 128.156 125.457Z" fill="url(#paint67_linear_2_12)"/>
<path d="M170.238 125.457C171.118 125.457 171.832 126.166 171.832 127.041C171.832 127.916 171.118 128.625 170.238 128.625C169.357 128.625 168.644 127.916 168.644 127.041C168.644 126.166 169.357 125.457 170.238 125.457Z" fill="url(#paint68_linear_2_12)"/>
<path d="M254.719 125.457C255.599 125.457 256.313 126.166 256.313 127.041C256.313 127.916 255.599 128.625 254.719 128.625C253.838 128.625 253.125 127.916 253.125 127.041C253.125 126.166 253.838 125.457 254.719 125.457Z" fill="url(#paint69_linear_2_12)"/>
<path d="M212.638 125.457C213.518 125.457 214.232 126.166 214.232 127.041C214.232 127.916 213.518 128.625 212.638 128.625C211.757 128.625 211.044 127.916 211.044 127.041C211.044 126.166 211.757 125.457 212.638 125.457Z" fill="url(#paint70_linear_2_12)"/>
<path d="M296.8 125.457C297.68 125.457 298.394 126.166 298.394 127.041C298.394 127.916 297.68 128.625 296.8 128.625C295.92 128.625 295.206 127.916 295.206 127.041C295.206 126.166 295.92 125.457 296.8 125.457Z" fill="url(#paint71_linear_2_12)"/>
<path d="M339.2 125.457C340.08 125.457 340.794 126.166 340.794 127.041C340.794 127.916 340.08 128.625 339.2 128.625C338.32 128.625 337.606 127.916 337.606 127.041C337.606 126.166 338.32 125.457 339.2 125.457Z" fill="url(#paint72_linear_2_12)"/>
<path d="M423.681 125.457C424.562 125.457 425.275 126.166 425.275 127.041C425.275 127.916 424.562 128.625 423.681 128.625C422.801 128.625 422.087 127.916 422.087 127.041C422.087 126.166 422.801 125.457 423.681 125.457Z" fill="url(#paint73_linear_2_12)"/>
<path d="M381.6 125.457C382.48 125.457 383.194 126.166 383.194 127.041C383.194 127.916 382.48 128.625 381.6 128.625C380.72 128.625 380.006 127.916 380.006 127.041C380.006 126.166 380.72 125.457 381.6 125.457Z" fill="url(#paint74_linear_2_12)"/>
<path d="M465.762 125.457C466.643 125.457 467.356 126.166 467.356 127.041C467.356 127.916 466.643 128.625 465.762 128.625C464.882 128.625 464.168 127.916 464.168 127.041C464.168 126.166 464.882 125.457 465.762 125.457Z" fill="url(#paint75_linear_2_12)"/>
<path d="M507.844 125.457C508.724 125.457 509.438 126.166 509.438 127.041C509.438 127.916 508.724 128.625 507.844 128.625C506.963 128.625 506.25 127.916 506.25 127.041C506.25 126.166 506.963 125.457 507.844 125.457Z" fill="url(#paint76_linear_2_12)"/>
<path d="M592.325 125.457C593.205 125.457 593.919 126.166 593.919 127.041C593.919 127.916 593.205 128.625 592.325 128.625C591.444 128.625 590.731 127.916 590.731 127.041C590.731 126.166 591.444 125.457 592.325 125.457Z" fill="url(#paint77_linear_2_12)"/>
<path d="M550.244 125.457C551.124 125.457 551.838 126.166 551.838 127.041C551.838 127.916 551.124 128.625 550.244 128.625C549.363 128.625 548.65 127.916 548.65 127.041C548.65 126.166 549.363 125.457 550.244 125.457Z" fill="url(#paint78_linear_2_12)"/>
<path d="M634.406 125.457C635.286 125.457 636 126.166 636 127.041C636 127.916 635.286 128.625 634.406 128.625C633.526 128.625 632.812 127.916 632.812 127.041C632.812 126.166 633.526 125.457 634.406 125.457Z" fill="url(#paint79_linear_2_12)"/>
<path d="M1.59398 83.638C2.47431 83.638 3.18796 84.3472 3.18796 85.222C3.18796 86.0969 2.47431 86.8061 1.59398 86.8061C0.713642 86.8061 -9.08774e-06 86.0969 -9.12598e-06 85.222C-9.16422e-06 84.3472 0.713642 83.638 1.59398 83.638Z" fill="url(#paint80_linear_2_12)"/>
<path d="M86.0752 83.638C86.9555 83.638 87.6692 84.3472 87.6692 85.222C87.6692 86.0969 86.9555 86.8061 86.0752 86.8061C85.1948 86.8061 84.4812 86.0969 84.4812 85.222C84.4812 84.3472 85.1948 83.638 86.0752 83.638Z" fill="url(#paint81_linear_2_12)"/>
<path d="M43.994 83.638C44.8743 83.638 45.588 84.3472 45.588 85.222C45.588 86.0969 44.8743 86.8061 43.994 86.8061C43.1136 86.8061 42.4 86.0969 42.4 85.222C42.4 84.3472 43.1136 83.638 43.994 83.638Z" fill="url(#paint82_linear_2_12)"/>
<path d="M128.156 83.638C129.037 83.638 129.75 84.3472 129.75 85.222C129.75 86.0969 129.037 86.8061 128.156 86.8061C127.276 86.8061 126.562 86.0969 126.562 85.222C126.562 84.3472 127.276 83.638 128.156 83.638Z" fill="url(#paint83_linear_2_12)"/>
<path d="M170.238 83.638C171.118 83.638 171.832 84.3472 171.832 85.222C171.832 86.0969 171.118 86.8061 170.238 86.8061C169.357 86.8061 168.644 86.0969 168.644 85.222C168.644 84.3472 169.357 83.638 170.238 83.638Z" fill="url(#paint84_linear_2_12)"/>
<path d="M254.719 83.638C255.599 83.638 256.313 84.3472 256.313 85.222C256.313 86.0969 255.599 86.806 254.719 86.806C253.838 86.806 253.125 86.0969 253.125 85.222C253.125 84.3472 253.838 83.638 254.719 83.638Z" fill="url(#paint85_linear_2_12)"/>
<path d="M212.638 83.638C213.518 83.638 214.232 84.3472 214.232 85.222C214.232 86.0969 213.518 86.8061 212.638 86.8061C211.757 86.8061 211.044 86.0969 211.044 85.222C211.044 84.3472 211.757 83.638 212.638 83.638Z" fill="url(#paint86_linear_2_12)"/>
<path d="M296.8 83.638C297.68 83.638 298.394 84.3472 298.394 85.222C298.394 86.0968 297.68 86.806 296.8 86.806C295.92 86.806 295.206 86.0968 295.206 85.222C295.206 84.3472 295.92 83.638 296.8 83.638Z" fill="url(#paint87_linear_2_12)"/>
<path d="M339.2 83.638C340.08 83.638 340.794 84.3472 340.794 85.222C340.794 86.0968 340.08 86.806 339.2 86.806C338.32 86.806 337.606 86.0968 337.606 85.222C337.606 84.3472 338.32 83.638 339.2 83.638Z" fill="url(#paint88_linear_2_12)"/>
<path d="M423.681 83.638C424.562 83.638 425.275 84.3471 425.275 85.222C425.275 86.0968 424.562 86.806 423.681 86.806C422.801 86.806 422.087 86.0968 422.087 85.222C422.087 84.3471 422.801 83.638 423.681 83.638Z" fill="url(#paint89_linear_2_12)"/>
<path d="M381.6 83.638C382.48 83.638 383.194 84.3472 383.194 85.222C383.194 86.0968 382.48 86.806 381.6 86.806C380.72 86.806 380.006 86.0968 380.006 85.222C380.006 84.3472 380.72 83.638 381.6 83.638Z" fill="url(#paint90_linear_2_12)"/>
<path d="M465.762 83.6379C466.643 83.6379 467.356 84.3471 467.356 85.222C467.356 86.0968 466.643 86.806 465.762 86.806C464.882 86.806 464.168 86.0968 464.168 85.222C464.168 84.3471 464.882 83.6379 465.762 83.6379Z" fill="url(#paint91_linear_2_12)"/>
<path d="M507.844 83.6379C508.724 83.6379 509.438 84.3471 509.438 85.222C509.438 86.0968 508.724 86.806 507.844 86.806C506.963 86.806 506.25 86.0968 506.25 85.222C506.25 84.3471 506.963 83.6379 507.844 83.6379Z" fill="url(#paint92_linear_2_12)"/>
<path d="M592.325 83.6379C593.205 83.6379 593.919 84.3471 593.919 85.222C593.919 86.0968 593.205 86.806 592.325 86.806C591.444 86.806 590.731 86.0968 590.731 85.222C590.731 84.3471 591.444 83.6379 592.325 83.6379Z" fill="url(#paint93_linear_2_12)"/>
<path d="M550.244 83.6379C551.124 83.6379 551.838 84.3471 551.838 85.222C551.838 86.0968 551.124 86.806 550.244 86.806C549.363 86.806 548.65 86.0968 548.65 85.222C548.65 84.3471 549.363 83.6379 550.244 83.6379Z" fill="url(#paint94_linear_2_12)"/>
<path d="M634.406 83.6379C635.286 83.6379 636 84.3471 636 85.222C636 86.0968 635.286 86.806 634.406 86.806C633.526 86.806 632.812 86.0968 632.812 85.222C632.812 84.3471 633.526 83.6379 634.406 83.6379Z" fill="url(#paint95_linear_2_12)"/>
<path d="M1.59397 41.819C2.47431 41.819 3.18796 42.5282 3.18796 43.403C3.18796 44.2779 2.47431 44.9871 1.59397 44.9871C0.71364 44.9871 -1.09157e-05 44.2779 -1.09539e-05 43.403C-1.09922e-05 42.5282 0.71364 41.819 1.59397 41.819Z" fill="url(#paint96_linear_2_12)"/>
<path d="M86.0752 41.819C86.9555 41.819 87.6692 42.5282 87.6692 43.403C87.6692 44.2779 86.9555 44.9871 86.0752 44.9871C85.1948 44.9871 84.4812 44.2779 84.4812 43.403C84.4812 42.5282 85.1948 41.819 86.0752 41.819Z" fill="url(#paint97_linear_2_12)"/>
<path d="M43.994 41.819C44.8743 41.819 45.588 42.5282 45.588 43.403C45.588 44.2779 44.8743 44.9871 43.994 44.9871C43.1136 44.9871 42.4 44.2779 42.4 43.403C42.4 42.5282 43.1136 41.819 43.994 41.819Z" fill="url(#paint98_linear_2_12)"/>
<path d="M128.156 41.819C129.037 41.819 129.75 42.5282 129.75 43.403C129.75 44.2779 129.037 44.9871 128.156 44.9871C127.276 44.9871 126.562 44.2779 126.562 43.403C126.562 42.5282 127.276 41.819 128.156 41.819Z" fill="url(#paint99_linear_2_12)"/>
<path d="M170.238 41.819C171.118 41.819 171.832 42.5282 171.832 43.403C171.832 44.2779 171.118 44.9871 170.238 44.9871C169.357 44.9871 168.644 44.2779 168.644 43.403C168.644 42.5282 169.357 41.819 170.238 41.819Z" fill="url(#paint100_linear_2_12)"/>
<path d="M254.719 41.819C255.599 41.819 256.313 42.5282 256.313 43.403C256.313 44.2779 255.599 44.9871 254.719 44.9871C253.838 44.9871 253.125 44.2779 253.125 43.403C253.125 42.5282 253.838 41.819 254.719 41.819Z" fill="url(#paint101_linear_2_12)"/>
<path d="M212.638 41.819C213.518 41.819 214.232 42.5282 214.232 43.403C214.232 44.2779 213.518 44.9871 212.638 44.9871C211.757 44.9871 211.044 44.2779 211.044 43.403C211.044 42.5282 211.757 41.819 212.638 41.819Z" fill="url(#paint102_linear_2_12)"/>
<path d="M296.8 41.819C297.68 41.819 298.394 42.5282 298.394 43.403C298.394 44.2779 297.68 44.9871 296.8 44.9871C295.92 44.9871 295.206 44.2779 295.206 43.403C295.206 42.5282 295.92 41.819 296.8 41.819Z" fill="url(#paint103_linear_2_12)"/>
<path d="M339.2 41.819C340.08 41.819 340.794 42.5282 340.794 43.403C340.794 44.2779 340.08 44.9871 339.2 44.9871C338.32 44.9871 337.606 44.2779 337.606 43.403C337.606 42.5282 338.32 41.819 339.2 41.819Z" fill="url(#paint104_linear_2_12)"/>
<path d="M423.681 41.819C424.562 41.819 425.275 42.5282 425.275 43.403C425.275 44.2779 424.562 44.9871 423.681 44.9871C422.801 44.9871 422.087 44.2779 422.087 43.403C422.087 42.5282 422.801 41.819 423.681 41.819Z" fill="url(#paint105_linear_2_12)"/>
<path d="M381.6 41.819C382.48 41.819 383.194 42.5282 383.194 43.403C383.194 44.2779 382.48 44.9871 381.6 44.9871C380.72 44.9871 380.006 44.2779 380.006 43.403C380.006 42.5282 380.72 41.819 381.6 41.819Z" fill="url(#paint106_linear_2_12)"/>
<path d="M465.762 41.819C466.643 41.819 467.356 42.5282 467.356 43.403C467.356 44.2779 466.643 44.9871 465.762 44.9871C464.882 44.9871 464.168 44.2779 464.168 43.403C464.168 42.5282 464.882 41.819 465.762 41.819Z" fill="url(#paint107_linear_2_12)"/>
<path d="M507.844 41.819C508.724 41.819 509.438 42.5282 509.438 43.403C509.438 44.2779 508.724 44.9871 507.844 44.9871C506.963 44.9871 506.25 44.2779 506.25 43.403C506.25 42.5282 506.963 41.819 507.844 41.819Z" fill="url(#paint108_linear_2_12)"/>
<path d="M592.325 41.819C593.205 41.819 593.919 42.5282 593.919 43.403C593.919 44.2779 593.205 44.9871 592.325 44.9871C591.444 44.9871 590.731 44.2779 590.731 43.403C590.731 42.5282 591.444 41.819 592.325 41.819Z" fill="url(#paint109_linear_2_12)"/>
<path d="M550.244 41.819C551.124 41.819 551.838 42.5282 551.838 43.403C551.838 44.2779 551.124 44.9871 550.244 44.9871C549.363 44.9871 548.65 44.2779 548.65 43.403C548.65 42.5282 549.363 41.819 550.244 41.819Z" fill="url(#paint110_linear_2_12)"/>
<path d="M634.406 41.819C635.286 41.819 636 42.5282 636 43.403C636 44.2779 635.286 44.9871 634.406 44.9871C633.526 44.9871 632.812 44.2779 632.812 43.403C632.812 42.5282 633.526 41.819 634.406 41.819Z" fill="url(#paint111_linear_2_12)"/>
<path d="M1.59397 3.04479e-05C2.47431 3.04094e-05 3.18796 0.709228 3.18796 1.58408C3.18796 2.45892 2.47431 3.16815 1.59397 3.16815C0.713639 3.16815 -1.27437e-05 2.45892 -1.27819e-05 1.58408C-1.28201e-05 0.709229 0.713639 3.04864e-05 1.59397 3.04479e-05Z" fill="url(#paint112_linear_2_12)"/>
<path d="M86.0752 2.67551e-05C86.9555 2.67166e-05 87.6692 0.709225 87.6692 1.58407C87.6692 2.45892 86.9555 3.16815 86.0752 3.16815C85.1948 3.16815 84.4812 2.45892 84.4812 1.58407C84.4812 0.709225 85.1948 2.67936e-05 86.0752 2.67551e-05Z" fill="url(#paint113_linear_2_12)"/>
<path d="M43.994 2.85945e-05C44.8743 2.85561e-05 45.588 0.709227 45.588 1.58407C45.588 2.45892 44.8743 3.16815 43.994 3.16815C43.1136 3.16815 42.4 2.45892 42.4 1.58407C42.4 0.709227 43.1136 2.8633e-05 43.994 2.85945e-05Z" fill="url(#paint114_linear_2_12)"/>
<path d="M128.156 2.49157e-05C129.037 2.48772e-05 129.75 0.709223 129.75 1.58407C129.75 2.45892 129.037 3.16815 128.156 3.16815C127.276 3.16815 126.562 2.45892 126.562 1.58407C126.562 0.709223 127.276 2.49542e-05 128.156 2.49157e-05Z" fill="url(#paint115_linear_2_12)"/>
<path d="M170.238 2.30763e-05C171.118 2.30378e-05 171.832 0.709221 171.832 1.58407C171.832 2.45892 171.118 3.16814 170.238 3.16814C169.357 3.16814 168.644 2.45892 168.644 1.58407C168.644 0.709221 169.357 2.31147e-05 170.238 2.30763e-05Z" fill="url(#paint116_linear_2_12)"/>
<path d="M254.719 1.93835e-05C255.599 1.9345e-05 256.313 0.709217 256.313 1.58406C256.313 2.45891 255.599 3.16814 254.719 3.16814C253.838 3.16814 253.125 2.45891 253.125 1.58406C253.125 0.709217 253.838 1.94219e-05 254.719 1.93835e-05Z" fill="url(#paint117_linear_2_12)"/>
<path d="M212.638 2.12229e-05C213.518 2.11844e-05 214.232 0.709219 214.232 1.58407C214.232 2.45891 213.518 3.16814 212.638 3.16814C211.757 3.16814 211.044 2.45891 211.044 1.58407C211.044 0.709219 211.757 2.12614e-05 212.638 2.12229e-05Z" fill="url(#paint118_linear_2_12)"/>
<path d="M296.8 1.7544e-05C297.68 1.75056e-05 298.394 0.709215 298.394 1.58406C298.394 2.45891 297.68 3.16814 296.8 3.16814C295.92 3.16814 295.206 2.45891 295.206 1.58406C295.206 0.709216 295.92 1.75825e-05 296.8 1.7544e-05Z" fill="url(#paint119_linear_2_12)"/>
<path d="M339.2 1.56907e-05C340.08 1.56522e-05 340.794 0.709214 340.794 1.58406C340.794 2.45891 340.08 3.16814 339.2 3.16814C338.32 3.16814 337.606 2.45891 337.606 1.58406C337.606 0.709214 338.32 1.57292e-05 339.2 1.56907e-05Z" fill="url(#paint120_linear_2_12)"/>
<path d="M423.681 1.19979e-05C424.562 1.19594e-05 425.275 0.70921 425.275 1.58406C425.275 2.4589 424.562 3.16813 423.681 3.16813C422.801 3.16813 422.087 2.4589 422.087 1.58406C422.087 0.70921 422.801 1.20364e-05 423.681 1.19979e-05Z" fill="url(#paint121_linear_2_12)"/>
<path d="M381.6 1.38373e-05C382.48 1.37988e-05 383.194 0.709212 383.194 1.58406C383.194 2.45891 382.48 3.16814 381.6 3.16814C380.72 3.16814 380.006 2.45891 380.006 1.58406C380.006 0.709212 380.72 1.38758e-05 381.6 1.38373e-05Z" fill="url(#paint122_linear_2_12)"/>
<path d="M465.762 1.01585e-05C466.643 1.012e-05 467.356 0.709208 467.356 1.58406C467.356 2.4589 466.643 3.16813 465.762 3.16813C464.882 3.16813 464.168 2.4589 464.168 1.58406C464.168 0.709208 464.882 1.01969e-05 465.762 1.01585e-05Z" fill="url(#paint123_linear_2_12)"/>
<path d="M507.844 8.31903e-06C508.724 8.28055e-06 509.438 0.709206 509.438 1.58405C509.438 2.4589 508.724 3.16813 507.844 3.16813C506.963 3.16813 506.25 2.4589 506.25 1.58405C506.25 0.709206 506.963 8.35751e-06 507.844 8.31903e-06Z" fill="url(#paint124_linear_2_12)"/>
<path d="M592.325 4.62624e-06C593.205 4.58776e-06 593.919 0.709203 593.919 1.58405C593.919 2.4589 593.205 3.16813 592.325 3.16813C591.444 3.16813 590.731 2.4589 590.731 1.58405C590.731 0.709203 591.444 4.66472e-06 592.325 4.62624e-06Z" fill="url(#paint125_linear_2_12)"/>
<path d="M550.244 6.46567e-06C551.124 6.42718e-06 551.838 0.709204 551.838 1.58405C551.838 2.4589 551.124 3.16813 550.244 3.16813C549.363 3.16813 548.65 2.4589 548.65 1.58405C548.65 0.709205 549.363 6.50415e-06 550.244 6.46567e-06Z" fill="url(#paint126_linear_2_12)"/>
<path d="M634.406 2.78681e-06C635.286 2.74833e-06 636 0.709201 636 1.58405C636 2.4589 635.286 3.16812 634.406 3.16812C633.526 3.16812 632.812 2.4589 632.812 1.58405C632.812 0.709201 633.526 2.82529e-06 634.406 2.78681e-06Z" fill="url(#paint127_linear_2_12)"/>
<defs>
<linearGradient id="paint0_linear_2_12" x1="-95.3031" y1="493.406" x2="650.303" y2="-101.406" gradientUnits="userSpaceOnUse">
<stop stop-color="#DEDEDE"/>
<stop offset="1" stop-color="#F6F7FB"/>
</linearGradient>
<linearGradient id="paint1_linear_2_12" x1="-95.3031" y1="493.406" x2="650.303" y2="-101.406" gradientUnits="userSpaceOnUse">
<stop stop-color="#DEDEDE"/>
<stop offset="1" stop-color="#F6F7FB"/>
</linearGradient>
<linearGradient id="paint2_linear_2_12" x1="-95.3031" y1="493.406" x2="650.303" y2="-101.406" gradientUnits="userSpaceOnUse">
<stop stop-color="#DEDEDE"/>
<stop offset="1" stop-color="#F6F7FB"/>
</linearGradient>
<linearGradient id="paint3_linear_2_12" x1="-95.3031" y1="493.406" x2="650.303" y2="-101.406" gradientUnits="userSpaceOnUse">
<stop stop-color="#DEDEDE"/>
<stop offset="1" stop-color="#F6F7FB"/>
</linearGradient>
<linearGradient id="paint4_linear_2_12" x1="-95.3031" y1="493.406" x2="650.303" y2="-101.406" gradientUnits="userSpaceOnUse">
<stop stop-color="#DEDEDE"/>
<stop offset="1" stop-color="#F6F7FB"/>
</linearGradient>
<linearGradient id="paint5_linear_2_12" x1="-95.3031" y1="493.406" x2="650.303" y2="-101.406" gradientUnits="userSpaceOnUse">
<stop stop-color="#DEDEDE"/>
<stop offset="1" stop-color="#F6F7FB"/>
</linearGradient>
<linearGradient id="paint6_linear_2_12" x1="-95.3031" y1="493.406" x2="650.303" y2="-101.406" gradientUnits="userSpaceOnUse">
<stop stop-color="#DEDEDE"/>
<stop offset="1" stop-color="#F6F7FB"/>
</linearGradient>
<linearGradient id="paint7_linear_2_12" x1="-95.3031" y1="493.406" x2="650.303" y2="-101.406" gradientUnits="userSpaceOnUse">
<stop stop-color="#DEDEDE"/>
<stop offset="1" stop-color="#F6F7FB"/>
</linearGradient>
<linearGradient id="paint8_linear_2_12" x1="-95.3031" y1="493.406" x2="650.303" y2="-101.406" gradientUnits="userSpaceOnUse">
<stop stop-color="#DEDEDE"/>
<stop offset="1" stop-color="#F6F7FB"/>
</linearGradient>
<linearGradient id="paint9_linear_2_12" x1="-95.3031" y1="493.406" x2="650.303" y2="-101.406" gradientUnits="userSpaceOnUse">
<stop stop-color="#DEDEDE"/>
<stop offset="1" stop-color="#F6F7FB"/>
</linearGradient>
<linearGradient id="paint10_linear_2_12" x1="-95.3031" y1="493.406" x2="650.303" y2="-101.406" gradientUnits="userSpaceOnUse">
<stop stop-color="#DEDEDE"/>
<stop offset="1" stop-color="#F6F7FB"/>
</linearGradient>
<linearGradient id="paint11_linear_2_12" x1="-95.3031" y1="493.406" x2="650.303" y2="-101.406" gradientUnits="userSpaceOnUse">
<stop stop-color="#DEDEDE"/>
<stop offset="1" stop-color="#F6F7FB"/>
</linearGradient>
<linearGradient id="paint12_linear_2_12" x1="-95.3031" y1="493.406" x2="650.303" y2="-101.406" gradientUnits="userSpaceOnUse">
<stop stop-color="#DEDEDE"/>
<stop offset="1" stop-color="#F6F7FB"/>
</linearGradient>
<linearGradient id="paint13_linear_2_12" x1="-95.3031" y1="493.406" x2="650.303" y2="-101.406" gradientUnits="userSpaceOnUse">
<stop stop-color="#DEDEDE"/>
<stop offset="1" stop-color="#F6F7FB"/>
</linearGradient>
<linearGradient id="paint14_linear_2_12" x1="-95.3031" y1="493.406" x2="650.303" y2="-101.406" gradientUnits="userSpaceOnUse">
<stop stop-color="#DEDEDE"/>
<stop offset="1" stop-color="#F6F7FB"/>
</linearGradient>
<linearGradient id="paint15_linear_2_12" x1="-95.3031" y1="493.406" x2="650.303" y2="-101.406" gradientUnits="userSpaceOnUse">
<stop stop-color="#DEDEDE"/>
<stop offset="1" stop-color="#F6F7FB"/>
</linearGradient>
<linearGradient id="paint16_linear_2_12" x1="-95.3031" y1="493.406" x2="650.303" y2="-101.406" gradientUnits="userSpaceOnUse">
<stop stop-color="#DEDEDE"/>
<stop offset="1" stop-color="#F6F7FB"/>
</linearGradient>
<linearGradient id="paint17_linear_2_12" x1="-95.3031" y1="493.406" x2="650.303" y2="-101.406" gradientUnits="userSpaceOnUse">
<stop stop-color="#DEDEDE"/>
<stop offset="1" stop-color="#F6F7FB"/>
</linearGradient>
<linearGradient id="paint18_linear_2_12" x1="-95.3031" y1="493.406" x2="650.303" y2="-101.406" gradientUnits="userSpaceOnUse">
<stop stop-color="#DEDEDE"/>
<stop offset="1" stop-color="#F6F7FB"/>
</linearGradient>
<linearGradient id="paint19_linear_2_12" x1="-95.3031" y1="493.406" x2="650.303" y2="-101.406" gradientUnits="userSpaceOnUse">
<stop stop-color="#DEDEDE"/>
<stop offset="1" stop-color="#F6F7FB"/>
</linearGradient>
<linearGradient id="paint20_linear_2_12" x1="-95.3031" y1="493.406" x2="650.303" y2="-101.406" gradientUnits="userSpaceOnUse">
<stop stop-color="#DEDEDE"/>
<stop offset="1" stop-color="#F6F7FB"/>
</linearGradient>
<linearGradient id="paint21_linear_2_12" x1="-95.3031" y1="493.406" x2="650.303" y2="-101.406" gradientUnits="userSpaceOnUse">
<stop stop-color="#DEDEDE"/>
<stop offset="1" stop-color="#F6F7FB"/>
</linearGradient>
<linearGradient id="paint22_linear_2_12" x1="-95.3031" y1="493.406" x2="650.303" y2="-101.406" gradientUnits="userSpaceOnUse">
<stop stop-color="#DEDEDE"/>
<stop offset="1" stop-color="#F6F7FB"/>
</linearGradient>
<linearGradient id="paint23_linear_2_12" x1="-95.3031" y1="493.406" x2="650.303" y2="-101.406" gradientUnits="userSpaceOnUse">
<stop stop-color="#DEDEDE"/>
<stop offset="1" stop-color="#F6F7FB"/>
</linearGradient>
<linearGradient id="paint24_linear_2_12" x1="-95.3031" y1="493.406" x2="650.303" y2="-101.406" gradientUnits="userSpaceOnUse">
<stop stop-color="#DEDEDE"/>
<stop offset="1" stop-color="#F6F7FB"/>
</linearGradient>
<linearGradient id="paint25_linear_2_12" x1="-95.3031" y1="493.406" x2="650.303" y2="-101.406" gradientUnits="userSpaceOnUse">
<stop stop-color="#DEDEDE"/>
<stop offset="1" stop-color="#F6F7FB"/>
</linearGradient>
<linearGradient id="paint26_linear_2_12" x1="-95.3031" y1="493.406" x2="650.303" y2="-101.406" gradientUnits="userSpaceOnUse">
<stop stop-color="#DEDEDE"/>
<stop offset="1" stop-color="#F6F7FB"/>
</linearGradient>
<linearGradient id="paint27_linear_2_12" x1="-95.3031" y1="493.406" x2="650.303" y2="-101.406" gradientUnits="userSpaceOnUse">
<stop stop-color="#DEDEDE"/>
<stop offset="1" stop-color="#F6F7FB"/>
</linearGradient>
<linearGradient id="paint28_linear_2_12" x1="-95.3031" y1="493.406" x2="650.303" y2="-101.406" gradientUnits="userSpaceOnUse">
<stop stop-color="#DEDEDE"/>
<stop offset="1" stop-color="#F6F7FB"/>
</linearGradient>
<linearGradient id="paint29_linear_2_12" x1="-95.3031" y1="493.406" x2="650.303" y2="-101.406" gradientUnits="userSpaceOnUse">
<stop stop-color="#DEDEDE"/>
<stop offset="1" stop-color="#F6F7FB"/>
</linearGradient>
<linearGradient id="paint30_linear_2_12" x1="-95.3031" y1="493.406" x2="650.303" y2="-101.406" gradientUnits="userSpaceOnUse">
<stop stop-color="#DEDEDE"/>
<stop offset="1" stop-color="#F6F7FB"/>
</linearGradient>
<linearGradient id="paint31_linear_2_12" x1="-95.3031" y1="493.406" x2="650.303" y2="-101.406" gradientUnits="userSpaceOnUse">
<stop stop-color="#DEDEDE"/>
<stop offset="1" stop-color="#F6F7FB"/>
</linearGradient>
<linearGradient id="paint32_linear_2_12" x1="-95.3031" y1="493.406" x2="650.303" y2="-101.406" gradientUnits="userSpaceOnUse">
<stop stop-color="#DEDEDE"/>
<stop offset="1" stop-color="#F6F7FB"/>
</linearGradient>
<linearGradient id="paint33_linear_2_12" x1="-95.3031" y1="493.406" x2="650.303" y2="-101.406" gradientUnits="userSpaceOnUse">
<stop stop-color="#DEDEDE"/>
<stop offset="1" stop-color="#F6F7FB"/>
</linearGradient>
<linearGradient id="paint34_linear_2_12" x1="-95.3031" y1="493.406" x2="650.303" y2="-101.406" gradientUnits="userSpaceOnUse">
<stop stop-color="#DEDEDE"/>
<stop offset="1" stop-color="#F6F7FB"/>
</linearGradient>
<linearGradient id="paint35_linear_2_12" x1="-95.3031" y1="493.406" x2="650.303" y2="-101.406" gradientUnits="userSpaceOnUse">
<stop stop-color="#DEDEDE"/>
<stop offset="1" stop-color="#F6F7FB"/>
</linearGradient>
<linearGradient id="paint36_linear_2_12" x1="-95.3031" y1="493.406" x2="650.303" y2="-101.406" gradientUnits="userSpaceOnUse">
<stop stop-color="#DEDEDE"/>
<stop offset="1" stop-color="#F6F7FB"/>
</linearGradient>
<linearGradient id="paint37_linear_2_12" x1="-95.3031" y1="493.406" x2="650.303" y2="-101.406" gradientUnits="userSpaceOnUse">
<stop stop-color="#DEDEDE"/>
<stop offset="1" stop-color="#F6F7FB"/>
</linearGradient>
<linearGradient id="paint38_linear_2_12" x1="-95.3031" y1="493.406" x2="650.303" y2="-101.406" gradientUnits="userSpaceOnUse">
<stop stop-color="#DEDEDE"/>
<stop offset="1" stop-color="#F6F7FB"/>
</linearGradient>
<linearGradient id="paint39_linear_2_12" x1="-95.3031" y1="493.406" x2="650.303" y2="-101.406" gradientUnits="userSpaceOnUse">
<stop stop-color="#DEDEDE"/>
<stop offset="1" stop-color="#F6F7FB"/>
</linearGradient>
<linearGradient id="paint40_linear_2_12" x1="-95.3031" y1="493.406" x2="650.303" y2="-101.406" gradientUnits="userSpaceOnUse">
<stop stop-color="#DEDEDE"/>
<stop offset="1" stop-color="#F6F7FB"/>
</linearGradient>
<linearGradient id="paint41_linear_2_12" x1="-95.3031" y1="493.406" x2="650.303" y2="-101.406" gradientUnits="userSpaceOnUse">
<stop stop-color="#DEDEDE"/>
<stop offset="1" stop-color="#F6F7FB"/>
</linearGradient>
<linearGradient id="paint42_linear_2_12" x1="-95.3031" y1="493.406" x2="650.303" y2="-101.406" gradientUnits="userSpaceOnUse">
<stop stop-color="#DEDEDE"/>
<stop offset="1" stop-color="#F6F7FB"/>
</linearGradient>
<linearGradient id="paint43_linear_2_12" x1="-95.3031" y1="493.406" x2="650.303" y2="-101.406" gradientUnits="userSpaceOnUse">
<stop stop-color="#DEDEDE"/>
<stop offset="1" stop-color="#F6F7FB"/>
</linearGradient>
<linearGradient id="paint44_linear_2_12" x1="-95.3031" y1="493.406" x2="650.303" y2="-101.406" gradientUnits="userSpaceOnUse">
<stop stop-color="#DEDEDE"/>
<stop offset="1" stop-color="#F6F7FB"/>
</linearGradient>
<linearGradient id="paint45_linear_2_12" x1="-95.3031" y1="493.406" x2="650.303" y2="-101.406" gradientUnits="userSpaceOnUse">
<stop stop-color="#DEDEDE"/>
<stop offset="1" stop-color="#F6F7FB"/>
</linearGradient>
<linearGradient id="paint46_linear_2_12" x1="-95.3031" y1="493.406" x2="650.303" y2="-101.406" gradientUnits="userSpaceOnUse">
<stop stop-color="#DEDEDE"/>
<stop offset="1" stop-color="#F6F7FB"/>
</linearGradient>
<linearGradient id="paint47_linear_2_12" x1="-95.3031" y1="493.406" x2="650.303" y2="-101.406" gradientUnits="userSpaceOnUse">
<stop stop-color="#DEDEDE"/>
<stop offset="1" stop-color="#F6F7FB"/>
</linearGradient>
<linearGradient id="paint48_linear_2_12" x1="-95.3031" y1="493.406" x2="650.303" y2="-101.406" gradientUnits="userSpaceOnUse">
<stop stop-color="#DEDEDE"/>
<stop offset="1" stop-color="#F6F7FB"/>
</linearGradient>
<linearGradient id="paint49_linear_2_12" x1="-95.3031" y1="493.406" x2="650.303" y2="-101.406" gradientUnits="userSpaceOnUse">
<stop stop-color="#DEDEDE"/>
<stop offset="1" stop-color="#F6F7FB"/>
</linearGradient>
<linearGradient id="paint50_linear_2_12" x1="-95.3031" y1="493.406" x2="650.303" y2="-101.406" gradientUnits="userSpaceOnUse">
<stop stop-color="#DEDEDE"/>
<stop offset="1" stop-color="#F6F7FB"/>
</linearGradient>
<linearGradient id="paint51_linear_2_12" x1="-95.3031" y1="493.406" x2="650.303" y2="-101.406" gradientUnits="userSpaceOnUse">
<stop stop-color="#DEDEDE"/>
<stop offset="1" stop-color="#F6F7FB"/>
</linearGradient>
<linearGradient id="paint52_linear_2_12" x1="-95.3031" y1="493.406" x2="650.303" y2="-101.406" gradientUnits="userSpaceOnUse">
<stop stop-color="#DEDEDE"/>
<stop offset="1" stop-color="#F6F7FB"/>
</linearGradient>
<linearGradient id="paint53_linear_2_12" x1="-95.3031" y1="493.406" x2="650.303" y2="-101.406" gradientUnits="userSpaceOnUse">
<stop stop-color="#DEDEDE"/>
<stop offset="1" stop-color="#F6F7FB"/>
</linearGradient>
<linearGradient id="paint54_linear_2_12" x1="-95.3031" y1="493.406" x2="650.303" y2="-101.406" gradientUnits="userSpaceOnUse">
<stop stop-color="#DEDEDE"/>
<stop offset="1" stop-color="#F6F7FB"/>
</linearGradient>
<linearGradient id="paint55_linear_2_12" x1="-95.3031" y1="493.406" x2="650.303" y2="-101.406" gradientUnits="userSpaceOnUse">
<stop stop-color="#DEDEDE"/>
<stop offset="1" stop-color="#F6F7FB"/>
</linearGradient>
<linearGradient id="paint56_linear_2_12" x1="-95.3031" y1="493.406" x2="650.303" y2="-101.406" gradientUnits="userSpaceOnUse">
<stop stop-color="#DEDEDE"/>
<stop offset="1" stop-color="#F6F7FB"/>
</linearGradient>
<linearGradient id="paint57_linear_2_12" x1="-95.3031" y1="493.406" x2="650.303" y2="-101.406" gradientUnits="userSpaceOnUse">
<stop stop-color="#DEDEDE"/>
<stop offset="1" stop-color="#F6F7FB"/>
</linearGradient>
<linearGradient id="paint58_linear_2_12" x1="-95.3031" y1="493.406" x2="650.303" y2="-101.406" gradientUnits="userSpaceOnUse">
<stop stop-color="#DEDEDE"/>
<stop offset="1" stop-color="#F6F7FB"/>
</linearGradient>
<linearGradient id="paint59_linear_2_12" x1="-95.3031" y1="493.406" x2="650.303" y2="-101.406" gradientUnits="userSpaceOnUse">
<stop stop-color="#DEDEDE"/>
<stop offset="1" stop-color="#F6F7FB"/>
</linearGradient>
<linearGradient id="paint60_linear_2_12" x1="-95.3031" y1="493.406" x2="650.303" y2="-101.406" gradientUnits="userSpaceOnUse">
<stop stop-color="#DEDEDE"/>
<stop offset="1" stop-color="#F6F7FB"/>
</linearGradient>
<linearGradient id="paint61_linear_2_12" x1="-95.3031" y1="493.406" x2="650.303" y2="-101.406" gradientUnits="userSpaceOnUse">
<stop stop-color="#DEDEDE"/>
<stop offset="1" stop-color="#F6F7FB"/>
</linearGradient>
<linearGradient id="paint62_linear_2_12" x1="-95.3031" y1="493.406" x2="650.303" y2="-101.406" gradientUnits="userSpaceOnUse">
<stop stop-color="#DEDEDE"/>
<stop offset="1" stop-color="#F6F7FB"/>
</linearGradient>
<linearGradient id="paint63_linear_2_12" x1="-95.3031" y1="493.406" x2="650.303" y2="-101.406" gradientUnits="userSpaceOnUse">
<stop stop-color="#DEDEDE"/>
<stop offset="1" stop-color="#F6F7FB"/>
</linearGradient>
<linearGradient id="paint64_linear_2_12" x1="-95.3031" y1="493.406" x2="650.303" y2="-101.406" gradientUnits="userSpaceOnUse">
<stop stop-color="#DEDEDE"/>
<stop offset="1" stop-color="#F6F7FB"/>
</linearGradient>
<linearGradient id="paint65_linear_2_12" x1="-95.3031" y1="493.406" x2="650.303" y2="-101.406" gradientUnits="userSpaceOnUse">
<stop stop-color="#DEDEDE"/>
<stop offset="1" stop-color="#F6F7FB"/>
</linearGradient>
<linearGradient id="paint66_linear_2_12" x1="-95.3031" y1="493.406" x2="650.303" y2="-101.406" gradientUnits="userSpaceOnUse">
<stop stop-color="#DEDEDE"/>
<stop offset="1" stop-color="#F6F7FB"/>
</linearGradient>
<linearGradient id="paint67_linear_2_12" x1="-95.3031" y1="493.406" x2="650.303" y2="-101.406" gradientUnits="userSpaceOnUse">
<stop stop-color="#DEDEDE"/>
<stop offset="1" stop-color="#F6F7FB"/>
</linearGradient>
<linearGradient id="paint68_linear_2_12" x1="-95.3031" y1="493.406" x2="650.303" y2="-101.406" gradientUnits="userSpaceOnUse">
<stop stop-color="#DEDEDE"/>
<stop offset="1" stop-color="#F6F7FB"/>
</linearGradient>
<linearGradient id="paint69_linear_2_12" x1="-95.3031" y1="493.406" x2="650.303" y2="-101.406" gradientUnits="userSpaceOnUse">
<stop stop-color="#DEDEDE"/>
<stop offset="1" stop-color="#F6F7FB"/>
</linearGradient>
<linearGradient id="paint70_linear_2_12" x1="-95.3031" y1="493.406" x2="650.303" y2="-101.406" gradientUnits="userSpaceOnUse">
<stop stop-color="#DEDEDE"/>
<stop offset="1" stop-color="#F6F7FB"/>
</linearGradient>
<linearGradient id="paint71_linear_2_12" x1="-95.3031" y1="493.406" x2="650.303" y2="-101.406" gradientUnits="userSpaceOnUse">
<stop stop-color="#DEDEDE"/>
<stop offset="1" stop-color="#F6F7FB"/>
</linearGradient>
<linearGradient id="paint72_linear_2_12" x1="-95.3031" y1="493.406" x2="650.303" y2="-101.406" gradientUnits="userSpaceOnUse">
<stop stop-color="#DEDEDE"/>
<stop offset="1" stop-color="#F6F7FB"/>
</linearGradient>
<linearGradient id="paint73_linear_2_12" x1="-95.3031" y1="493.406" x2="650.303" y2="-101.406" gradientUnits="userSpaceOnUse">
<stop stop-color="#DEDEDE"/>
<stop offset="1" stop-color="#F6F7FB"/>
</linearGradient>
<linearGradient id="paint74_linear_2_12" x1="-95.3031" y1="493.406" x2="650.303" y2="-101.406" gradientUnits="userSpaceOnUse">
<stop stop-color="#DEDEDE"/>
<stop offset="1" stop-color="#F6F7FB"/>
</linearGradient>
<linearGradient id="paint75_linear_2_12" x1="-95.3031" y1="493.406" x2="650.303" y2="-101.406" gradientUnits="userSpaceOnUse">
<stop stop-color="#DEDEDE"/>
<stop offset="1" stop-color="#F6F7FB"/>
</linearGradient>
<linearGradient id="paint76_linear_2_12" x1="-95.3031" y1="493.406" x2="650.303" y2="-101.406" gradientUnits="userSpaceOnUse">
<stop stop-color="#DEDEDE"/>
<stop offset="1" stop-color="#F6F7FB"/>
</linearGradient>
<linearGradient id="paint77_linear_2_12" x1="-95.3031" y1="493.406" x2="650.303" y2="-101.406" gradientUnits="userSpaceOnUse">
<stop stop-color="#DEDEDE"/>
<stop offset="1" stop-color="#F6F7FB"/>
</linearGradient>
<linearGradient id="paint78_linear_2_12" x1="-95.3031" y1="493.406" x2="650.303" y2="-101.406" gradientUnits="userSpaceOnUse">
<stop stop-color="#DEDEDE"/>
<stop offset="1" stop-color="#F6F7FB"/>
</linearGradient>
<linearGradient id="paint79_linear_2_12" x1="-95.3031" y1="493.406" x2="650.303" y2="-101.406" gradientUnits="userSpaceOnUse">
<stop stop-color="#DEDEDE"/>
<stop offset="1" stop-color="#F6F7FB"/>
</linearGradient>
<linearGradient id="paint80_linear_2_12" x1="-95.3031" y1="493.406" x2="650.303" y2="-101.406" gradientUnits="userSpaceOnUse">
<stop stop-color="#DEDEDE"/>
<stop offset="1" stop-color="#F6F7FB"/>
</linearGradient>
<linearGradient id="paint81_linear_2_12" x1="-95.3031" y1="493.406" x2="650.303" y2="-101.406" gradientUnits="userSpaceOnUse">
<stop stop-color="#DEDEDE"/>
<stop offset="1" stop-color="#F6F7FB"/>
</linearGradient>
<linearGradient id="paint82_linear_2_12" x1="-95.3031" y1="493.406" x2="650.303" y2="-101.406" gradientUnits="userSpaceOnUse">
<stop stop-color="#DEDEDE"/>
<stop offset="1" stop-color="#F6F7FB"/>
</linearGradient>
<linearGradient id="paint83_linear_2_12" x1="-95.3031" y1="493.406" x2="650.303" y2="-101.406" gradientUnits="userSpaceOnUse">
<stop stop-color="#DEDEDE"/>
<stop offset="1" stop-color="#F6F7FB"/>
</linearGradient>
<linearGradient id="paint84_linear_2_12" x1="-95.3031" y1="493.406" x2="650.303" y2="-101.406" gradientUnits="userSpaceOnUse">
<stop stop-color="#DEDEDE"/>
<stop offset="1" stop-color="#F6F7FB"/>
</linearGradient>
<linearGradient id="paint85_linear_2_12" x1="-95.3031" y1="493.406" x2="650.303" y2="-101.406" gradientUnits="userSpaceOnUse">
<stop stop-color="#DEDEDE"/>
<stop offset="1" stop-color="#F6F7FB"/>
</linearGradient>
<linearGradient id="paint86_linear_2_12" x1="-95.3031" y1="493.406" x2="650.303" y2="-101.406" gradientUnits="userSpaceOnUse">
<stop stop-color="#DEDEDE"/>
<stop offset="1" stop-color="#F6F7FB"/>
</linearGradient>
<linearGradient id="paint87_linear_2_12" x1="-95.3031" y1="493.406" x2="650.303" y2="-101.406" gradientUnits="userSpaceOnUse">
<stop stop-color="#DEDEDE"/>
<stop offset="1" stop-color="#F6F7FB"/>
</linearGradient>
<linearGradient id="paint88_linear_2_12" x1="-95.3031" y1="493.406" x2="650.303" y2="-101.406" gradientUnits="userSpaceOnUse">
<stop stop-color="#DEDEDE"/>
<stop offset="1" stop-color="#F6F7FB"/>
</linearGradient>
<linearGradient id="paint89_linear_2_12" x1="-95.3031" y1="493.406" x2="650.303" y2="-101.406" gradientUnits="userSpaceOnUse">
<stop stop-color="#DEDEDE"/>
<stop offset="1" stop-color="#F6F7FB"/>
</linearGradient>
<linearGradient id="paint90_linear_2_12" x1="-95.3031" y1="493.406" x2="650.303" y2="-101.406" gradientUnits="userSpaceOnUse">
<stop stop-color="#DEDEDE"/>
<stop offset="1" stop-color="#F6F7FB"/>
</linearGradient>
<linearGradient id="paint91_linear_2_12" x1="-95.3031" y1="493.406" x2="650.303" y2="-101.406" gradientUnits="userSpaceOnUse">
<stop stop-color="#DEDEDE"/>
<stop offset="1" stop-color="#F6F7FB"/>
</linearGradient>
<linearGradient id="paint92_linear_2_12" x1="-95.3031" y1="493.406" x2="650.303" y2="-101.406" gradientUnits="userSpaceOnUse">
<stop stop-color="#DEDEDE"/>
<stop offset="1" stop-color="#F6F7FB"/>
</linearGradient>
<linearGradient id="paint93_linear_2_12" x1="-95.3031" y1="493.406" x2="650.303" y2="-101.406" gradientUnits="userSpaceOnUse">
<stop stop-color="#DEDEDE"/>
<stop offset="1" stop-color="#F6F7FB"/>
</linearGradient>
<linearGradient id="paint94_linear_2_12" x1="-95.3031" y1="493.406" x2="650.303" y2="-101.406" gradientUnits="userSpaceOnUse">
<stop stop-color="#DEDEDE"/>
<stop offset="1" stop-color="#F6F7FB"/>
</linearGradient>
<linearGradient id="paint95_linear_2_12" x1="-95.3031" y1="493.406" x2="650.303" y2="-101.406" gradientUnits="userSpaceOnUse">
<stop stop-color="#DEDEDE"/>
<stop offset="1" stop-color="#F6F7FB"/>
</linearGradient>
<linearGradient id="paint96_linear_2_12" x1="-95.3031" y1="493.406" x2="650.303" y2="-101.406" gradientUnits="userSpaceOnUse">
<stop stop-color="#DEDEDE"/>
<stop offset="1" stop-color="#F6F7FB"/>
</linearGradient>
<linearGradient id="paint97_linear_2_12" x1="-95.3031" y1="493.406" x2="650.303" y2="-101.406" gradientUnits="userSpaceOnUse">
<stop stop-color="#DEDEDE"/>
<stop offset="1" stop-color="#F6F7FB"/>
</linearGradient>
<linearGradient id="paint98_linear_2_12" x1="-95.3031" y1="493.406" x2="650.303" y2="-101.406" gradientUnits="userSpaceOnUse">
<stop stop-color="#DEDEDE"/>
<stop offset="1" stop-color="#F6F7FB"/>
</linearGradient>
<linearGradient id="paint99_linear_2_12" x1="-95.3031" y1="493.406" x2="650.303" y2="-101.406" gradientUnits="userSpaceOnUse">
<stop stop-color="#DEDEDE"/>
<stop offset="1" stop-color="#F6F7FB"/>
</linearGradient>
<linearGradient id="paint100_linear_2_12" x1="-95.3031" y1="493.406" x2="650.303" y2="-101.406" gradientUnits="userSpaceOnUse">
<stop stop-color="#DEDEDE"/>
<stop offset="1" stop-color="#F6F7FB"/>
</linearGradient>
<linearGradient id="paint101_linear_2_12" x1="-95.3031" y1="493.406" x2="650.303" y2="-101.406" gradientUnits="userSpaceOnUse">
<stop stop-color="#DEDEDE"/>
<stop offset="1" stop-color="#F6F7FB"/>
</linearGradient>
<linearGradient id="paint102_linear_2_12" x1="-95.3031" y1="493.406" x2="650.303" y2="-101.406" gradientUnits="userSpaceOnUse">
<stop stop-color="#DEDEDE"/>
<stop offset="1" stop-color="#F6F7FB"/>
</linearGradient>
<linearGradient id="paint103_linear_2_12" x1="-95.3031" y1="493.406" x2="650.303" y2="-101.406" gradientUnits="userSpaceOnUse">
<stop stop-color="#DEDEDE"/>
<stop offset="1" stop-color="#F6F7FB"/>
</linearGradient>
<linearGradient id="paint104_linear_2_12" x1="-95.3031" y1="493.406" x2="650.303" y2="-101.406" gradientUnits="userSpaceOnUse">
<stop stop-color="#DEDEDE"/>
<stop offset="1" stop-color="#F6F7FB"/>
</linearGradient>
<linearGradient id="paint105_linear_2_12" x1="-95.3031" y1="493.406" x2="650.303" y2="-101.406" gradientUnits="userSpaceOnUse">
<stop stop-color="#DEDEDE"/>
<stop offset="1" stop-color="#F6F7FB"/>
</linearGradient>
<linearGradient id="paint106_linear_2_12" x1="-95.3031" y1="493.406" x2="650.303" y2="-101.406" gradientUnits="userSpaceOnUse">
<stop stop-color="#DEDEDE"/>
<stop offset="1" stop-color="#F6F7FB"/>
</linearGradient>
<linearGradient id="paint107_linear_2_12" x1="-95.3031" y1="493.406" x2="650.303" y2="-101.406" gradientUnits="userSpaceOnUse">
<stop stop-color="#DEDEDE"/>
<stop offset="1" stop-color="#F6F7FB"/>
</linearGradient>
<linearGradient id="paint108_linear_2_12" x1="-95.3031" y1="493.406" x2="650.303" y2="-101.406" gradientUnits="userSpaceOnUse">
<stop stop-color="#DEDEDE"/>
<stop offset="1" stop-color="#F6F7FB"/>
</linearGradient>
<linearGradient id="paint109_linear_2_12" x1="-95.3031" y1="493.406" x2="650.303" y2="-101.406" gradientUnits="userSpaceOnUse">
<stop stop-color="#DEDEDE"/>
<stop offset="1" stop-color="#F6F7FB"/>
</linearGradient>
<linearGradient id="paint110_linear_2_12" x1="-95.3031" y1="493.406" x2="650.303" y2="-101.406" gradientUnits="userSpaceOnUse">
<stop stop-color="#DEDEDE"/>
<stop offset="1" stop-color="#F6F7FB"/>
</linearGradient>
<linearGradient id="paint111_linear_2_12" x1="-95.3031" y1="493.406" x2="650.303" y2="-101.406" gradientUnits="userSpaceOnUse">
<stop stop-color="#DEDEDE"/>
<stop offset="1" stop-color="#F6F7FB"/>
</linearGradient>
<linearGradient id="paint112_linear_2_12" x1="-95.3031" y1="493.406" x2="650.303" y2="-101.406" gradientUnits="userSpaceOnUse">
<stop stop-color="#DEDEDE"/>
<stop offset="1" stop-color="#F6F7FB"/>
</linearGradient>
<linearGradient id="paint113_linear_2_12" x1="-95.3031" y1="493.406" x2="650.303" y2="-101.406" gradientUnits="userSpaceOnUse">
<stop stop-color="#DEDEDE"/>
<stop offset="1" stop-color="#F6F7FB"/>
</linearGradient>
<linearGradient id="paint114_linear_2_12" x1="-95.3031" y1="493.406" x2="650.303" y2="-101.406" gradientUnits="userSpaceOnUse">
<stop stop-color="#DEDEDE"/>
<stop offset="1" stop-color="#F6F7FB"/>
</linearGradient>
<linearGradient id="paint115_linear_2_12" x1="-95.3031" y1="493.406" x2="650.303" y2="-101.406" gradientUnits="userSpaceOnUse">
<stop stop-color="#DEDEDE"/>
<stop offset="1" stop-color="#F6F7FB"/>
</linearGradient>
<linearGradient id="paint116_linear_2_12" x1="-95.3031" y1="493.406" x2="650.303" y2="-101.406" gradientUnits="userSpaceOnUse">
<stop stop-color="#DEDEDE"/>
<stop offset="1" stop-color="#F6F7FB"/>
</linearGradient>
<linearGradient id="paint117_linear_2_12" x1="-95.3031" y1="493.406" x2="650.303" y2="-101.406" gradientUnits="userSpaceOnUse">
<stop stop-color="#DEDEDE"/>
<stop offset="1" stop-color="#F6F7FB"/>
</linearGradient>
<linearGradient id="paint118_linear_2_12" x1="-95.3031" y1="493.406" x2="650.303" y2="-101.406" gradientUnits="userSpaceOnUse">
<stop stop-color="#DEDEDE"/>
<stop offset="1" stop-color="#F6F7FB"/>
</linearGradient>
<linearGradient id="paint119_linear_2_12" x1="-95.3031" y1="493.406" x2="650.303" y2="-101.406" gradientUnits="userSpaceOnUse">
<stop stop-color="#DEDEDE"/>
<stop offset="1" stop-color="#F6F7FB"/>
</linearGradient>
<linearGradient id="paint120_linear_2_12" x1="-95.3031" y1="493.406" x2="650.303" y2="-101.406" gradientUnits="userSpaceOnUse">
<stop stop-color="#DEDEDE"/>
<stop offset="1" stop-color="#F6F7FB"/>
</linearGradient>
<linearGradient id="paint121_linear_2_12" x1="-95.3031" y1="493.406" x2="650.303" y2="-101.406" gradientUnits="userSpaceOnUse">
<stop stop-color="#DEDEDE"/>
<stop offset="1" stop-color="#F6F7FB"/>
</linearGradient>
<linearGradient id="paint122_linear_2_12" x1="-95.3031" y1="493.406" x2="650.303" y2="-101.406" gradientUnits="userSpaceOnUse">
<stop stop-color="#DEDEDE"/>
<stop offset="1" stop-color="#F6F7FB"/>
</linearGradient>
<linearGradient id="paint123_linear_2_12" x1="-95.3031" y1="493.406" x2="650.303" y2="-101.406" gradientUnits="userSpaceOnUse">
<stop stop-color="#DEDEDE"/>
<stop offset="1" stop-color="#F6F7FB"/>
</linearGradient>
<linearGradient id="paint124_linear_2_12" x1="-95.3031" y1="493.406" x2="650.303" y2="-101.406" gradientUnits="userSpaceOnUse">
<stop stop-color="#DEDEDE"/>
<stop offset="1" stop-color="#F6F7FB"/>
</linearGradient>
<linearGradient id="paint125_linear_2_12" x1="-95.3031" y1="493.406" x2="650.303" y2="-101.406" gradientUnits="userSpaceOnUse">
<stop stop-color="#DEDEDE"/>
<stop offset="1" stop-color="#F6F7FB"/>
</linearGradient>
<linearGradient id="paint126_linear_2_12" x1="-95.3031" y1="493.406" x2="650.303" y2="-101.406" gradientUnits="userSpaceOnUse">
<stop stop-color="#DEDEDE"/>
<stop offset="1" stop-color="#F6F7FB"/>
</linearGradient>
<linearGradient id="paint127_linear_2_12" x1="-95.3031" y1="493.406" x2="650.303" y2="-101.406" gradientUnits="userSpaceOnUse">
<stop stop-color="#DEDEDE"/>
<stop offset="1" stop-color="#F6F7FB"/>
</linearGradient>
</defs>
</svg>
