<svg width="308" height="291" viewBox="0 0 308 291" fill="none" xmlns="http://www.w3.org/2000/svg">
<path d="M-48.9027 -238.021L17.7329 10.6668C19.8601 18.6055 17.5904 27.0759 11.7789 32.8875L-161.205 205.872M-28.8822 -233.015L37.7534 15.6719C39.8806 23.6106 37.611 32.0811 31.7994 37.8926L-141.185 210.877M-10.1129 -226.759L56.5226 21.9283C58.6498 29.867 56.3802 38.3375 50.5686 44.149L-122.415 217.133M9.90757 -221.754L76.5432 26.9335C78.6703 34.8721 76.4007 43.3426 70.5892 49.1541L-102.395 222.138M27.4255 -215.497L94.0611 33.1899C96.1883 41.1286 93.9186 49.599 88.1071 55.4105L-84.877 228.395M47.446 -210.492L114.082 38.195C116.209 46.1337 113.939 54.6041 108.128 60.4157L-64.8565 233.4M66.2152 -204.236L132.851 44.4514C134.978 52.3901 132.708 60.8605 126.897 66.6721L-46.0873 239.656M86.2357 -199.231L152.871 49.4565C154.998 57.3952 152.729 65.8657 146.917 71.6772L-26.0668 244.661M104.379 -192.349L171.015 56.3386C173.142 64.2773 170.872 72.7477 165.061 78.5592L-7.92317 251.543M124.4 -187.344L191.035 61.3437C193.163 69.2824 190.893 77.7528 185.081 83.5644L12.0973 256.548M143.169 -181.087L209.805 67.6001C211.932 75.5388 209.662 84.0093 203.851 89.8208L30.8665 262.805M163.19 -176.082L229.825 72.6052C231.952 80.5439 229.683 89.0144 223.871 94.8259L50.887 267.81M180.707 -169.826L247.343 78.8617C249.47 86.8003 247.201 95.2708 241.389 101.082L68.405 274.066M200.728 -164.821L267.364 83.8668C269.491 91.8054 267.221 100.276 261.41 106.087L88.4255 279.072M219.497 -158.564L286.133 90.1232C288.26 98.0619 285.99 106.532 280.179 112.344L107.195 285.328M239.518 -153.559L306.153 95.1283C308.28 103.067 306.011 111.537 300.199 117.349L127.215 290.333" stroke="url(#paint0_linear_2_52)"/>
<defs>
<linearGradient id="paint0_linear_2_52" x1="7.21102" y1="-294.134" x2="119.23" y2="337.917" gradientUnits="userSpaceOnUse">
<stop stop-color="#DADADA"/>
<stop offset="1" stop-color="white"/>
</linearGradient>
</defs>
</svg>
