<svg width="199" height="442" viewBox="0 0 199 442" fill="none" xmlns="http://www.w3.org/2000/svg">
<path d="M356.34 528.707L289.705 280.02C287.578 272.081 289.847 263.611 295.659 257.799L468.643 84.8151M336.32 523.702L269.684 275.015C267.557 267.076 269.827 258.606 275.638 252.794L448.622 79.8099M317.551 517.446L250.915 268.758C248.788 260.82 251.058 252.349 256.869 246.538L429.853 73.5535M297.53 512.441L230.895 263.753C228.767 255.814 231.037 247.344 236.849 241.532L409.833 68.5484M280.012 506.184L213.377 257.497C211.249 249.558 213.519 241.088 219.331 235.276L392.315 62.292M259.992 501.179L193.356 252.492C191.229 244.553 193.499 236.082 199.31 230.271L372.294 57.2868M241.222 494.923L174.587 246.235C172.46 238.297 174.729 229.826 180.541 224.015L353.525 51.0305M221.202 489.917L154.566 241.23C152.439 233.291 154.709 224.821 160.52 219.009L333.504 46.0253M203.058 483.035L136.423 234.348C134.296 226.409 136.565 217.939 142.377 212.127L315.361 39.1433M183.038 478.03L116.402 229.343C114.275 221.404 116.545 212.934 122.356 207.122L295.34 34.1382M164.269 471.774L97.6331 223.087C95.5059 215.148 97.7756 206.677 103.587 200.866L276.571 27.8818M144.248 466.769L77.6126 218.081C75.4854 210.143 77.7551 201.672 83.5666 195.861L256.551 22.8766M126.73 460.512L60.0946 211.825C57.9675 203.886 60.2371 195.416 66.0486 189.604L239.033 16.6202M106.71 455.507L40.0741 206.82C37.947 198.881 40.2166 190.411 46.0281 184.599L219.012 11.6151M87.9405 449.251L21.3049 200.563C19.1778 192.625 21.4474 184.154 27.2589 178.343L200.243 5.35871M67.92 444.246L1.28441 195.558C-0.84275 187.62 1.4269 179.149 7.23842 173.338L180.222 0.353568" stroke="url(#paint0_linear_2_25)"/>
<defs>
<linearGradient id="paint0_linear_2_25" x1="300.227" y1="584.821" x2="188.208" y2="-47.2303" gradientUnits="userSpaceOnUse">
<stop stop-color="#DADADA"/>
<stop offset="1" stop-color="white"/>
</linearGradient>
</defs>
</svg>
