<svg width="326" height="310" viewBox="0 0 326 310" fill="none" xmlns="http://www.w3.org/2000/svg">
<path d="M-142.436 375.549L101.943 294.524C109.744 291.938 118.332 293.71 124.473 299.172L307.25 461.774M-138.607 355.27L105.772 274.246C113.573 271.659 122.161 273.431 128.302 278.894L311.079 441.496M-133.455 336.168L110.923 255.144C118.724 252.557 127.312 254.329 133.453 259.792L316.23 422.394M-129.626 315.89L114.752 234.866C122.553 232.279 131.141 234.051 137.282 239.514L320.059 402.116M-124.402 298.037L119.976 217.013C127.777 214.426 136.366 216.198 142.506 221.661L325.284 384.263M-120.573 277.759L123.805 196.734C131.606 194.148 140.195 195.92 146.335 201.382L329.113 363.984M-115.422 258.657L128.956 177.632C136.758 175.046 145.346 176.817 151.487 182.28L334.264 344.882M-111.593 238.378L132.786 157.354C140.587 154.767 149.175 156.539 155.316 162.002L338.093 324.604M-105.78 219.864L138.598 138.84C146.399 136.253 154.987 138.025 161.128 143.488L343.905 306.09M-101.951 199.586L142.427 118.561C150.228 115.975 158.816 117.747 164.957 123.21L347.734 285.812M-96.8001 180.484L147.578 99.4593C155.379 96.8729 163.968 98.6447 170.108 104.107L352.886 266.709M-92.971 160.206L151.407 79.181C159.208 76.5945 167.797 78.3664 173.937 83.8291L356.715 246.431M-87.7468 142.353L156.632 61.328C164.433 58.7416 173.021 60.5134 179.162 65.9761L361.939 228.578M-83.9177 122.074L160.461 41.0498C168.262 38.4633 176.85 40.2351 182.991 45.6978L365.768 208.3M-78.7664 102.972L165.612 21.9476C173.413 19.3611 182.001 21.133 188.142 26.5957L370.919 189.198M-74.9373 82.6938L169.441 1.6693C177.242 -0.91718 185.83 0.854644 191.971 6.31737L374.748 168.919" stroke="url(#paint0_linear_2_70)"/>
<defs>
<linearGradient id="paint0_linear_2_70" x1="-201.726" y1="322.803" x2="422.717" y2="174.116" gradientUnits="userSpaceOnUse">
<stop stop-color="#DADADA"/>
<stop offset="1" stop-color="white"/>
</linearGradient>
</defs>
</svg>
